<?xml version="1.0" encoding="utf-8"?>
<!-- Generator: Adobe Illustrator 19.2.1, SVG Export Plug-In . SVG Version: 6.00 Build 0)  -->
<svg version="1.1" id="Layer_1" xmlns="http://www.w3.org/2000/svg" xmlns:xlink="http://www.w3.org/1999/xlink" x="0px" y="0px"
	 viewBox="0 0 1400 980" style="enable-background:new 0 0 1400 980;" xml:space="preserve">
<style type="text/css">
	.st0{fill:#F0628B;}
	.st1{fill:#FFFFFF;}
	.st2{fill:#42616F;}
	.st3{fill:#F9ED32;}
	.st4{fill:#FECD18;}
	.st5{fill:#7ED3F7;}
	.st6{fill:#B9C8E6;}
	.st7{fill:#99ADD5;}
	.st8{fill:#F596A3;}
	.st9{fill:#D4C094;}
	.st10{fill:#F0DEB4;}
	.st11{fill:#75CBC3;}
	.st12{fill:#EE6F79;}
	.st13{fill:#D7DF23;}
</style>
<g>
	<g>
		<g>
			<path class="st0" d="M332.2,144.6c-44.8,0-81,36.3-81,81c0,44.8,36.3,81,81,81s81-36.3,81-81
				C413.2,180.9,376.9,144.6,332.2,144.6z M332.2,292.7c-37,0-67.1-30-67.1-67.1s30-67.1,67.1-67.1s67.1,30,67.1,67.1
				S369.2,292.7,332.2,292.7z"/>
			<g>
				<path class="st1" d="M332.2,150.9c43.7,0,79.3,34.6,81,77.9c0-1.1,0.1-2.1,0.1-3.2c0-44.8-36.3-81-81-81s-81,36.3-81,81
					c0,1.1,0,2.1,0.1,3.2C252.9,185.5,288.5,150.9,332.2,150.9z"/>
			</g>
			<g>
				<path class="st1" d="M387,165.9c13.3,14.4,21.3,33.7,21.3,54.8c0,44.8-36.3,81-81,81c-21.1,0-40.4-8.1-54.8-21.3
					c14.8,16.1,36.1,26.2,59.7,26.2c44.8,0,81-36.3,81-81C413.2,202,403.1,180.7,387,165.9z"/>
			</g>
			<path class="st2" d="M332.2,309.4c-19.2,0-38-6.7-52.8-18.8c-14.7-11.9-24.9-28.6-29-47c-0.3-1.5,0.6-2.9,2.1-3.2
				c1.5-0.3,2.9,0.6,3.2,2.1c7.8,35.6,40,61.4,76.5,61.4c23.4,0,45.3-10.3,60.3-28.3c1-1.2,2.7-1.3,3.8-0.4c1.2,1,1.3,2.7,0.4,3.8
				C380.6,298.3,357.1,309.4,332.2,309.4z M332.2,295.4c-38.5,0-69.8-31.3-69.8-69.8s31.3-69.8,69.8-69.8s69.8,31.3,69.8,69.8
				S370.6,295.4,332.2,295.4z M332.2,161.3c-35.5,0-64.4,28.9-64.4,64.4s28.9,64.4,64.4,64.4s64.4-28.9,64.4-64.4
				S367.6,161.3,332.2,161.3z M401.7,270c-0.5,0-1-0.1-1.4-0.4c-1.3-0.8-1.7-2.4-0.9-3.7c1.5-2.5,2.9-5.2,4.1-7.9
				c0.6-1.4,2.2-2,3.6-1.4c1.4,0.6,2,2.2,1.4,3.6c-1.3,2.9-2.8,5.7-4.4,8.4C403.5,269.5,402.6,270,401.7,270z M411.5,244.9
				c-0.2,0-0.4,0-0.6-0.1c-1.5-0.3-2.4-1.7-2.1-3.2c1.1-5.2,1.6-10.6,1.6-16c0-26-12.8-50.2-34.3-64.8c-1.2-0.8-1.6-2.5-0.7-3.8
				c0.8-1.2,2.5-1.6,3.8-0.7c23,15.6,36.7,41.5,36.7,69.3c0,5.8-0.6,11.5-1.7,17.1C413.9,244,412.8,244.9,411.5,244.9z M251.2,231.5
				c-1.5,0-2.7-1.2-2.7-2.6c0-1.1-0.1-2.2-0.1-3.3c0-46.2,37.6-83.8,83.8-83.8c11.3,0,22.3,2.2,32.6,6.6c1.4,0.6,2,2.2,1.4,3.6
				c-0.6,1.4-2.2,2-3.6,1.4c-9.7-4.1-19.9-6.2-30.5-6.2c-43.2,0-78.3,35.1-78.3,78.3c0,1,0,2.1,0.1,3.1c0.1,1.5-1.1,2.8-2.6,2.8
				C251.2,231.5,251.2,231.5,251.2,231.5z"/>
		</g>
		<g>
			<path class="st3" d="M154.8,216.3c8.8,43.9,51.5,72.3,95.4,63.5c43.9-8.8,72.3-51.5,63.5-95.4c-8.8-43.9-51.5-72.3-95.4-63.5
				C174.5,129.7,146,172.4,154.8,216.3z M300,187.2c7.3,36.3-16.3,71.7-52.6,78.9c-36.3,7.3-71.7-16.3-78.9-52.6
				s16.3-71.7,52.6-78.9S292.8,150.9,300,187.2z"/>
			<g>
				<path class="st1" d="M161,215c-8.6-42.8,18.3-84.5,60.4-94.7c-1,0.2-2.1,0.3-3.1,0.6c-43.9,8.8-72.3,51.5-63.5,95.4
					s51.5,72.3,95.4,63.5c1-0.2,2.1-0.4,3.1-0.7C210.5,286,169.6,257.9,161,215z"/>
			</g>
			<g>
				<path class="st1" d="M165,158.3c11.5-15.8,28.8-27.5,49.5-31.7c43.9-8.8,86.6,19.7,95.4,63.5c4.1,20.7,0,41.2-10.2,57.9
					c12.9-17.7,18.6-40.5,14-63.7c-8.8-43.9-51.5-72.3-95.4-63.5C195.2,125.5,176.3,139.6,165,158.3z"/>
			</g>
			<path class="st2" d="M234.2,284.1c-39.1,0-74.1-27.6-82.1-67.3c-2.2-11.1-2.2-22.3,0.1-33.3c0.3-1.5,1.7-2.4,3.2-2.1
				c1.5,0.3,2.4,1.7,2.1,3.2c-2.1,10.3-2.1,20.7,0,31.1c7.4,37.2,40.2,62.9,76.8,62.9c5.1,0,10.2-0.5,15.4-1.5c1-0.2,2-0.4,3-0.7
				c1.5-0.4,2.9,0.5,3.3,2c0.4,1.5-0.5,2.9-2,3.3c-1.1,0.3-2.1,0.5-3.2,0.7C245.2,283.6,239.7,284.1,234.2,284.1z M266.9,277.3
				c-1,0-2-0.6-2.5-1.6c-0.6-1.4,0-3,1.4-3.6c33.4-14.7,52.4-51.3,45.2-87.1c-4.6-22.9-19-42.4-39.6-53.5c-1.3-0.7-1.8-2.4-1.1-3.7
				c0.7-1.3,2.4-1.8,3.7-1.1c22,11.9,37.4,32.8,42.3,57.3c3.8,18.8,0.9,38.5-8,55.5c-8.8,16.7-23.2,30.1-40.4,37.6
				C267.7,277.2,267.3,277.3,266.9,277.3z M234.1,270.2c-13.6,0-27-4-38.6-11.7c-15.5-10.3-26.1-26.1-29.7-44.4s0-36.9,10.4-52.4
				c10.3-15.5,26.1-26.1,44.4-29.7c37.7-7.6,74.6,17,82.1,54.7c7.6,37.7-17,74.6-54.7,82.1C243.4,269.7,238.7,270.2,234.1,270.2z
				 M234.4,136c-4.2,0-8.5,0.4-12.8,1.3c-16.9,3.4-31.4,13.1-40.9,27.4c-9.5,14.3-12.9,31.5-9.5,48.3s13.1,31.4,27.4,40.9
				c10.7,7.1,23,10.8,35.6,10.8c4.2,0,8.5-0.4,12.8-1.3c34.8-7,57.4-40.9,50.5-75.7c-3.4-16.9-13.1-31.4-27.4-40.9
				C259.3,139.7,247,136,234.4,136z M159.6,171.6c-0.4,0-0.7-0.1-1.1-0.2c-1.4-0.6-2-2.2-1.4-3.6c10.8-25.6,33.5-44.1,60.7-49.6
				c5.6-1.1,11.4-1.7,17.1-1.6c1.5,0,2.7,1.2,2.7,2.7c0,1.5-1.2,2.7-2.7,2.7c0,0,0,0,0,0c-5.3,0-10.7,0.5-16,1.5
				c-25.4,5.1-46.7,22.4-56.8,46.4C161.7,171,160.6,171.6,159.6,171.6z M261.4,126.7c-0.3,0-0.6-0.1-0.9-0.2c-2.8-1-5.7-1.8-8.6-2.5
				c-1.5-0.3-2.4-1.8-2-3.3c0.3-1.5,1.8-2.4,3.3-2c3.1,0.7,6.2,1.6,9.2,2.7c1.4,0.5,2.2,2.1,1.7,3.5
				C263.6,126,262.5,126.7,261.4,126.7z"/>
		</g>
	</g>
	<g>
		<path class="st1" d="M792.5,721.7H640.1c-8.1,0-14.7,6.6-14.7,14.7v125.8c0,8.1,6.6,14.7,14.7,14.7h152.5
			c8.1,0,14.7-6.6,14.7-14.7V736.4C807.2,728.3,800.7,721.7,792.5,721.7z"/>
		<path class="st4" d="M784.3,730h-136c-7.2,0-13.1,5.9-13.1,13.1v112.3c0,7.2,5.9,13.1,13.1,13.1h136c7.2,0,13.1-5.9,13.1-13.1
			V743.2C797.4,735.9,791.6,730,784.3,730z M712.2,777.2c-12.5,0-22.6-10.1-22.6-22.6c0-12.5,10.1-22.6,22.6-22.6
			s22.6,10.1,22.6,22.6C734.8,767.1,724.7,777.2,712.2,777.2z"/>
		<path class="st2" d="M805.5,845.7c-1.7,0-3.1-1.4-3.1-3.1v-40.2c0-1.7,1.4-3.1,3.1-3.1s3.1,1.4,3.1,3.1v40.2
			C808.7,844.3,807.3,845.7,805.5,845.7z"/>
		<circle class="st1" cx="716" cy="758.7" r="33.4"/>
		<path class="st2" d="M805.5,795.2c-1.7,0-3.1-1.4-3.1-3.1V764c0-1.7,1.4-3.1,3.1-3.1s3.1,1.4,3.1,3.1v28.1
			C808.7,793.8,807.3,795.2,805.5,795.2z"/>
		<circle class="st5" cx="718.3" cy="760.5" r="21.7"/>
		<path class="st2" d="M805.5,759.4c-1.7,0-3.1-1.4-3.1-3.1v-16.8c0-7.9-6.4-14.3-14.3-14.3H674.5c-1.7,0-3.1-1.4-3.1-3.1
			c0-1.7,1.4-3.1,3.1-3.1h113.5c11.4,0,20.6,9.2,20.6,20.6v16.8C808.7,758,807.3,759.4,805.5,759.4z"/>
		<path class="st1" d="M715.8,762.8c2.5,0,4.9,0.4,6.9,1.2l-3.1-24.8c-0.1-1.2-1.8-2.1-3.8-2.1s-3.6,0.9-3.8,2.1l-3.1,24.8
			C711,763.2,713.3,762.8,715.8,762.8z"/>
		<path class="st2" d="M626.4,851.7c-1.7,0-3.1-1.4-3.1-3.1V739.5c0-11.4,9.2-20.6,20.6-20.6h16.6c1.7,0,3.1,1.4,3.1,3.1
			c0,1.7-1.4,3.1-3.1,3.1h-16.6c-7.9,0-14.3,6.4-14.3,14.3v109.1C629.5,850.3,628.1,851.7,626.4,851.7z"/>
		<path class="st2" d="M735.1,881.1h-91.3c-11.4,0-20.6-9.2-20.6-20.6c0-1.7,1.4-3.1,3.1-3.1c1.7,0,3.1,1.4,3.1,3.1
			c0,7.9,6.4,14.3,14.3,14.3h91.3c1.7,0,3.1,1.4,3.1,3.1S736.9,881.1,735.1,881.1z"/>
		<path class="st2" d="M788.1,881.1h-38.3c-1.7,0-3.1-1.4-3.1-3.1s1.4-3.1,3.1-3.1h38.3c7.9,0,14.3-6.4,14.3-14.3v-6.1
			c0-1.7,1.4-3.1,3.1-3.1s3.1,1.4,3.1,3.1v6.1C808.7,871.8,799.4,881.1,788.1,881.1z"/>
		<path class="st2" d="M716,788.2c-16.3,0-29.5-13.2-29.5-29.5c0-16.3,13.2-29.5,29.5-29.5c16.3,0,29.5,13.2,29.5,29.5
			C745.5,775,732.2,788.2,716,788.2z M716,734.4c-13.4,0-24.3,10.9-24.3,24.3S702.6,783,716,783c13.4,0,24.3-10.9,24.3-24.3
			S729.4,734.4,716,734.4z"/>
		<circle class="st1" cx="716" cy="768.9" r="10.7"/>
		<path class="st2" d="M716,777.3c-4.6,0-8.4-3.8-8.4-8.4s3.8-8.4,8.4-8.4s8.4,3.8,8.4,8.4S720.6,777.3,716,777.3z M716,764.1
			c-2.6,0-4.8,2.1-4.8,4.8c0,2.6,2.1,4.8,4.8,4.8s4.8-2.1,4.8-4.8C720.7,766.3,718.6,764.1,716,764.1z"/>
		<path class="st2" d="M720.9,765.7l-2.2-1.3c-1.7-1-3.8-1-5.5,0l-2.2,1.3l1.7-23.5c0.1-1.7,1.5-3,3.2-3c1.7,0,3.1,1.3,3.2,3
			L720.9,765.7z M716,761c0.7,0,1.3,0.1,2,0.3l-1.4-18.8c0-0.3-0.3-0.5-0.6-0.5c-0.3,0-0.6,0.2-0.6,0.5l-1.4,18.8
			C714.6,761.1,715.3,761,716,761z"/>
		<g>
			<g>
				<path class="st1" d="M686.4,792.4h-11.8c-1.7,0-3.1-1.4-3.1-3.1c0-1.7,1.4-3.1,3.1-3.1h11.8c1.7,0,3.1,1.4,3.1,3.1
					C689.5,791,688.1,792.4,686.4,792.4z"/>
				<path class="st1" d="M665.3,792.4h-15.8c-1.7,0-3.1-1.4-3.1-3.1c0-1.7,1.4-3.1,3.1-3.1h15.8c1.7,0,3.1,1.4,3.1,3.1
					C668.4,791,667,792.4,665.3,792.4z"/>
				<path class="st1" d="M686.4,809.9h-36.9c-1.7,0-3.1-1.4-3.1-3.1s1.4-3.1,3.1-3.1h36.9c1.7,0,3.1,1.4,3.1,3.1
					S688.1,809.9,686.4,809.9z"/>
				<path class="st1" d="M686.4,827.4h-36.9c-1.7,0-3.1-1.4-3.1-3.1s1.4-3.1,3.1-3.1h36.9c1.7,0,3.1,1.4,3.1,3.1
					S688.1,827.4,686.4,827.4z"/>
				<path class="st1" d="M686.4,844.9h-23.2c-1.7,0-3.1-1.4-3.1-3.1s1.4-3.1,3.1-3.1h23.2c1.7,0,3.1,1.4,3.1,3.1
					S688.1,844.9,686.4,844.9z"/>
				<path class="st1" d="M652.7,844.9h-3.3c-1.7,0-3.1-1.4-3.1-3.1s1.4-3.1,3.1-3.1h3.3c1.7,0,3.1,1.4,3.1,3.1
					S654.5,844.9,652.7,844.9z"/>
				<path class="st1" d="M686.4,862.4h-36.9c-1.7,0-3.1-1.4-3.1-3.1c0-1.7,1.4-3.1,3.1-3.1h36.9c1.7,0,3.1,1.4,3.1,3.1
					C689.5,861,688.1,862.4,686.4,862.4z"/>
			</g>
			<g>
				<path class="st1" d="M782.5,792.4h-36.9c-1.7,0-3.1-1.4-3.1-3.1c0-1.7,1.4-3.1,3.1-3.1h36.9c1.7,0,3.1,1.4,3.1,3.1
					C785.6,791,784.2,792.4,782.5,792.4z"/>
				<path class="st1" d="M782.5,809.9h-36.9c-1.7,0-3.1-1.4-3.1-3.1s1.4-3.1,3.1-3.1h36.9c1.7,0,3.1,1.4,3.1,3.1
					S784.2,809.9,782.5,809.9z"/>
				<path class="st1" d="M782.5,827.4h-15.8c-1.7,0-3.1-1.4-3.1-3.1s1.4-3.1,3.1-3.1h15.8c1.7,0,3.1,1.4,3.1,3.1
					S784.2,827.4,782.5,827.4z"/>
				<path class="st1" d="M755.4,827.4h-9.8c-1.7,0-3.1-1.4-3.1-3.1s1.4-3.1,3.1-3.1h9.8c1.7,0,3.1,1.4,3.1,3.1
					S757.1,827.4,755.4,827.4z"/>
				<path class="st1" d="M782.5,844.9h-36.9c-1.7,0-3.1-1.4-3.1-3.1s1.4-3.1,3.1-3.1h36.9c1.7,0,3.1,1.4,3.1,3.1
					S784.2,844.9,782.5,844.9z"/>
				<path class="st1" d="M782.5,862.4h-9.2c-1.7,0-3.1-1.4-3.1-3.1c0-1.7,1.4-3.1,3.1-3.1h9.2c1.7,0,3.1,1.4,3.1,3.1
					C785.6,861,784.2,862.4,782.5,862.4z"/>
				<path class="st1" d="M762.7,862.4h-17.1c-1.7,0-3.1-1.4-3.1-3.1c0-1.7,1.4-3.1,3.1-3.1h17.1c1.7,0,3.1,1.4,3.1,3.1
					C765.8,861,764.4,862.4,762.7,862.4z"/>
			</g>
		</g>
	</g>
	<g>
		<rect x="805.8" y="483.5" class="st1" width="12.6" height="50.6"/>
		<rect x="612.9" y="483.5" class="st1" width="12.6" height="50.6"/>
		<rect x="818.2" y="503.4" class="st1" width="12.6" height="13.7"/>
		<rect x="601.7" y="503.4" class="st1" width="12.6" height="13.7"/>
		<g>
			<path class="st2" d="M627.2,537.2h-11.4c-2.6,0-4.7-2.1-4.7-4.7v-4.7c0-1.6,1.3-2.8,2.8-2.8s2.8,1.3,2.8,2.8v3.7h4.8v-43.3h-4.8
				v32.9c0,1.6-1.3,2.8-2.8,2.8s-2.8-1.3-2.8-2.8v-33.9c0-2.6,2.1-4.7,4.7-4.7h11.4V537.2z"/>
			<path class="st2" d="M616.8,518.7h-13.2c-2.4,0-4.4-2-4.4-4.4v-8.9c0-2.4,2-4.4,4.4-4.4h13.2V518.7z M604.8,513.1h6.3v-6.3h-6.3
				V513.1z"/>
			<path class="st1" d="M791.6,568.5L791.6,568.5c9.1,0,16.4-5.8,16.4-12.9v-90.3c0-7.1-7.3-12.9-16.4-12.9l0,0
				c-9.1,0-16.4,5.8-16.4,12.9v90.3C775.2,562.7,782.6,568.5,791.6,568.5z"/>
			<path class="st1" d="M640.5,568.5L640.5,568.5c9.1,0,16.4-5.8,16.4-12.9v-90.3c0-7.1-7.3-12.9-16.4-12.9l0,0
				c-9.1,0-16.4,5.8-16.4,12.9v90.3C624.1,562.7,631.5,568.5,640.5,568.5z"/>
			<path class="st5" d="M789.1,562.6L789.1,562.6c6.7,0,12.2-5.4,12.2-12.2v-84.9c0-6.7-5.4-12.2-12.2-12.2l0,0
				c-6.7,0-12.2,5.4-12.2,12.2v84.9C776.9,557.2,782.4,562.6,789.1,562.6z"/>
			<path class="st5" d="M638.4,562.6L638.4,562.6c6.7,0,12.2-5.4,12.2-12.2v-84.9c0-6.7-5.4-12.2-12.2-12.2h0
				c-6.7,0-12.2,5.4-12.2,12.2v84.9C626.3,557.2,631.7,562.6,638.4,562.6z"/>
			<path class="st2" d="M791.4,571.2c-10.5,0-19-8.5-19-19v-84.6c0-10.5,8.5-19,19-19c10.5,0,19,8.5,19,19v31.5
				c0,1.6-1.3,2.8-2.8,2.8c-1.6,0-2.8-1.3-2.8-2.8v-31.5c0-7.3-6-13.3-13.3-13.3c-7.3,0-13.3,6-13.3,13.3v84.6
				c0,7.3,6,13.3,13.3,13.3c7.3,0,13.3-6,13.3-13.3v-41.8c0-1.6,1.3-2.8,2.8-2.8c1.6,0,2.8,1.3,2.8,2.8v41.8
				C810.3,562.6,801.8,571.2,791.4,571.2z"/>
			<rect x="656.7" y="500.8" class="st1" width="118.6" height="17.4"/>
			<rect x="656.7" y="506.7" class="st5" width="118.6" height="11.6"/>
			<path class="st2" d="M817.6,537.2h-12.9v-27c0-1.6,1.3-2.8,2.8-2.8c1.6,0,2.8,1.3,2.8,2.8v21.4h4.8v-2c0-1.6,1.3-2.8,2.8-2.8
				s2.8,1.3,2.8,2.8v4.5C820.8,535.8,819.3,537.2,817.6,537.2z"/>
			<path class="st2" d="M817.9,524c-1.6,0-2.8-1.3-2.8-2.8v-32.9h-4.8v8.6c0,1.6-1.3,2.8-2.8,2.8c-1.6,0-2.8-1.3-2.8-2.8v-14.2h12.9
				c1.8,0,3.2,1.4,3.2,3.2v35.4C820.8,522.7,819.5,524,817.9,524z"/>
			<path class="st2" d="M829.1,518.7h-13.9v-17.6h13.9c2,0,3.7,1.6,3.7,3.7V515C832.7,517.1,831.1,518.7,829.1,518.7z M820.8,513.1
				h6.3v-6.3h-6.3V513.1z"/>
			<path class="st2" d="M778.1,521.8h-23.3c-1.6,0-2.8-1.3-2.8-2.8s1.3-2.8,2.8-2.8h17.7v-12.5H659.5v12.5h70.3
				c1.6,0,2.8,1.3,2.8,2.8s-1.3,2.8-2.8,2.8h-75.9V498h124.2V521.8z"/>
			<path class="st2" d="M745.5,521.8H739c-1.6,0-2.8-1.3-2.8-2.8s1.3-2.8,2.8-2.8h6.5c1.6,0,2.8,1.3,2.8,2.8
				S747.1,521.8,745.5,521.8z"/>
			<path class="st2" d="M640.5,571.2c-10.5,0-19-8.5-19-19v-76.1c0-1.6,1.3-2.8,2.8-2.8s2.8,1.3,2.8,2.8v76.1
				c0,7.3,6,13.3,13.3,13.3s13.3-6,13.3-13.3v-61.8c0-1.6,1.3-2.8,2.8-2.8c1.6,0,2.8,1.3,2.8,2.8v61.8
				C659.5,562.6,651,571.2,640.5,571.2z"/>
			<path class="st2" d="M656.7,483.5c-1.6,0-2.8-1.3-2.8-2.8v-13.1c0-7.3-6-13.3-13.3-13.3s-13.3,6-13.3,13.3c0,1.6-1.3,2.8-2.8,2.8
				s-2.8-1.3-2.8-2.8c0-10.5,8.5-19,19-19s19,8.5,19,19v13.1C659.5,482.2,658.2,483.5,656.7,483.5z"/>
		</g>
	</g>
	<g>
		<path class="st6" d="M248.6,712.2L248.6,712.2v49c0,2.6-2.1,4.8-4.8,4.8h0c-2.6,0-4.8-2.1-4.8-4.8v-38.4v-2.5v-4.5v-3.6h-10.9v49
			c0,2.6-2.1,4.8-4.8,4.8l0,0c-2.6,0-4.8-2.1-4.8-4.8v-49l0,0c-8,0-14.5,6.5-14.5,14.5v35.6c0,11.7,7.9,21.6,18.6,24.7v89.6
			c0,6.1,5,11.3,11.1,11.1c5.9-0.1,10.7-4.9,10.7-10.9V787c10.7-3.1,18.6-12.9,18.6-24.7v-35.6C263.1,718.7,256.6,712.2,248.6,712.2
			z"/>
		<g>
			<path class="st1" d="M217.2,784.8V783c-1.9-0.5-3.7-1.3-5.4-2.3C213.4,782.3,215.3,783.7,217.2,784.8z"/>
			<path class="st1" d="M254.3,713.4c2.1,2.5,3.4,5.8,3.4,9.3v35.6c0,11.7-7.9,21.6-18.6,24.7v89.8c0,5.9-4.8,10.8-10.7,10.9
				c-1.2,0-2.4-0.2-3.6-0.5c2,2.8,5.3,4.7,9,4.6c5.9-0.1,10.7-4.9,10.7-10.9V787c10.7-3.1,18.6-12.9,18.6-24.7v-35.6
				C263.1,720.7,259.5,715.6,254.3,713.4z"/>
		</g>
		<path class="st2" d="M243.8,768.7c-4.1,0-7.5-3.4-7.5-7.5v-4.8c0-1.5,1.2-2.7,2.7-2.7s2.7,1.2,2.7,2.7v4.8c0,1.1,0.9,2,2,2
			c1.1,0,2-0.9,2-2v-51.7h2.7c9.5,0,17.3,7.7,17.3,17.3v21.5c0,1.5-1.2,2.7-2.7,2.7s-2.7-1.2-2.7-2.7v-21.5c0-5.6-3.9-10.3-9.1-11.5
			v45.9C251.3,765.3,247.9,768.7,243.8,768.7z"/>
		<path class="st2" d="M244.5,859c-1.5,0-2.7-1.2-2.7-2.7V785l2-0.6c9.8-2.8,16.6-11.9,16.6-22V756c0-1.5,1.2-2.7,2.7-2.7
			s2.7,1.2,2.7,2.7v6.4c0,11.9-7.6,22.6-18.6,26.6v67.3C247.2,857.8,246,859,244.5,859z"/>
		<path class="st2" d="M233.6,890.5c-3.5,0-6.9-1.4-9.4-3.9c-2.7-2.6-4.2-6.3-4.2-10V789c-11.1-4.1-18.6-14.7-18.6-26.6v-26.6
			c0-1.5,1.2-2.7,2.7-2.7c1.5,0,2.7,1.2,2.7,2.7v26.6c0,10.2,6.8,19.3,16.6,22l2,0.6v91.6c0,2.3,0.9,4.5,2.6,6.1
			c1.6,1.5,3.6,2.4,5.8,2.3c4.4-0.1,8-3.7,8-8.2v-11.8c0-1.5,1.2-2.7,2.7-2.7c1.5,0,2.7,1.2,2.7,2.7v11.8c0,7.4-6,13.5-13.4,13.6
			C233.8,890.5,233.7,890.5,233.6,890.5z"/>
		<path class="st2" d="M223.4,768.7c-4.1,0-7.5-3.4-7.5-7.5v-45.9c-5.2,1.2-9.1,5.9-9.1,11.5c0,1.5-1.2,2.7-2.7,2.7
			c-1.5,0-2.7-1.2-2.7-2.7c0-9.5,7.7-17.3,17.3-17.3h2.7v51.7c0,1.1,0.9,2,2,2s2-0.9,2-2v-51.7h16.3v38.8c0,1.5-1.2,2.7-2.7,2.7
			s-2.7-1.2-2.7-2.7v-33.3h-5.4v46.2C230.9,765.3,227.5,768.7,223.4,768.7z"/>
		<path class="st6" d="M288.5,712.8L288.5,712.8c17.3,0,31.3,14,31.3,31.3v83.8c0,0.4-0.3,0.7-0.7,0.7h-30.4c-0.1,0-0.2-0.1-0.2-0.2
			V712.8z"/>
		<path class="st1" d="M311.9,822.7c0.4,0,0.7-0.3,0.7-0.7v-83.8c0-8.1-3.1-15.5-8.2-21.1c9.2,5.5,15.4,15.5,15.4,27v83.8
			c0,0.4-0.3,0.7-0.7,0.7h-30.4c-0.1,0-0.2-0.1-0.2-0.2v-5.7H311.9z"/>
		<path class="st2" d="M319.8,815.7c-1.5,0-2.7-1.2-2.7-2.7v-64.3c0-1.5,1.2-2.7,2.7-2.7s2.7,1.2,2.7,2.7V813
			C322.6,814.5,321.4,815.7,319.8,815.7z"/>
		<path class="st2" d="M288.5,754.6c-1.5,0-2.7-1.2-2.7-2.7v-41.8h2.7c17.4,0,31.9,13,33.8,30.3c0.2,1.5-0.9,2.8-2.4,3
			c-1.5,0.2-2.8-0.9-3-2.4c-1.5-13.6-12.3-24-25.7-25.3v36.2C291.2,753.4,290,754.6,288.5,754.6z"/>
		<path class="st2" d="M319.2,831.3h-30.4c-1.6,0-3-1.3-3-3v-65.3c0-1.5,1.2-2.7,2.7-2.7s2.7,1.2,2.7,2.7v62.8h25.9v-4.5
			c0-1.5,1.2-2.7,2.7-2.7s2.7,1.2,2.7,2.7v6.6C322.6,829.8,321,831.3,319.2,831.3z"/>
		<path class="st7" d="M309,828.6v53.8c0,0.9-0.7,1.6-1.6,1.6h-12.3c-0.9,0-1.6-0.7-1.6-1.6v-53.8H309z"/>
		<path class="st1" d="M302.4,828.6v48.5c0,0.9-0.7,1.6-1.6,1.6h-7.3v3.7c0,0.9,0.7,1.6,1.6,1.6h12.3c0.9,0,1.6-0.7,1.6-1.6v-53.8
			H302.4z"/>
		<path class="st2" d="M307.4,886.7h-12.3c-2.4,0-4.3-1.9-4.3-4.3v-56.5h20.9v36c0,1.5-1.2,2.7-2.7,2.7s-2.7-1.2-2.7-2.7v-30.6h-10
			v49.9h10v-12c0-1.5,1.2-2.7,2.7-2.7s2.7,1.2,2.7,2.7v13.1C311.7,884.8,309.7,886.7,307.4,886.7z"/>
	</g>
	<g>
		<g>
			<path class="st8" d="M1106.1,622.1L1106.1,622.1c-7.2,0-13-5.8-13-13v-77c0-7.2,5.8-13,13-13l0,0c7.2,0,13,5.8,13,13v77
				C1119.1,616.3,1113.3,622.1,1106.1,622.1z"/>
			<path class="st1" d="M1108.8,519.5c1.7,2.2,2.7,4.9,2.7,7.9v77c0,7.2-5.8,13-13,13c-0.9,0-1.8-0.1-2.7-0.3
				c2.4,3.1,6.1,5.1,10.3,5.1c7.2,0,13-5.8,13-13v-77C1119.1,526,1114.7,520.8,1108.8,519.5z"/>
			<path class="st2" d="M1119.1,607c-1.5,0-2.7-1.2-2.7-2.7v-53c0-1.5,1.2-2.7,2.7-2.7c1.5,0,2.7,1.2,2.7,2.7v53
				C1121.8,605.8,1120.6,607,1119.1,607z"/>
			<path class="st2" d="M1093.1,571.3c-1.5,0-2.7-1.2-2.7-2.7v-36.3c0-8.7,7-15.7,15.7-15.7c8.7,0,15.7,7,15.7,15.7v11.4
				c0,1.5-1.2,2.7-2.7,2.7c-1.5,0-2.7-1.2-2.7-2.7v-11.4c0-5.7-4.6-10.3-10.3-10.3c-5.7,0-10.3,4.6-10.3,10.3v36.3
				C1095.8,570,1094.6,571.3,1093.1,571.3z"/>
			<path class="st2" d="M1106.1,624.9c-8.7,0-15.7-7-15.7-15.7v-30c0-1.5,1.2-2.7,2.7-2.7s2.7,1.2,2.7,2.7v30
				c0,5.7,4.6,10.3,10.3,10.3c5.7,0,10.3-4.6,10.3-10.3v-4.8c0-1.5,1.2-2.7,2.7-2.7c1.5,0,2.7,1.2,2.7,2.7v4.8
				C1121.8,617.8,1114.8,624.9,1106.1,624.9z"/>
			<path class="st2" d="M1116.4,523.8h-4.4l-0.6-0.4c-1.6-0.9-3.4-1.4-5.2-1.4s-3.7,0.5-5.2,1.4l-0.6,0.4h-4.4v-18.6h20.6V523.8z
				 M1101.3,510.6v6.7c3.1-1,6.6-1,9.7,0v-6.7H1101.3z"/>
			<path class="st2" d="M1108.4,543.7h-15.3c-1.5,0-2.7-1.2-2.7-2.7c0-1.5,1.2-2.7,2.7-2.7h15.3c1.5,0,2.7,1.2,2.7,2.7
				C1111.1,542.5,1109.9,543.7,1108.4,543.7z"/>
			<path class="st2" d="M1119.1,607.1h-18.3c-1.5,0-2.7-1.2-2.7-2.7c0-1.5,1.2-2.7,2.7-2.7h18.3c1.5,0,2.7,1.2,2.7,2.7
				C1121.8,605.9,1120.6,607.1,1119.1,607.1z"/>
		</g>
		<g>
			<path class="st8" d="M1203.5,622.1L1203.5,622.1c-7.2,0-13-5.8-13-13v-77c0-7.2,5.8-13,13-13h0c7.2,0,13,5.8,13,13v77
				C1216.5,616.3,1210.6,622.1,1203.5,622.1z"/>
			<path class="st1" d="M1206.2,519.5c1.7,2.2,2.7,4.9,2.7,7.9v77c0,7.2-5.8,13-13,13c-0.9,0-1.8-0.1-2.7-0.3
				c2.4,3.1,6.1,5.1,10.3,5.1c7.2,0,13-5.8,13-13v-77C1216.5,526,1212.1,520.8,1206.2,519.5z"/>
			<path class="st2" d="M1216.5,607c-1.5,0-2.7-1.2-2.7-2.7v-7.6c0-1.5,1.2-2.7,2.7-2.7c1.5,0,2.7,1.2,2.7,2.7v7.6
				C1219.2,605.8,1218,607,1216.5,607z"/>
			<path class="st2" d="M1216.5,591.7c-1.5,0-2.7-1.2-2.7-2.7v-56.8c0-5.7-4.6-10.3-10.3-10.3s-10.3,4.6-10.3,10.3v19.1
				c0,1.5-1.2,2.7-2.7,2.7s-2.7-1.2-2.7-2.7v-19.1c0-8.7,7-15.7,15.7-15.7s15.7,7,15.7,15.7V589
				C1219.2,590.5,1218,591.7,1216.5,591.7z"/>
			<path class="st2" d="M1203.5,624.9c-8.7,0-15.7-7-15.7-15.7V562c0-1.5,1.2-2.7,2.7-2.7s2.7,1.2,2.7,2.7v47.2
				c0,5.7,4.6,10.3,10.3,10.3s10.3-4.6,10.3-10.3v-4.8c0-1.5,1.2-2.7,2.7-2.7c1.5,0,2.7,1.2,2.7,2.7v4.8
				C1219.2,617.8,1212.1,624.9,1203.5,624.9z"/>
			<path class="st2" d="M1213.8,523.8h-4.4l-0.6-0.4c-1.6-0.9-3.4-1.4-5.2-1.4c-1.8,0-3.7,0.5-5.2,1.4l-0.6,0.4h-4.4v-18.6h20.6
				V523.8z M1203.5,516.5c1.7,0,3.3,0.3,4.8,0.8v-6.7h-9.7v6.7C1200.2,516.8,1201.8,516.5,1203.5,516.5z"/>
			<path class="st2" d="M1205.7,543.7h-15.3c-1.5,0-2.7-1.2-2.7-2.7c0-1.5,1.2-2.7,2.7-2.7h15.3c1.5,0,2.7,1.2,2.7,2.7
				C1208.5,542.5,1207.2,543.7,1205.7,543.7z"/>
			<path class="st2" d="M1216.5,607.1h-18.3c-1.5,0-2.7-1.2-2.7-2.7c0-1.5,1.2-2.7,2.7-2.7h18.3c1.5,0,2.7,1.2,2.7,2.7
				C1219.2,605.9,1218,607.1,1216.5,607.1z"/>
		</g>
		<path class="st2" d="M1203.5,510.6c-1.5,0-2.7-1.2-2.7-2.7v-68.2c0-8.2,6.7-14.8,14.8-14.8c8.2,0,14.8,6.7,14.8,14.8v58.5
			c0,3.8,3.1,6.8,6.8,6.8s6.8-3.1,6.8-6.8v-73.3c0-13.5-11-24.5-24.5-24.5h-102.8c-4.4,0-7.9,3.6-7.9,7.9v0.2c0,4.4,3.6,7.9,7.9,7.9
			h56.5c7.4,0,13.4,6,13.4,13.4c0,7.4-6,13.4-13.4,13.4h-56.5c-4.4,0-7.9,3.6-7.9,7.9v0.2c0,4.4,3.6,7.9,7.9,7.9h56.5
			c7.4,0,13.4,6,13.4,13.4c0,7.4-6,13.4-13.4,13.4h-43.6c-11.5,0-20.8,9.4-20.8,20.8v0.7c0,1.5-1.2,2.7-2.7,2.7s-2.7-1.2-2.7-2.7
			V507c0-14.5,11.8-26.3,26.3-26.3h43.6c4.4,0,7.9-3.6,7.9-7.9c0-4.4-3.6-7.9-7.9-7.9h-56.5c-7.4,0-13.4-6-13.4-13.4v-0.2
			c0-7.4,6-13.4,13.4-13.4h56.5c4.4,0,7.9-3.6,7.9-7.9c0-4.4-3.6-7.9-7.9-7.9h-56.5c-7.4,0-13.4-6-13.4-13.4v-0.2
			c0-7.4,6-13.4,13.4-13.4h102.8c16.5,0,29.9,13.4,29.9,29.9v73.3c0,6.8-5.5,12.3-12.3,12.3s-12.3-5.5-12.3-12.3v-58.5
			c0-5.2-4.2-9.4-9.4-9.4c-5.2,0-9.4,4.2-9.4,9.4v68.2C1206.2,509.4,1205,510.6,1203.5,510.6z"/>
	</g>
	<g>
		<path class="st1" d="M202.4,534.2c0-35.6,28.9-64.5,64.5-64.5c16.6,0,31.7,6.2,43.1,16.5c-11.8-13.2-29-21.5-48.1-21.5
			c-35.6,0-64.5,28.9-64.5,64.5c0,19.1,8.3,36.2,21.5,48.1C208.6,565.9,202.4,550.8,202.4,534.2z"/>
		<g>
			<path class="st9" d="M321,503.1c0.2,0.5,0.4,1,0.7,1.5C321.4,504.1,321.2,503.6,321,503.1z"/>
			<path class="st9" d="M317.9,497c0.3,0.6,0.6,1.1,1,1.7C318.6,498.2,318.2,497.6,317.9,497z"/>
			<path class="st9" d="M319.1,499.2c0.2,0.5,0.5,0.9,0.7,1.4C319.6,500.1,319.3,499.7,319.1,499.2z"/>
			<path class="st9" d="M321.9,505.1c0.2,0.6,0.4,1.1,0.7,1.7C322.3,506.3,322.1,505.7,321.9,505.1z"/>
			<path class="st9" d="M316.9,495.3c0.3,0.5,0.6,1,0.9,1.5C317.5,496.4,317.2,495.8,316.9,495.3z"/>
			<path class="st9" d="M310.4,486.6c0.4,0.4,0.8,0.9,1.1,1.3C311.2,487.5,310.8,487,310.4,486.6z"/>
			<path class="st9" d="M311.7,488.1c0.4,0.5,0.8,1,1.2,1.5C312.5,489.1,312.1,488.6,311.7,488.1z"/>
			<path class="st9" d="M314.4,491.6c0.4,0.5,0.8,1.1,1.1,1.6C315.2,492.7,314.8,492.2,314.4,491.6z"/>
			<path class="st9" d="M313.2,490c0.3,0.4,0.6,0.8,1,1.3C313.8,490.8,313.5,490.4,313.2,490z"/>
			<path class="st9" d="M315.7,493.5c0.3,0.5,0.6,1,0.9,1.4C316.3,494.4,316,493.9,315.7,493.5z"/>
			<path class="st9" d="M325.5,517.8c0.1,0.7,0.2,1.3,0.3,2C325.7,519.1,325.6,518.5,325.5,517.8z"/>
			<path class="st9" d="M326.2,522.4c0.1,0.7,0.1,1.4,0.2,2C326.3,523.8,326.2,523.1,326.2,522.4z"/>
			<path class="st9" d="M325.9,520.3c0.1,0.5,0.1,1.1,0.2,1.6C326,521.4,326,520.9,325.9,520.3z"/>
			<path class="st9" d="M322.6,507c0.2,0.6,0.4,1.2,0.7,1.9C323,508.2,322.8,507.6,322.6,507z"/>
			<path class="st9" d="M326.5,527.2c0,0.7,0,1.4,0,2.1C326.5,528.5,326.5,527.8,326.5,527.2z"/>
			<path class="st9" d="M308.7,484.8c-0.5-0.5-0.9-0.9-1.4-1.4C307.8,483.8,308.3,484.3,308.7,484.8z"/>
			<path class="st9" d="M326.4,524.9c0,0.6,0.1,1.1,0.1,1.7C326.4,526,326.4,525.5,326.4,524.9z"/>
			<path class="st9" d="M323.4,509.4c0.2,0.5,0.3,1,0.5,1.5C323.7,510.4,323.6,509.9,323.4,509.4z"/>
			<path class="st9" d="M324,511.3c0.2,0.6,0.4,1.3,0.5,1.9C324.4,512.6,324.2,512,324,511.3z"/>
			<path class="st9" d="M324.6,513.6c0.1,0.5,0.3,1.1,0.4,1.6C324.9,514.7,324.7,514.2,324.6,513.6z"/>
			<path class="st9" d="M325.1,515.8c0.1,0.6,0.3,1.3,0.4,1.9C325.4,517.1,325.2,516.4,325.1,515.8z"/>
			<path class="st9" d="M308.9,484.9c0.4,0.4,0.8,0.9,1.2,1.3C309.7,485.8,309.3,485.3,308.9,484.9z"/>
			<path class="st9" d="M320,501c0.3,0.6,0.6,1.2,0.8,1.8C320.6,502.2,320.3,501.6,320,501z"/>
			<path class="st9" d="M247.5,592.1c0.7,0.2,1.4,0.3,2.1,0.4C248.8,592.5,248.1,592.3,247.5,592.1z"/>
			<path class="st9" d="M232.1,586.5c1.3,0.7,2.6,1.3,3.9,1.9C234.7,587.8,233.4,587.2,232.1,586.5z"/>
			<path class="st9" d="M236.4,588.5c1.3,0.6,2.6,1.1,4,1.6C239,589.6,237.7,589.1,236.4,588.5z"/>
			<path class="st9" d="M242.8,590.9c0.7,0.2,1.4,0.4,2,0.6C244.2,591.3,243.5,591.1,242.8,590.9z"/>
			<path class="st9" d="M245.3,591.6c0.7,0.2,1.4,0.4,2.1,0.5C246.7,592,246,591.8,245.3,591.6z"/>
			<path class="st9" d="M240.8,590.2c0.7,0.2,1.4,0.5,2.1,0.7C242.1,590.7,241.5,590.5,240.8,590.2z"/>
			<path class="st9" d="M228.1,584.2c1.2,0.8,2.5,1.5,3.7,2.1C230.5,585.6,229.3,584.9,228.1,584.2z"/>
			<path class="st9" d="M313.7,567.9c8.1-10.8,12.8-24.1,12.8-38.6l0,0C326.5,543.7,321.7,557.1,313.7,567.9z"/>
			<path class="st9" d="M259.2,593.7c-0.7,0-1.5-0.1-2.2-0.1C257.7,593.7,258.5,593.7,259.2,593.7z"/>
			<path class="st9" d="M262,593.8c-0.7,0-1.5,0-2.2,0C260.5,593.8,261.2,593.8,262,593.8c20.1,0,38-9.1,49.8-23.5
				C299.9,584.6,282,593.8,262,593.8z"/>
			<path class="st9" d="M226,582.8c0.6,0.4,1.2,0.8,1.8,1.2C227.2,583.6,226.6,583.2,226,582.8z"/>
			<path class="st9" d="M252.2,593.1c0.7,0.1,1.4,0.2,2.1,0.3C253.6,593.2,252.9,593.2,252.2,593.1z"/>
			<path class="st9" d="M300.7,477.6c0.5,0.4,1,0.8,1.5,1.1C301.7,478.4,301.2,478,300.7,477.6z"/>
			<path class="st9" d="M299,476.4c0.5,0.4,1.1,0.8,1.6,1.2C300.1,477.2,299.6,476.8,299,476.4z"/>
			<path class="st9" d="M302.6,479.1c0.4,0.4,0.9,0.7,1.3,1.1C303.5,479.8,303,479.4,302.6,479.1z"/>
			<path class="st9" d="M305.9,481.9c0.4,0.4,0.8,0.7,1.2,1.1C306.7,482.7,306.3,482.3,305.9,481.9z"/>
			<path class="st9" d="M250,592.7c0.7,0.1,1.4,0.3,2.1,0.4C251.4,592.9,250.7,592.8,250,592.7z"/>
			<path class="st9" d="M304.1,480.3c0.5,0.4,1,0.9,1.5,1.3C305.1,481.2,304.6,480.8,304.1,480.3z"/>
			<path class="st1" d="M262.4,592.9c35.6,0,64.5-28.9,64.5-64.5c0-22.3-11.3-42-28.6-53.6c0.6,0.3,1.2,0.6,1.7,0.9
				c-9.2-5.1-19.9-8-31.2-8c-35.6,0-64.5,28.9-64.5,64.5c0,22.3,11.3,42,28.6,53.6C241.8,590.4,251.8,592.9,262.4,592.9z"/>
			<path class="st9" d="M255.4,589.9c35.6,0,64.5-28.9,64.5-64.5c0-22.3-11.3-42-28.6-53.6c0.6,0.3,1.2,0.6,1.7,0.9
				c-9.2-5.1-19.9-8-31.2-8c-35.6,0-64.5,28.9-64.5,64.5c0,22.3,11.3,42,28.6,53.6C234.8,587.4,244.8,589.9,255.4,589.9z"/>
			<path class="st9" d="M254.8,593.4c0.7,0.1,1.4,0.2,2.2,0.2C256.3,593.5,255.6,593.5,254.8,593.4z"/>
			<path class="st9" d="M295.3,473.9c0.6,0.3,1.1,0.7,1.7,1.1C296.4,474.6,295.9,474.3,295.3,473.9z"/>
			<path class="st9" d="M293.6,472.9c0.5,0.3,1,0.6,1.5,0.9C294.5,473.5,294,473.2,293.6,472.9z"/>
			<path class="st9" d="M297.3,475.2c0.5,0.3,0.9,0.6,1.4,0.9C298.2,475.8,297.8,475.5,297.3,475.2z"/>
		</g>
		<path class="st2" d="M322.2,555.5c-0.4,0-0.7-0.1-1.1-0.2c-1.6-0.6-2.3-2.4-1.7-3.9c2.7-7,4.1-14.5,4.1-22.1
			c0-1.7-0.1-3.4-0.2-5.1c-0.2-2.5-0.6-5.1-1.1-7.6c-0.3-1.6,0.7-3.2,2.3-3.6c1.6-0.3,3.2,0.7,3.6,2.3c0.6,2.7,1,5.5,1.2,8.3
			c0.2,1.9,0.2,3.8,0.2,5.6c0,8.4-1.5,16.5-4.5,24.3C324.6,554.7,323.4,555.5,322.2,555.5z"/>
		<path class="st2" d="M322.6,510c-1.2,0-2.4-0.8-2.8-2c-8.9-24.1-32.1-40.3-57.8-40.3c-17,0-33.3,7.1-44.9,19.5
			c-1.1,1.2-3.1,1.3-4.3,0.1c-1.2-1.1-1.3-3.1-0.1-4.3c12.7-13.6,30.7-21.4,49.4-21.4c14.1,0,27.6,4.3,39.1,12.4
			c11.2,8,19.6,19,24.4,31.8c0.6,1.6-0.2,3.3-1.8,3.9C323.3,509.9,322.9,510,322.6,510z"/>
		<path class="st2" d="M262,596.8c-37.3,0-67.6-30.3-67.6-67.6c0-12.3,3.3-24.4,9.7-34.9c0.9-1.4,2.7-1.9,4.2-1
			c1.4,0.9,1.9,2.7,1,4.2c-5.8,9.5-8.8,20.5-8.8,31.7c0,33.9,27.6,61.5,61.5,61.5c17.4,0,34.1-7.5,45.8-20.4c1.1-1.2,3-1.3,4.3-0.2
			c1.2,1.1,1.3,3,0.2,4.3C299.5,588.6,281.1,596.8,262,596.8z"/>
		<path class="st2" d="M315.5,568.4c-0.6,0-1.2-0.2-1.7-0.5c-1.4-0.9-1.7-2.8-0.8-4.2c1.1-1.7,2.2-3.5,3.2-5.3
			c0.8-1.5,2.6-2,4.1-1.2c1.5,0.8,2,2.6,1.2,4.1c-1.1,2-2.2,3.9-3.5,5.8C317.4,567.9,316.5,568.4,315.5,568.4z"/>
		<circle class="st10" cx="262" cy="529.2" r="44.1"/>
		<path class="st1" d="M290.5,496.7c6.3,7.6,10,17.4,10,28c0,24.3-19.7,44.1-44.1,44.1c-10.6,0-20.4-3.8-28-10
			c8.1,9.8,20.3,16.1,34,16.1c24.3,0,44.1-19.7,44.1-44.1C306.5,517,300.3,504.8,290.5,496.7z"/>
		<path class="st2" d="M304.5,543.9c-0.3,0-0.5,0-0.8-0.1c-1.6-0.4-2.6-2.1-2.1-3.7c1-3.5,1.5-7.2,1.5-10.9
			c0-22.6-18.4-41.1-41.1-41.1c-2.9,0-5.8,0.3-8.6,0.9c-1.6,0.3-3.2-0.7-3.6-2.3c-0.3-1.6,0.7-3.2,2.3-3.6c3.2-0.7,6.5-1,9.9-1
			c26,0,47.1,21.1,47.1,47.1c0,4.2-0.6,8.4-1.7,12.5C307,543.1,305.8,543.9,304.5,543.9z"/>
		<path class="st2" d="M262,576.3c-26,0-47.1-21.1-47.1-47.1c0-18.2,10.6-34.9,27.1-42.6c1.5-0.7,3.3-0.1,4,1.5
			c0.7,1.5,0.1,3.3-1.5,4c-14.3,6.7-23.6,21.3-23.6,37.2c0,22.6,18.4,41.1,41.1,41.1c8.6,0,16.9-2.6,23.9-7.6c1.4-1,3.2-0.7,4.2,0.7
			c1,1.4,0.7,3.2-0.7,4.2C281.3,573.3,271.9,576.3,262,576.3z"/>
		<path class="st2" d="M294.6,561.8c-0.7,0-1.5-0.3-2-0.8c-1.2-1.1-1.3-3-0.2-4.3c2-2.2,3.8-4.6,5.2-7.2c0.8-1.5,2.7-2,4.1-1.1
			c1.5,0.8,2,2.7,1.1,4.1c-1.7,3-3.7,5.7-6,8.3C296.3,561.5,295.5,561.8,294.6,561.8z"/>
		<path class="st10" d="M221.3,479.1c3.9-3.2,8.2-5.9,12.7-8.1l-2-14.1c-1.4-9.7,6.2-18.3,15.9-18.3h28.2c9.8,0,17.4,8.8,15.9,18.5
			l-2.1,13.9c4.6,2.2,8.8,4.9,12.7,8.1l3.1-22.9c2.2-16-10.2-30.2-26.3-30.2h-34.7c-16,0-28.4,14.1-26.4,30L221.3,479.1z"/>
		<path class="st2" d="M304.9,484.9l-4.2-3.4c-3.7-3-7.8-5.6-12.1-7.7l-2-1l2.5-16.1c0.6-3.8-0.5-7.6-3-10.5
			c-2.5-2.9-6.1-4.5-9.9-4.5H248c-3.8,0-7.4,1.6-9.9,4.5c-2.5,2.9-3.6,6.6-3.1,10.4l2.3,16.3l-2,1c-4.3,2.1-8.4,4.7-12.1,7.7
			l-4.2,3.4l-3.7-28.5c-1.1-8.4,1.5-17,7.1-23.3c5.6-6.4,13.7-10.1,22.2-10.1h22.4c1.7,0,3,1.4,3,3c0,1.7-1.4,3-3,3h-22.4
			c-6.8,0-13.2,2.9-17.7,8c-4.5,5.1-6.5,11.9-5.7,18.6l2.3,17.9c2.3-1.6,4.7-3,7.1-4.3l-1.7-11.9c-0.8-5.5,0.9-11,4.5-15.2
			c3.6-4.2,8.9-6.6,14.4-6.6h28.2c5.6,0,10.9,2.4,14.5,6.7c3.6,4.2,5.2,9.8,4.4,15.3l-1.8,11.7c2.4,1.3,4.8,2.7,7.1,4.3l2.4-17.8
			c1.3-9.7-3.6-19.4-12.3-24c-1.5-0.8-2-2.6-1.2-4.1c0.8-1.5,2.6-2,4.1-1.2c10.9,5.8,17.1,17.9,15.4,30.2L304.9,484.9z"/>
		<path class="st2" d="M281.5,429.1c-0.1,0-0.2,0-0.2,0c-0.6,0-1.2-0.1-1.8-0.1h-4c-1.7,0-3-1.4-3-3c0-1.7,1.4-3,3-3h4
			c0.8,0,1.5,0,2.3,0.1c1.7,0.1,2.9,1.6,2.8,3.2C284.4,427.9,283,429.1,281.5,429.1z"/>
	</g>
	<g>
		<rect x="1155" y="703.5" class="st1" width="28.9" height="20.7"/>
		<rect x="1155" y="703.5" class="st11" width="7.4" height="20.7"/>
		<path class="st11" d="M1207.2,773c0.4,0,0.8-0.4,0.8-0.8v-15c0-12.3-9.9-22.2-22.2-22.2h-31.6c-12.3,0-22.2,9.9-22.2,22.2v15
			c0,0.4,0.4,0.8,0.8,0.8h3.6v47.4h-3.5c-0.5,0-0.9,0.4-0.9,0.9v73.4c0,1,0.8,1.8,1.8,1.8h72.5c1,0,1.8-0.8,1.8-1.8v-73.4
			c0-0.5-0.4-0.9-0.9-0.9h-3.5V773H1207.2z"/>
		<path class="st1" d="M1207.2,773c0.4,0,0.8-0.4,0.8-0.8v-15c0-6.8-11.1-21.3-18.5-22.2c14.8,16.1,9.7,38,9.7,38h-5.2v47.7l6.7-0.2
			v71.1h-10h-27.7h-31v3c0,1,0.8,1.8,1.8,1.8h72.5c1,0,1.8-0.8,1.8-1.8v-73.4c0-0.5-0.4-0.9-0.9-0.9h-3.5V773H1207.2z"/>
		<path class="st2" d="M1208,883.9c-1.4,0-2.5-1.1-2.5-2.5V846c0-1.4,1.1-2.5,2.5-2.5c1.4,0,2.5,1.1,2.5,2.5v35.5
			C1210.5,882.8,1209.3,883.9,1208,883.9z"/>
		<path class="st2" d="M1206.2,898.9h-72.5c-2.4,0-4.3-1.9-4.3-4.3v-42.8c0-1.4,1.1-2.5,2.5-2.5c1.4,0,2.5,1.1,2.5,2.5v42.1h71v-4.3
			c0-1.4,1.1-2.5,2.5-2.5c1.4,0,2.5,1.1,2.5,2.5v5C1210.5,897,1208.5,898.9,1206.2,898.9z"/>
		<path class="st2" d="M1131.9,843.7c-1.4,0-2.5-1.1-2.5-2.5v-20c0-1.9,1.5-3.4,3.4-3.4h1v-42.4h-1.1c-1.8,0-3.3-1.5-3.3-3.3v-15
			c0-4.1,1-8.1,2.9-11.7c0.7-1.2,2.2-1.7,3.4-1c1.2,0.7,1.7,2.2,1,3.4c-1.5,2.8-2.3,6.1-2.3,9.3v13.3h4.4v52.4h-4.4v18.3
			C1134.4,842.6,1133.3,843.7,1131.9,843.7z"/>
		<path class="st2" d="M1208,839.7c-1.4,0-2.5-1.1-2.5-2.5v-14.3h-4.4v-52.4h4.4v-13.3c0-10.9-8.8-19.7-19.7-19.7h-31.6
			c-4.3,0-8.3,1.3-11.8,3.9c-1.1,0.8-2.7,0.6-3.5-0.5c-0.8-1.1-0.6-2.7,0.5-3.5c4.3-3.2,9.4-4.9,14.7-4.9h31.6
			c13.6,0,24.7,11.1,24.7,24.7v15c0,1.8-1.5,3.3-3.3,3.3h-1.1v42.4h1c1.9,0,3.4,1.5,3.4,3.4v16
			C1210.5,838.6,1209.3,839.7,1208,839.7z"/>
		<path class="st2" d="M1203.6,775.5h-44.2c-1.4,0-2.5-1.1-2.5-2.5c0-1.4,1.1-2.5,2.5-2.5h44.2c1.4,0,2.5,1.1,2.5,2.5
			C1206.1,774.4,1205,775.5,1203.6,775.5z"/>
		<path class="st2" d="M1144.1,775.5h-7.8c-1.4,0-2.5-1.1-2.5-2.5c0-1.4,1.1-2.5,2.5-2.5h7.8c1.4,0,2.5,1.1,2.5,2.5
			C1146.6,774.4,1145.5,775.5,1144.1,775.5z"/>
		<path class="st2" d="M1175,822.9h-38.7c-1.4,0-2.5-1.1-2.5-2.5s1.1-2.5,2.5-2.5h38.7c1.4,0,2.5,1.1,2.5,2.5
			S1176.3,822.9,1175,822.9z"/>
		<path class="st2" d="M1203.6,822.9h-19.3c-1.4,0-2.5-1.1-2.5-2.5s1.1-2.5,2.5-2.5h19.3c1.4,0,2.5,1.1,2.5,2.5
			S1205,822.9,1203.6,822.9z"/>
		<path class="st2" d="M1176.3,885.5h-42.8c-1.4,0-2.5-1.1-2.5-2.5c0-1.4,1.1-2.5,2.5-2.5h42.8c1.4,0,2.5,1.1,2.5,2.5
			C1178.8,884.4,1177.7,885.5,1176.3,885.5z"/>
		<path class="st2" d="M1183.9,737.5H1156v-13.9h27.9V737.5z M1161,732.5h18v-3.9h-18V732.5z"/>
		<path class="st2" d="M1183,728.6h-26.1c-2.4,0-4.4-2-4.4-4.4v-19.8c0-1.9,1.5-3.4,3.4-3.4h14c1.4,0,2.5,1.1,2.5,2.5
			s-1.1,2.5-2.5,2.5h-12.4v17.6h24.9V706h-3.8c-1.4,0-2.5-1.1-2.5-2.5s1.1-2.5,2.5-2.5h5.4c1.9,0,3.4,1.5,3.4,3.4v19.8
			C1187.4,726.6,1185.4,728.6,1183,728.6z"/>
	</g>
	<g>
		<path class="st12" d="M663.5,290.6l-11.5-2.9c-5.5-1.4-8.9-7-7.5-12.6l20.1-79.1c1.4-5.5,7-8.9,12.6-7.5l11.5,2.9
			c5.5,1.4,8.9,7,7.5,12.6l-20.1,79.1C674.6,288.7,669,292,663.5,290.6z"/>
		<path class="st1" d="M690.9,192.3c0.7,1.9,0.8,4,0.3,6l-20.1,79.1c-1.4,5.5-7,8.9-12.6,7.5L647,282c-0.8-0.2-1.5-0.5-2.2-0.8
			c1.1,3.1,3.7,5.6,7.2,6.5l11.5,2.9c5.5,1.4,11.1-1.9,12.6-7.5l20.1-79.1C697.4,199.3,695.1,194.5,690.9,192.3z"/>
		<path class="st6" d="M754.1,188.6l-11.5-45.1c0,0,4.5-10.6,4.5-17c0-17.1-13.9-31-31-31s-31,13.9-31,31s13.9,31,31,31
			c6.1,0,11.8-1.8,16.6-4.8l9.9,38.8L754.1,188.6z M716.2,146.4c-11,0-19.9-8.9-19.9-19.9c0-11,8.9-19.9,19.9-19.9
			s19.9,8.9,19.9,19.9C736.1,137.5,727.2,146.4,716.2,146.4z"/>
		<path class="st2" d="M740.5,195.3l-9.7-38c-4.5,2.2-9.5,3.3-14.6,3.3c-18.8,0-34.1-15.3-34.1-34.1c0-10.2,4.5-19.8,12.4-26.3
			c1.3-1.1,3.3-0.9,4.4,0.4c1.1,1.3,0.9,3.3-0.4,4.4c-6.4,5.3-10.1,13.2-10.1,21.5c0,15.4,12.5,27.9,27.9,27.9
			c5.3,0,10.5-1.5,15-4.4l3.6-2.3l10.2,40l5.4-1.4l-2.5-9.7c-0.4-1.7,0.6-3.3,2.2-3.8c1.7-0.4,3.3,0.6,3.8,2.2l4,15.7L740.5,195.3z
			 M748.2,168.4c-1.4,0-2.6-0.9-3-2.3l-5.8-22.8l0.4-1c1.2-2.8,4.3-11.1,4.3-15.8c0-7.5-2.9-14.5-8.2-19.8c-1.2-1.2-1.2-3.2,0-4.4
			c1.2-1.2,3.2-1.2,4.4,0c6.5,6.4,10,15,10,24.1c0,5.8-3.2,14.3-4.4,17.2l5.3,20.8c0.4,1.7-0.6,3.3-2.2,3.8
			C748.7,168.4,748.4,168.4,748.2,168.4z M716.2,149.5c-12.7,0-23-10.3-23-23s10.3-23,23-23s23,10.3,23,23S728.9,149.5,716.2,149.5z
			 M716.2,109.7c-9.3,0-16.8,7.5-16.8,16.8s7.5,16.8,16.8,16.8s16.8-7.5,16.8-16.8S725.5,109.7,716.2,109.7z M729.1,101.5
			c-0.4,0-0.9-0.1-1.3-0.3c-3.7-1.7-7.6-2.5-11.6-2.5c-3.8,0-7.4,0.7-10.8,2.2c-1.6,0.7-3.4-0.1-4.1-1.6c-0.7-1.6,0.1-3.4,1.6-4.1
			c4.2-1.8,8.7-2.7,13.3-2.7c5,0,9.7,1,14.2,3.1c1.6,0.7,2.2,2.6,1.5,4.1C731.4,100.8,730.3,101.5,729.1,101.5z"/>
		<path class="st7" d="M691.6,145.3l-2.1-0.5L678,189.3l11.4,2.9l10.2-39.6C696.5,150.6,693.8,148.1,691.6,145.3z"/>
		<path class="st2" d="M689.4,195.2c-0.3,0-0.5,0-0.8-0.1l-14.4-3.6l13-50.5l6.2,1.5l0.7,0.8c2,2.6,4.4,4.8,7.2,6.5l1.9,1.2
			l-8.5,33.1c-0.4,1.7-2.1,2.7-3.8,2.2c-1.7-0.4-2.7-2.1-2.2-3.8l7.4-28.8c-1.7-1.2-3.3-2.6-4.7-4.1l-9.6,37.3l8.4,2.1
			c1.7,0.4,2.7,2.1,2.2,3.8C692,194.3,690.8,195.2,689.4,195.2z"/>
		<path class="st2" d="M681.8,263.6c-0.3,0-0.5,0-0.8-0.1c-1.7-0.4-2.7-2.1-2.2-3.8l9.2-36.3c0.4-1.7,2.1-2.7,3.8-2.2
			c1.7,0.4,2.7,2.1,2.2,3.8l-9.2,36.3C684.5,262.7,683.2,263.6,681.8,263.6z"/>
		<path class="st2" d="M651.5,251c-0.3,0-0.5,0-0.8-0.1c-1.7-0.4-2.7-2.1-2.2-3.8l13.2-51.8c1.8-7.2,9.1-11.5,16.3-9.7l11.5,2.9
			c3.5,0.9,6.4,3.1,8.2,6.2c1.8,3.1,2.4,6.7,1.5,10.2l-3.1,12c-0.4,1.7-2.1,2.7-3.8,2.2c-1.7-0.4-2.7-2.1-2.2-3.8l3.1-12
			c0.5-1.9,0.2-3.8-0.8-5.5c-1-1.7-2.6-2.8-4.4-3.3l-11.5-2.9c-3.9-1-7.8,1.4-8.8,5.2l-13.2,51.8C654.1,250,652.9,251,651.5,251z"/>
		<path class="st2" d="M666,294c-1.1,0-2.2-0.1-3.3-0.4l-11.5-2.9c-3.5-0.9-6.4-3.1-8.2-6.2c-1.8-3.1-2.4-6.7-1.5-10.2l4.7-18.6
			c0.4-1.7,2.1-2.7,3.8-2.2c1.7,0.4,2.7,2.1,2.2,3.8l-4.7,18.6c-0.5,1.9-0.2,3.8,0.8,5.5s2.6,2.8,4.4,3.3l11.5,2.9
			c3.9,1,7.8-1.4,8.8-5.2l3.1-12.2c0.4-1.7,2.1-2.7,3.8-2.2c1.7,0.4,2.7,2.1,2.2,3.8l-3.1,12.2C677.5,290,672,294,666,294z"/>
		<path class="st12" d="M768.4,290.6l11.5-2.9c5.5-1.4,8.9-7,7.5-12.6L767.2,196c-1.4-5.5-7-8.9-12.6-7.5l-11.5,2.9
			c-5.5,1.4-8.9,7-7.5,12.6l20.1,79.1C757.3,288.7,762.9,292,768.4,290.6z"/>
		<path class="st1" d="M787.4,275.1L767.2,196c-1.2-4.6-5.3-7.7-9.9-7.8c1.1,1.2,2,2.8,2.5,4.5l20.9,81.9c1,4-1.4,8-5.3,9l-14.3,3.7
			c-0.9,0.2-1.8,0.3-2.7,0.3c2.5,2.7,6.3,3.9,10.1,3l11.5-2.9C785.4,286.3,788.8,280.6,787.4,275.1z"/>
		<path class="st2" d="M785.5,270.8c-1.4,0-2.6-0.9-3-2.3l-11.9-46.6c-0.4-1.7,0.6-3.3,2.2-3.8c1.7-0.4,3.3,0.6,3.8,2.2l11.9,46.6
			c0.4,1.7-0.6,3.3-2.2,3.8C786,270.8,785.8,270.8,785.5,270.8z"/>
		<path class="st2" d="M765.8,294c-2.4,0-4.7-0.6-6.8-1.9c-3.1-1.8-5.3-4.8-6.2-8.2l-14.2-55.7c-0.4-1.7,0.6-3.3,2.2-3.8
			c1.7-0.4,3.3,0.6,3.8,2.2l14.2,55.7c0.5,1.9,1.7,3.4,3.3,4.4c1.7,1,3.6,1.3,5.5,0.8l11.5-2.9c3.9-1,6.2-4.9,5.2-8.8
			c-0.4-1.7,0.6-3.3,2.2-3.8c1.7-0.4,3.3,0.6,3.8,2.2c1.8,7.2-2.5,14.5-9.7,16.3l-11.5,2.9C768.1,293.9,767,294,765.8,294z"/>
		<path class="st2" d="M739.5,222c-1.4,0-2.6-0.9-3-2.3l-3.8-14.9c-0.9-3.5-0.4-7.1,1.5-10.2c1.8-3.1,4.8-5.3,8.2-6.2l11.5-2.9
			c3.5-0.9,7.1-0.4,10.2,1.5c3.1,1.8,5.3,4.8,6.2,8.2l4.2,16.5c0.4,1.7-0.6,3.3-2.2,3.8c-1.7,0.4-3.3-0.6-3.8-2.2l-4.2-16.5
			c-0.5-1.9-1.7-3.4-3.3-4.4c-1.7-1-3.6-1.3-5.5-0.8l-11.5,2.9c-1.9,0.5-3.4,1.7-4.4,3.3c-1,1.7-1.3,3.6-0.8,5.5l3.8,14.9
			c0.4,1.7-0.6,3.3-2.2,3.8C740,222,739.8,222,739.5,222z"/>
		<path class="st2" d="M683.2,208.3c-0.3,0-0.6,0-0.8-0.1l-19.5-5.4c-1.6-0.5-2.6-2.2-2.2-3.8c0.5-1.6,2.2-2.6,3.8-2.2l19.5,5.4
			c1.6,0.5,2.6,2.2,2.2,3.8C685.8,207.4,684.5,208.3,683.2,208.3z"/>
		<path class="st2" d="M677.1,282c-0.3,0-0.5,0-0.8-0.1l-21.6-5.5c-1.7-0.4-2.7-2.1-2.2-3.8c0.4-1.7,2.1-2.7,3.8-2.2l21.6,5.5
			c1.7,0.4,2.7,2.1,2.2,3.8C679.8,281,678.5,282,677.1,282z"/>
		<path class="st2" d="M751.8,211.2c-1.4,0-2.7-0.9-3-2.3c-0.4-1.7,0.6-3.3,2.3-3.8l17.4-4.3c1.7-0.4,3.3,0.6,3.8,2.3
			c0.4,1.7-0.6,3.3-2.3,3.8l-17.4,4.3C752.3,211.2,752.1,211.2,751.8,211.2z"/>
		<path class="st2" d="M754.1,279.2c-1.4,0-2.7-0.9-3-2.4c-0.4-1.7,0.6-3.3,2.3-3.7l17.3-4.3c1.7-0.4,3.3,0.6,3.7,2.3
			c0.4,1.7-0.6,3.3-2.3,3.7l-17.3,4.3C754.6,279.2,754.4,279.2,754.1,279.2z"/>
	</g>
	<g>
		<path class="st1" d="M1230.3,282.2v5c0,3-2.4,5.4-5.4,5.4H1115c-3,0-5.4-2.4-5.4-5.4V159.9c0-17.7,14.3-32,32-32h56.7
			c17.7,0,32,14.3,32,32v24V282.2z"/>
		<path class="st2" d="M1224.9,295.4H1115c-4.5,0-8.2-3.7-8.2-8.2V159.9c0-19.2,15.6-34.7,34.7-34.7h56.7
			c19.2,0,34.7,15.6,34.7,34.7v24c0,1.5-1.2,2.7-2.7,2.7s-2.7-1.2-2.7-2.7v-24c0-16.1-13.1-29.3-29.3-29.3h-56.7
			c-16.1,0-29.3,13.1-29.3,29.3v127.3c0,1.5,1.2,2.7,2.7,2.7h109.9c1.5,0,2.7-1.2,2.7-2.7v-5c0-1.5,1.2-2.7,2.7-2.7s2.7,1.2,2.7,2.7
			v5C1233.1,291.7,1229.4,295.4,1224.9,295.4z"/>
		<path class="st2" d="M1230.3,270.7c-1.5,0-2.7-1.2-2.7-2.7v-45.1c0-1.5,1.2-2.7,2.7-2.7s2.7,1.2,2.7,2.7V268
			C1233.1,269.5,1231.8,270.7,1230.3,270.7z"/>
		<path class="st1" d="M1198.1,95.8c0-6.2-1.3-11.3-3-11.3l0,0h-53.6v43.4h56.5V98.4V95.8z"/>
		<path class="st13" d="M1198.1,123.7c0-0.8-1.3-1.5-3-1.5l0,0h-53.6v5.7h56.5V124V123.7z"/>
		<path class="st13" d="M1148.3,91.6c0-4.4-0.2-8.1-0.3-8.1l0,0h-6.2v31h6.6V93.4V91.6z"/>
		<path class="st2" d="M1200.8,130.6h-62v-16.8h51.5c1.5,0,2.7,1.2,2.7,2.7s-1.2,2.7-2.7,2.7h-46.1v5.9h51.1v-5
			c0-1.5,1.2-2.7,2.7-2.7c1.5,0,2.7,1.2,2.7,2.7V130.6z"/>
		<path class="st2" d="M1141.6,119.2c-1.5,0-2.7-1.2-2.7-2.7V87.8c0-3.7,3-6.7,6.7-6.7h48.6c3.7,0,6.7,3,6.7,6.7v23.3
			c0,1.5-1.2,2.7-2.7,2.7c-1.5,0-2.7-1.2-2.7-2.7V87.8c0-0.7-0.6-1.2-1.2-1.2h-48.6c-0.7,0-1.2,0.6-1.2,1.2v28.7
			C1144.3,118,1143.1,119.2,1141.6,119.2z"/>
		<g>
			<path class="st2" d="M1156.3,108.8c-1.5,0-2.7-1.2-2.7-2.7V92.9c0-1.5,1.2-2.7,2.7-2.7c1.5,0,2.7,1.2,2.7,2.7v13.2
				C1159.1,107.6,1157.8,108.8,1156.3,108.8z"/>
			<path class="st2" d="M1170,108.8c-1.5,0-2.7-1.2-2.7-2.7V92.9c0-1.5,1.2-2.7,2.7-2.7c1.5,0,2.7,1.2,2.7,2.7v13.2
				C1172.7,107.6,1171.5,108.8,1170,108.8z"/>
			<path class="st2" d="M1183.6,108.8c-1.5,0-2.7-1.2-2.7-2.7V92.9c0-1.5,1.2-2.7,2.7-2.7c1.5,0,2.7,1.2,2.7,2.7v13.2
				C1186.3,107.6,1185.1,108.8,1183.6,108.8z"/>
		</g>
		<path class="st13" d="M1196.8,136.4h-50.9c-15.8,0-28.7,12.8-28.7,28.7v9.7h93.4v83.4h-93.4v21c0,2.7,2.2,4.9,4.9,4.9h98.5
			c2.7,0,4.9-2.2,4.9-4.9v-4.5v-88.2v-21.5C1225.5,149.2,1212.6,136.4,1196.8,136.4z"/>
		<path class="st2" d="M1230.3,211.1c-1.5,0-2.7-1.2-2.7-2.7v-14.8c0-1.5,1.2-2.7,2.7-2.7s2.7,1.2,2.7,2.7v14.8
			C1233.1,209.9,1231.8,211.1,1230.3,211.1z"/>
		<g>
			<path class="st2" d="M1109.6,252.6c-1.4,0-2.5-1.1-2.5-2.5v-77.9h44.9c1.4,0,2.5,1.1,2.5,2.5c0,1.4-1.1,2.5-2.5,2.5h-39.9v72.9
				C1112.1,251.5,1111,252.6,1109.6,252.6z"/>
			<path class="st2" d="M1207.1,261.1h-37.3c-1.4,0-2.5-1.1-2.5-2.5s1.1-2.5,2.5-2.5h37.3c0.7,0,1.3-0.6,1.3-1.3v-13
				c0-1.4,1.1-2.5,2.5-2.5c1.4,0,2.5,1.1,2.5,2.5v13C1213.5,258.3,1210.6,261.1,1207.1,261.1z"/>
			<path class="st2" d="M1211,229.3c-1.4,0-2.5-1.1-2.5-2.5v-49.5c0,0,0-0.1-0.1-0.1h-6.8c-1.4,0-2.5-1.1-2.5-2.5
				c0-1.4,1.1-2.5,2.5-2.5h6.8c2.8,0,5.1,2.3,5.1,5.1v49.5C1213.5,228.2,1212.3,229.3,1211,229.3z"/>
			<path class="st2" d="M1187.7,177.3h-27.2c-1.4,0-2.5-1.1-2.5-2.5c0-1.4,1.1-2.5,2.5-2.5h27.2c1.4,0,2.5,1.1,2.5,2.5
				C1190.2,176.1,1189,177.3,1187.7,177.3z"/>
			<path class="st2" d="M1155.3,261.1h-28.8c-1.4,0-2.5-1.1-2.5-2.5s1.1-2.5,2.5-2.5h28.8c1.4,0,2.5,1.1,2.5,2.5
				S1156.7,261.1,1155.3,261.1z"/>
		</g>
		<path class="st5" d="M1121.9,251.7h79.7c2.6,0,4.6-2.1,4.6-4.6V190c0-2.6-2.1-4.6-4.6-4.6h-79.7c-2.6,0-4.6,2.1-4.6,4.6v57.1
			C1117.2,249.7,1119.3,251.7,1121.9,251.7z"/>
	</g>
</g>
</svg>
