<?xml version="1.0" encoding="utf-8"?>
<!-- Generator: Adobe Illustrator 21.0.0, SVG Export Plug-In . SVG Version: 6.00 Build 0)  -->
<svg version="1.1" xmlns="http://www.w3.org/2000/svg" xmlns:xlink="http://www.w3.org/1999/xlink" x="0px" y="0px" width="2800px"
	 height="1900px" viewBox="0 0 2800 1900" style="enable-background:new 0 0 2800 1900;" xml:space="preserve">
<style type="text/css">
	.st0{fill:#FEF3F9;}
	.st1{fill:#93BFE8;}
	.st2{fill:#46345A;}
	.st3{fill:#C8DEF4;}
	.st4{fill:#64C5E0;}
	.st5{fill:#4D3F5A;}
	.st6{fill:#F3F9FD;}
	.st7{fill:#F4A285;}
	.st8{fill:#FFEBA1;}
	.st9{fill:#FFDA83;}
	.st10{fill:#F6AB75;}
	.st11{fill:#F29AC2;}
	.st12{fill:#B4DEE6;}
	.st13{fill:#D7DCDF;}
</style>
<g id="Layer_2">
	<rect class="st0" width="2800" height="1900"/>
</g>
<g id="Layer_1">
	<g>
		<ellipse class="st1" cx="1476.0228" cy="353.9092" rx="32.5203" ry="105.9314"/>
		<path class="st2" d="M1476.0231,464.4304c-24.1041,0-37.1102-56.9431-37.1102-110.5211s13.0061-110.5211,37.1102-110.5211
			c24.1035,0,37.1096,56.9431,37.1096,110.5211S1500.1266,464.4304,1476.0231,464.4304z M1476.0231,252.5677
			c-6.2164,0-13.3467,10.646-18.6075,27.7837c-6.0123,19.5833-9.323,45.7065-9.323,73.5578s3.3107,53.9745,9.323,73.5578
			c5.2609,17.1377,12.3911,27.7837,18.6075,27.7837c6.2166,0,13.3461-10.646,18.6068-27.7837
			c6.0125-19.5833,9.3231-45.7065,9.3231-73.5578s-3.3107-53.9745-9.3231-73.5578
			C1489.3691,263.2137,1482.2396,252.5677,1476.0231,252.5677z"/>
		<path class="st3" d="M1518.5493,248.4134l-41.11-0.3296c17.3031,2.4166,31.1038,48.8678,31.1038,105.8255
			s-13.8007,103.4088-31.1038,105.8255l41.11-0.3296c16.4242-5.3491,29.249-50.5385,29.249-105.4958
			S1534.9735,253.7624,1518.5493,248.4134z"/>
		<path class="st2" d="M1477.4388,464.3245c-2.4019,0-4.4003-1.8536-4.5768-4.2533c-0.1772-2.4118,1.5475-4.5478,3.9424-4.8822
			c12.8412-1.7936,27.1486-43.8288,27.1486-101.2798c0-27.0638-3.1521-52.6577-8.8755-72.0673
			c-3.9637-13.4422-10.8457-28.175-18.2731-29.2125c-2.3949-0.3344-4.1196-2.4704-3.9424-4.8822
			c0.178-2.4118,2.2157-4.254,4.614-4.2533l41.1097,0.3296c0.4703,0.0038,0.9379,0.08,1.3846,0.2255
			c12.1606,3.9606,19.6454,22.4564,23.7836,37.2747c5.5676,19.9419,8.6342,45.7196,8.6342,72.5855
			c0,26.8659-3.0665,52.6436-8.6342,72.5855c-4.1382,14.8183-11.6229,33.3141-23.7836,37.2747
			c-0.4468,0.1455-0.9143,0.2217-1.3846,0.2255l-41.1097,0.3296C1477.4636,464.3245,1477.4512,464.3245,1477.4388,464.3245z
			 M1491.7716,252.7887c5.5035,7.2043,9.4438,17.4128,12.1104,26.4566c5.9656,20.2294,9.2507,46.7453,9.2507,74.6638
			s-3.2852,54.4344-9.2507,74.6639c-2.6665,9.0438-6.6068,19.2523-12.1104,26.4566l25.9447-0.2079
			c6.1089-2.5566,12.4965-13.9639,17.1959-30.7958c5.3497-19.1606,8.2963-44.0618,8.2963-70.1168
			c0-26.0549-2.9465-50.9562-8.2963-70.1168c-4.6995-16.8318-11.087-28.2392-17.1959-30.7958L1491.7716,252.7887z"/>
		<path class="st3" d="M1469.2878,372.7671h-127.0023V341.209h127.0023v0C1474.1456,351.1675,1474.1456,362.8086,1469.2878,372.7671
			L1469.2878,372.7671z"/>
		<path class="st2" d="M1469.288,377.3569h-127.0023c-2.5348,0-4.5898-2.0549-4.5898-4.5898V341.209
			c0-2.5349,2.0551-4.5898,4.5898-4.5898h127.0023c1.755,0,3.3562,1.0005,4.1251,2.5776c5.5153,11.3066,5.5153,24.2758,0,35.5825
			C1472.6442,376.3563,1471.043,377.3569,1469.288,377.3569z M1346.8755,368.1772h119.4081c2.7727-7.2347,2.7727-15.1438,0-22.3785
			h-119.4081V368.1772z"/>
		<ellipse class="st1" cx="1283.5951" cy="353.9092" rx="32.5203" ry="105.9314"/>
		<path class="st2" d="M1283.5952,464.4304c-24.1042,0-37.1102-56.9431-37.1102-110.5211s13.006-110.5211,37.1102-110.5211
			c24.1038,0,37.1099,56.9431,37.1099,110.5211S1307.699,464.4304,1283.5952,464.4304z M1283.5952,252.5677
			c-6.2166,0-13.3464,10.646-18.6075,27.7837c-6.0121,19.5833-9.3231,45.7065-9.3231,73.5578s3.311,53.9745,9.3231,73.5578
			c5.2611,17.1377,12.391,27.7837,18.6075,27.7837c6.2164,0,13.3463-10.646,18.6074-27.7837
			c6.0117-19.5833,9.3228-45.7065,9.3228-73.5578s-3.311-53.9745-9.3228-73.5578
			C1296.9415,263.2137,1289.8116,252.5677,1283.5952,252.5677z"/>
		<ellipse class="st3" cx="1282.0557" cy="354.0916" rx="15.5866" ry="35.2042"/>
		<path class="st2" d="M1282.0557,393.8857c-11.5024,0-20.1763-17.1077-20.1763-39.7941s8.6738-39.7941,20.1763-39.7941
			s20.1763,17.1077,20.1763,39.7941S1293.5581,393.8857,1282.0557,393.8857z M1282.0557,323.4772
			c-2.1073,0-4.786,2.9752-6.8243,7.5795c-2.6515,5.9886-4.1724,14.3846-4.1724,23.0349s1.5209,17.0463,4.1724,23.0349
			c2.0383,4.6043,4.717,7.5795,6.8243,7.5795c2.1074,0,4.786-2.9752,6.8245-7.5795c2.6514-5.9886,4.1722-14.3846,4.1722-23.0349
			s-1.5209-17.0463-4.1722-23.0349C1286.8417,326.4524,1284.1631,323.4772,1282.0557,323.4772z"/>
		<path class="st3" d="M1326.1216,248.4134l-41.11-0.3296c17.3031,2.4166,31.1038,48.8678,31.1038,105.8255
			s-13.8007,103.4088-31.1038,105.8255l41.11-0.3296c16.4242-5.3491,29.249-50.5385,29.249-105.4958
			S1342.5458,253.7624,1326.1216,248.4134z"/>
		<path class="st2" d="M1285.0109,464.3245c-2.4019,0-4.4001-1.8536-4.5767-4.2533c-0.1772-2.4118,1.5474-4.5478,3.9426-4.8822
			c12.8409-1.7936,27.1486-43.8288,27.1486-101.2798c0-27.0638-3.152-52.6577-8.8759-72.0673
			c-3.9637-13.4422-10.8457-28.175-18.2727-29.2125c-2.3953-0.3344-4.1199-2.4704-3.9426-4.8822
			c0.1765-2.3994,2.1748-4.2533,4.5767-4.2533c0.0125,0,0.0248,0,0.0376,0l41.1101,0.3296c0.4703,0.0038,0.9371,0.08,1.3843,0.2255
			c12.1608,3.9606,19.6458,22.4564,23.7832,37.2747c5.568,19.9419,8.6345,45.7196,8.6345,72.5855
			c0,26.8659-3.0665,52.6436-8.6345,72.5855c-4.1375,14.8183-11.6224,33.3141-23.7832,37.2747
			c-0.4471,0.1455-0.9139,0.2217-1.3843,0.2255l-41.1101,0.3296C1285.036,464.3245,1285.0233,464.3245,1285.0109,464.3245z
			 M1299.3438,252.7887c5.5038,7.2043,9.4437,17.4128,12.1106,26.4566c5.9656,20.2294,9.2507,46.7453,9.2507,74.6638
			s-3.2852,54.4344-9.2507,74.6639c-2.6669,9.0438-6.6068,19.2523-12.1106,26.4566l25.9453-0.2079
			c6.1085-2.5566,12.4957-13.9639,17.1956-30.7958c5.3501-19.1606,8.2963-44.0618,8.2963-70.1168
			c0-26.0549-2.9462-50.9562-8.2963-70.1168c-4.6998-16.8318-11.087-28.2392-17.1956-30.7958L1299.3438,252.7887z"/>
		<path class="st3" d="M1281.4784,369.4958h-48.4918v-31.1733h48.4918v0C1286.0162,347.5116,1286.0162,360.3068,1281.4784,369.4958
			L1281.4784,369.4958z"/>
		<path class="st2" d="M1281.4785,374.0855h-48.4921c-2.5349,0-4.5898-2.055-4.5898-4.5898v-31.173
			c0-2.5349,2.0549-4.5898,4.5898-4.5898h48.4921c1.7467,0,3.342,0.9913,4.1154,2.5576c5.2042,10.5381,5.2042,24.6992,0,35.2373
			C1284.8206,373.0943,1283.2252,374.0855,1281.4785,374.0855z M1237.5763,364.9059h40.8712c2.4327-6.7437,2.4327-15.2496,0-21.9933
			h-40.8712V364.9059z"/>
		<ellipse class="st3" cx="1232.6018" cy="353.9092" rx="9.6214" ry="15.7791"/>
		<path class="st2" d="M1232.6017,374.2783c-7.9688,0-14.2111-8.9472-14.2111-20.369c0-11.4218,6.2423-20.369,14.2111-20.369
			s14.2112,8.9473,14.2112,20.369C1246.8129,365.331,1240.5704,374.2783,1232.6017,374.2783z M1232.6017,342.7198
			c-0.8685,0-1.9739,0.9278-2.8845,2.4214c-1.3643,2.2377-2.147,5.4335-2.147,8.7679s0.7827,6.5303,2.147,8.768
			c0.9106,1.4936,2.016,2.4214,2.8845,2.4214s1.9739-0.9278,2.8845-2.4214c1.3643-2.2377,2.147-5.4335,2.147-8.768
			s-0.7827-6.5303-2.147-8.7679C1234.5756,343.6476,1233.4702,342.7198,1232.6017,342.7198z"/>
		<path class="st2" d="M1335.3623,335.7927c-0.0883,0-0.1769-0.0024-0.2657-0.0076c-2.5311-0.1445-4.4655-2.3132-4.3206-4.8439
			c1.464-25.6184-8.0916-51.761-8.1881-52.022c-0.8802-2.3763,0.3318-5.017,2.7076-5.8983c2.377-0.8806,5.016,0.3293,5.8983,2.7042
			c0.4224,1.1368,10.323,28.1575,8.7466,55.7395C1339.8011,333.9063,1337.7772,335.7927,1335.3623,335.7927z"/>
		<path class="st2" d="M1322.269,445.8621c-0.7347,0-1.4795-0.1769-2.1719-0.5496c-2.2307-1.2012-3.0662-3.982-1.8673-6.2131
			c0.08-0.1507,5.0139-9.4982,6.4165-20.719c0.3141-2.5156,2.6113-4.2981,5.1235-3.9851c2.5153,0.3145,4.2994,2.6083,3.985,5.1236
			c-1.627,13.0171-7.204,23.489-7.4404,23.9283C1325.4852,444.9871,1323.9033,445.8621,1322.269,445.8621z"/>
		<path class="st2" d="M1527.0104,319.629c-2.3293,0-4.3251-1.7663-4.5615-4.1337c-1.475-14.7511-4.4354-25.2633-4.4651-25.3678
			c-0.6936-2.4373,0.7186-4.9767,3.1555-5.6714c2.4342-0.6954,4.9753,0.7148,5.6718,3.1517
			c0.1304,0.4561,3.2101,11.3508,4.772,26.9745c0.2523,2.5221-1.5881,4.7715-4.1106,5.0236
			C1527.3173,319.6214,1527.1627,319.629,1527.0104,319.629z"/>
		<path class="st2" d="M1528.5557,344.2593c-2.5348,0-4.5897-2.0549-4.5897-4.5898v-8.4666c0-2.5349,2.0549-4.5898,4.5897-4.5898
			c2.5349,0,4.5898,2.0549,4.5898,4.5898v8.4666C1533.1455,342.2043,1531.0906,344.2593,1528.5557,344.2593z"/>
	</g>
	<g>
		<path class="st4" d="M782.5328,1080.4731H616.3105V900.1629c0-14.0108,11.358-25.3688,25.3688-25.3688H757.164
			c14.0108,0,25.3688,11.358,25.3688,25.3688V1080.4731z"/>
		<path class="st5" d="M782.5329,1085.063H616.3106c-2.5349,0-4.5898-2.0549-4.5898-4.5898V900.1628
			c0-16.5191,13.4395-29.9586,29.9586-29.9586h115.4847c16.5191,0,29.9586,13.4395,29.9586,29.9586v180.3104
			C787.1227,1083.0081,785.0678,1085.063,782.5329,1085.063z M620.9004,1075.8833h157.0427V900.1628
			c0-11.4576-9.3214-20.779-20.779-20.779H641.6794c-11.4576,0-20.779,9.3214-20.779,20.779V1075.8833z"/>
		<rect x="653.2488" y="855.4854" class="st6" width="92.3457" height="19.3086"/>
		<path class="st5" d="M745.5944,879.3838h-92.3456c-2.5349,0-4.5898-2.0549-4.5898-4.5898v-19.3085
			c0-2.5349,2.0549-4.5898,4.5898-4.5898h92.3456c2.5349,0,4.5898,2.0549,4.5898,4.5898v19.3085
			C750.1842,877.3289,748.1293,879.3838,745.5944,879.3838z M657.8386,870.2042h83.166v-10.1288h-83.166V870.2042z"/>
		<rect x="640.6562" y="815.1891" class="st4" width="117.5309" height="40.2963"/>
		<path class="st5" d="M758.1871,860.0753h-117.531c-2.5349,0-4.5898-2.0549-4.5898-4.5898v-40.2964
			c0-2.5349,2.0549-4.5898,4.5898-4.5898h117.531c2.5349,0,4.5898,2.0549,4.5898,4.5898v40.2964
			C762.7769,858.0204,760.722,860.0753,758.1871,860.0753z M645.2459,850.8957h108.3514v-31.1168H645.2459V850.8957z"/>
		<rect x="667.9402" y="935.2385" class="st6" width="114.1729" height="83.1111"/>
		<path class="st5" d="M782.113,1022.9398H667.9402c-2.5349,0-4.5898-2.0549-4.5898-4.5898v-83.1115
			c0-2.5349,2.0549-4.5898,4.5898-4.5898H782.113c2.5349,0,4.5898,2.0549,4.5898,4.5898v83.1115
			C786.7028,1020.8848,784.6478,1022.9398,782.113,1022.9398z M672.53,1013.7601h104.9931v-73.9319H672.53V1013.7601z"/>
		<g>
			<path class="st7" d="M644.9156,1048.8173L644.9156,1048.8173c-10.5516,9.4149-26.7375,8.4934-36.1523-2.0581l-26.2693-29.4409
				c-9.4148-10.5515-8.4933-26.7374,2.0582-36.1523l0,0c10.5515-9.4149,26.7375-8.4934,36.1523,2.0581l26.2693,29.4409
				C656.3885,1023.2165,655.4671,1039.4025,644.9156,1048.8173z"/>
			<path class="st5" d="M627.9075,1059.908c-0.5837,0-1.1682-0.0166-1.7553-0.0497c-8.0526-0.4585-15.4441-4.025-20.8138-10.0437
				l-26.2693-29.4407c-5.3698-6.0172-8.0743-13.766-7.6157-21.8188c0.4583-8.0522,4.0251-15.4445,10.043-20.8135
				c6.0179-5.3698,13.7612-8.0701,21.8192-7.6164c8.0522,0.4586,15.4437,4.0251,20.8135,10.0437l26.2694,29.4407
				c5.3697,6.0173,8.0742,13.7661,7.616,21.8189c-0.4586,8.0521-4.0251,15.4445-10.043,20.8135
				C642.3925,1057.22,635.3243,1059.908,627.9075,1059.908z M601.572,979.2551c-5.1622,0-10.0809,1.8708-13.9639,5.3353
				c-4.1885,3.7375-6.671,8.8824-6.9899,14.4866c-0.3193,5.6042,1.5632,10.9974,5.3004,15.1859l26.2694,29.4408
				c3.7371,4.1885,8.8817,6.6709,14.4859,6.9895c5.608,0.3228,10.9974-1.5632,15.1859-5.3
				c4.1885-3.7375,6.671-8.8817,6.9899-14.4866c0.319-5.6042-1.5636-10.9974-5.3008-15.1859l-26.2693-29.4407
				c-3.7372-4.1885-8.8818-6.671-14.486-6.9896C602.3853,979.2668,601.9778,979.2551,601.572,979.2551z"/>
			<path class="st8" d="M584.5521,981.166c-10.5516,9.4149-11.473,25.6008-2.0581,36.1523l13.1346,14.7205l38.2104-34.0942
				l-13.1346-14.7205C611.2895,972.6726,595.1036,971.7512,584.5521,981.166z"/>
			<path class="st5" d="M595.6302,1036.6285c-1.2626,0-2.5197-0.5178-3.4265-1.5343l-13.1346-14.7204
				c-11.0846-12.4227-9.9954-31.5481,2.4273-42.6323c6.0179-5.3698,13.7612-8.0701,21.8192-7.6164
				c8.0522,0.4586,15.4437,4.0251,20.8135,10.0437l13.1347,14.7204c0.8102,0.9081,1.2267,2.1011,1.1574,3.3162
				c-0.0689,1.2157-0.6182,2.3535-1.5264,3.1638l-38.2104,34.094C597.8089,1036.2445,596.7173,1036.6285,595.6302,1036.6285z
				 M601.572,979.2551c-5.1622,0-10.0809,1.8708-13.9639,5.3353c-8.6462,7.715-9.4041,21.0258-1.6895,29.6724l10.0789,11.2953
				l31.3608-27.9823l-10.0788-11.296c-3.7372-4.1885-8.8818-6.671-14.486-6.9896
				C602.3853,979.2668,601.9778,979.2551,601.572,979.2551z"/>
		</g>
		<path class="st5" d="M745.1748,966.6924h-46.173c-2.5349,0-4.5898-2.0549-4.5898-4.5898c0-2.5349,2.0549-4.5898,4.5898-4.5898
			h46.173c2.5349,0,4.5898,2.0549,4.5898,4.5898C749.7646,964.6375,747.7097,966.6924,745.1748,966.6924z"/>
		<path class="st5" d="M757.7675,1001.9518h-26.8642c-2.5349,0-4.5898-2.0549-4.5898-4.5898c0-2.5349,2.055-4.5898,4.5898-4.5898
			h26.8642c2.5349,0,4.5898,2.0549,4.5898,4.5898C762.3573,999.8969,760.3024,1001.9518,757.7675,1001.9518z"/>
		<g>
			<path class="st5" d="M665.0019,845.8035c-2.5349,0-4.5898-2.0549-4.5898-4.5898v-10.9136c0-2.5349,2.0549-4.5898,4.5898-4.5898
				c2.5349,0,4.5898,2.0549,4.5898,4.5898v10.9136C669.5917,843.7486,667.5368,845.8035,665.0019,845.8035z"/>
			<path class="st5" d="M699.4218,845.8035c-2.5349,0-4.5898-2.0549-4.5898-4.5898v-10.9136c0-2.5349,2.0549-4.5898,4.5898-4.5898
				c2.5349,0,4.5898,2.0549,4.5898,4.5898v10.9136C704.0116,843.7486,701.9567,845.8035,699.4218,845.8035z"/>
			<path class="st5" d="M733.8416,845.8035c-2.5349,0-4.5898-2.0549-4.5898-4.5898v-10.9136c0-2.5349,2.0549-4.5898,4.5898-4.5898
				c2.5349,0,4.5898,2.0549,4.5898,4.5898v10.9136C738.4315,843.7486,736.3765,845.8035,733.8416,845.8035z"/>
		</g>
	</g>
	<g>
		<path class="st9" d="M2222.8984,230.5865h-195.0596v0.1891c-37.8409,2.6861-67.7067,34.2319-67.7067,72.7567
			c0,40.2868,32.6591,72.9458,72.9459,72.9458s72.9458-32.659,72.9458-72.9458c0-1.762-0.0662-3.5085-0.1892-5.2392h94.4949
			L2222.8984,230.5865z"/>
		<path class="st5" d="M2033.0779,381.0678c-42.7531,0-77.5353-34.7822-77.5353-77.5356c0-19.7398,7.4226-38.5456,20.9011-52.9536
			c13.1074-14.0115,30.7289-22.5998,49.7446-24.2762c0.5123-0.1976,1.0688-0.3058,1.6509-0.3058h195.059
			c1.4751,0,2.8611,0.7092,3.7236,1.906c0.8628,1.1971,1.0972,2.7355,0.6304,4.1354l-22.5684,67.7067
			c-0.6248,1.8739-2.3784,3.1383-4.354,3.1383h-89.7188c0.002,0.2172,0.0027,0.4337,0.0027,0.6492
			C2110.6138,346.2856,2075.8315,381.0678,2033.0779,381.0678z M2029.1453,235.1763c-0.3137,0.0927-0.642,0.1534-0.9813,0.1776
			c-35.5745,2.5252-63.4417,32.4728-63.4417,68.1784c0,37.6916,30.6641,68.356,68.3556,68.356
			c37.6917,0,68.3562-30.6644,68.3562-68.356c0-1.6009-0.0598-3.2545-0.177-4.9142c-0.0903-1.2706,0.3516-2.5215,1.2197-3.4534
			c0.8682-0.932,2.0847-1.4612,3.3582-1.4612h91.187l19.5081-58.5271H2029.1453z"/>
		<path class="st10" d="M2027.8389,230.7756l195.0596-0.1891l-15.3147-23.3749h-151.7781
			c-28.3706,0-55.2667,13.2822-71.9772,36.2089c-4.3668,5.9912-8.5627,12.9658-12.3844,21.0834l0.0037-0.0005
			C1983.5052,245.5058,2004.1005,232.4606,2027.8389,230.7756z"/>
		<path class="st5" d="M1971.447,269.0931c-1.395,0-2.7356-0.6365-3.6155-1.7605c-1.0681-1.365-1.2784-3.2151-0.5399-4.7836
			c3.7334-7.9305,8.0494-15.2758,12.8275-21.832c17.3862-23.8542,45.6803-38.0953,75.6865-38.0953h151.7783
			c1.5476,0,2.9915,0.7799,3.8396,2.0746l15.3142,23.3749c0.9233,1.4098,0.9998,3.212,0.1992,4.6953
			c-0.7998,1.4829-2.3494,2.408-4.0347,2.4097l-194.8956,0.1889c-21.4327,1.5722-41.1187,13.3757-52.6836,31.5974
			c-0.6716,1.0582-1.7467,1.7957-2.9755,2.0412C1972.0476,269.0641,1971.7463,269.0931,1971.447,269.0931z M2055.8057,211.8014
			c-21.7686,0-42.5283,8.2901-57.9713,22.7036c9.1479-4.6826,19.2323-7.566,29.6801-8.308c0.1062-0.0076,0.213-0.0114,0.3207-0.0114
			l186.5743-0.1807l-9.3057-14.2036H2055.8057z"/>
		<path class="st5" d="M2072.1741,219.8622c-1.3625,0-2.7114-0.6041-3.6167-1.7598l-6.314-8.0605
			c-1.5632-1.9956-1.2122-4.8805,0.7834-6.4438c1.9944-1.5636,4.8809-1.2123,6.4434,0.783l6.3137,8.0605
			c1.5635,1.9956,1.2124,4.8805-0.7832,6.4437C2074.1614,219.5432,2073.1636,219.8622,2072.1741,219.8622z"/>
		<circle class="st10" cx="2032.712" cy="303.7874" r="40.3016"/>
		<path class="st5" d="M2032.7117,348.6788c-24.7529,0-44.8914-20.138-44.8914-44.8914c0-24.7534,20.1384-44.8914,44.8914-44.8914
			c24.7532,0,44.8914,20.138,44.8914,44.8914C2077.603,328.5407,2057.4648,348.6788,2032.7117,348.6788z M2032.7117,268.0756
			c-19.6915,0-35.7117,16.0202-35.7117,35.7118c0,19.6915,16.0201,35.7118,35.7117,35.7118
			c19.6917,0,35.7119-16.0202,35.7119-35.7118C2068.4236,284.0958,2052.4033,268.0756,2032.7117,268.0756z"/>
		<path class="st5" d="M1989.3381,404.5989c-4.0734,0-8.1564-1.2281-11.7118-3.7013c-6.9124-4.8091-10.1575-13.2185-8.2673-21.4241
			l6.1986-26.9062c0.5688-2.4701,3.03-4.0133,5.5028-3.442c2.4701,0.5689,4.0112,3.0328,3.4424,5.5032l-6.1986,26.9059
			c-1.0433,4.5298,0.7482,9.1727,4.5643,11.8279c4.1312,2.8731,9.5541,2.7025,13.4956-0.4261l25.2627-20.0529
			c1.9846-1.576,4.8718-1.2447,6.4482,0.7413c1.5763,1.9853,1.2439,4.8726-0.7413,6.4486l-25.2627,20.0525
			C1998.3246,403.1001,1993.8375,404.5986,1989.3381,404.5989z"/>
		<path class="st5" d="M1971.4208,505.1974c-1.6177,0-3.1858-0.8568-4.0229-2.3732c-13.4343-24.3503-4.725-64.6274,18.6378-86.1932
			c5.5608-5.1328,8.1853-10.0754,7.8005-14.6904c-0.5516-6.6216-7.1323-11.0991-7.1992-11.1425
			c-2.1211-1.3874-2.7169-4.2319-1.3295-6.3534c1.3875-2.1222,4.234-2.7155,6.353-1.3298
			c0.4242,0.2772,10.3948,6.9175,11.3236,18.0631c0.6316,7.5795-2.9756,15.0479-10.7216,22.1985
			c-20.1866,18.6334-28.2072,54.3872-16.827,75.0131c1.2247,2.2198,0.4178,5.0115-1.8019,6.2362
			C1972.931,505.0136,1972.1704,505.1974,1971.4208,505.1974z"/>
	</g>
	<g>
		<path class="st3" d="M1470.6006,1055.5154h-154.3757c-6.4545,0-11.6869-5.2324-11.6869-11.687V878.6666
			c0-6.4545,5.2324-11.6869,11.6869-11.6869h154.3757c4.2218,0,7.6443,3.4225,7.6443,7.6443v173.2469
			C1478.2449,1052.0929,1474.8224,1055.5154,1470.6006,1055.5154z"/>
		<path class="st5" d="M1470.6003,1060.1052h-154.3755c-8.9752,0-16.2767-7.302-16.2767-16.2769V878.6666
			c0-8.9752,7.3015-16.2767,16.2767-16.2767h154.3755c6.7461,0,12.2344,5.4883,12.2344,12.2341v173.2467
			C1482.8347,1054.6168,1477.3464,1060.1052,1470.6003,1060.1052z M1316.2249,871.5695c-3.9133,0-7.097,3.1838-7.097,7.0971
			v165.1617c0,3.9133,3.1837,7.0972,7.097,7.0972h154.3755c1.6846,0,3.0548-1.3702,3.0548-3.0548V874.624
			c0-1.6843-1.3702-3.0545-3.0548-3.0545H1316.2249z"/>
		<path class="st1" d="M1316.8951,866.9797L1316.8951,866.9797c-6.8247,0-12.3572,5.5325-12.3572,12.3572v163.8213
			c0,6.8246,5.5325,12.3572,12.3572,12.3572l0,0c6.8247,0,12.3572-5.5326,12.3572-12.3572V879.3369
			C1329.2523,872.5122,1323.7198,866.9797,1316.8951,866.9797z"/>
		<path class="st5" d="M1316.8951,1060.1052c-9.3448,0-16.947-7.6027-16.947-16.947V879.3369c0-9.3448,7.6022-16.947,16.947-16.947
			s16.947,7.6022,16.947,16.947v163.8213C1333.8422,1052.5026,1326.24,1060.1052,1316.8951,1060.1052z M1316.8951,871.5695
			c-4.283,0-7.7673,3.4844-7.7673,7.7674v163.8213c0,4.283,3.4844,7.7673,7.7673,7.7673s7.7673-3.4844,7.7673-7.7673V879.3369
			C1324.6625,875.054,1321.1781,871.5695,1316.8951,871.5695z"/>
		<ellipse class="st9" cx="1304.891" cy="938.2985" rx="12.3572" ry="22.596"/>
		<path class="st5" d="M1304.891,965.4843c-9.6613,0-16.947-11.6876-16.947-27.1859c0-15.4986,7.2858-27.1859,16.947-27.1859
			s16.947,11.6873,16.947,27.1859C1321.838,953.7967,1314.5522,965.4843,1304.891,965.4843z M1304.891,920.2922
			c-3.1669,0-7.7673,7.0143-7.7673,18.0062c0,10.9918,4.6005,18.0062,7.7673,18.0062s7.7673-7.0143,7.7673-18.0062
			C1312.6583,927.3066,1308.0579,920.2922,1304.891,920.2922z"/>
		<path class="st1" d="M1421.8983,771.6527h-81.4749c-0.7098,0-1.2854,0.5755-1.2854,1.2853v94.0417h96.0332v-82.0541
			C1435.1713,777.5952,1429.2288,771.6527,1421.8983,771.6527z"/>
		<path class="st5" d="M1435.1713,871.5695h-96.0332c-2.5348,0-4.5897-2.0549-4.5897-4.5898V772.938
			c0-3.2396,2.6355-5.8752,5.8751-5.8752h81.4749c9.8499,0,17.8628,8.0132,17.8628,17.8628v82.0541
			C1439.7611,869.5146,1437.7062,871.5695,1435.1713,871.5695z M1343.7279,862.3899h86.8535v-77.4642
			c0-4.7877-3.8954-8.6831-8.6831-8.6831h-78.1704V862.3899z"/>
		<path class="st5" d="M1435.1713,871.5695h-96.0332c-2.5348,0-4.5897-2.0549-4.5897-4.5898v-16.2409
			c0-2.5349,2.0549-4.5898,4.5897-4.5898h96.0332c2.5349,0,4.5898,2.0549,4.5898,4.5898v16.2409
			C1439.7611,869.5146,1437.7062,871.5695,1435.1713,871.5695z M1343.7279,862.3899h86.8535v-7.0613h-86.8535V862.3899z"/>
		<path class="st1" d="M1421.8983,1124.0095h-81.4749c-0.7098,0-1.2854-0.5754-1.2854-1.2853v-67.2089h96.0332v55.2212
			C1435.1713,1118.067,1429.2288,1124.0095,1421.8983,1124.0095z"/>
		<path class="st5" d="M1421.8983,1128.5994h-81.4749c-3.2396,0-5.8751-2.6355-5.8751-5.8751v-67.2089
			c0-2.5349,2.0549-4.5898,4.5897-4.5898h96.0332c2.5349,0,4.5898,2.0549,4.5898,4.5898v55.2212
			C1439.7611,1120.5865,1431.7482,1128.5994,1421.8983,1128.5994z M1343.7279,1119.4198h78.1704
			c4.7877,0,8.6831-3.8955,8.6831-8.6832v-50.6313h-86.8535V1119.4198z"/>
		<path class="st5" d="M1435.1713,1076.3461h-96.0332c-2.5348,0-4.5897-2.0549-4.5897-4.5898v-16.2408
			c0-2.5349,2.0549-4.5898,4.5897-4.5898h96.0332c2.5349,0,4.5898,2.0549,4.5898,4.5898v16.2408
			C1439.7611,1074.2911,1437.7062,1076.3461,1435.1713,1076.3461z M1343.7279,1067.1664h86.8535v-7.0612h-86.8535V1067.1664z"/>
		<path class="st11" d="M1401.0259,931.1956l2.5715,1.7906l5.2974-3.6885c23.4158-16.3043,51.7023,12.5886,34.9052,35.6533
			l-39.2485,53.8935l-38.325-51.8514C1349.2058,943.9651,1377.526,914.8328,1401.0259,931.1956z"/>
		<path class="st5" d="M1404.5513,1023.4342c-1.4557,0-2.8252-0.6902-3.6909-1.8619l-38.325-51.8513
			c-10.4181-14.095-6.1986-29.5418,2.6046-38.5974c8.7924-9.0462,24.0885-13.7005,38.4576-3.7306l2.6748-1.8622
			c14.3329-9.9799,29.6311-5.3735,38.4342,3.6192c8.8038,8.9924,13.0847,24.3852,2.8031,38.5029l-39.2485,53.8931
			c-0.8599,1.1819-2.2322,1.8826-3.6934,1.8881C1404.5624,1023.4342,1404.5568,1023.4342,1404.5513,1023.4342z M1386.5295,930.9789
			c-6.0365,0-11.321,2.9569-14.8076,6.5434c-5.6527,5.8148-9.5171,16.3074-1.8046,26.7428l34.6063,46.8201l35.5663-48.8358
			c7.6116-10.4519,3.7106-20.9035-1.9425-26.6777c-5.6532-5.7745-16.0195-9.8954-26.63-2.5073l-5.2974,3.6885
			c-1.575,1.0981-3.6693,1.0971-5.2456-0.0004l-2.571-1.7905C1394.3225,932.1205,1390.2809,930.9789,1386.5295,930.9789z"/>
		<path class="st5" d="M1435.1713,805.8998h-34.9536c-2.5349,0-4.5898-2.0549-4.5898-4.5898c0-2.5349,2.0549-4.5898,4.5898-4.5898
			h34.9536c2.5349,0,4.5898,2.055,4.5898,4.5898C1439.7611,803.8449,1437.7062,805.8998,1435.1713,805.8998z"/>
		<path class="st5" d="M1383.271,805.8998h-18.0062c-2.5349,0-4.5898-2.0549-4.5898-4.5898c0-2.5349,2.0549-4.5898,4.5898-4.5898
			h18.0062c2.5349,0,4.5898,2.055,4.5898,4.5898C1387.8608,803.8449,1385.8059,805.8998,1383.271,805.8998z"/>
	</g>
	<g>
		<polygon class="st4" points="2065.7417,933.0025 1960.5289,1043.8643 2180.134,1043.8643 2266.2815,933.0025 		"/>
		<path class="st5" d="M2180.134,1048.4541h-219.6051c-1.8342,0-3.4927-1.0923-4.2174-2.7783
			c-0.724-1.6853-0.3744-3.6403,0.8882-4.9712l105.2126-110.8618c0.8669-0.913,2.0703-1.4302,3.3293-1.4302h200.5398
			c1.7529,0,3.3521,0.9982,4.123,2.5725c0.7703,1.5743,0.5764,3.4496-0.4985,4.8336l-86.1475,110.8618
			C2182.8889,1047.7997,2181.5513,1048.4541,2180.134,1048.4541z M1971.2125,1039.2744h206.6757l79.0137-101.6821h-189.1887
			L1971.2125,1039.2744z"/>
		<circle class="st4" cx="1960.5289" cy="1000.0845" r="43.7798"/>
		<path class="st5" d="M1960.5289,1048.4541c-26.6714,0-48.3696-21.6982-48.3696-48.3696c0-26.6714,21.6982-48.3696,48.3696-48.3696
			c26.6715,0,48.3696,21.6982,48.3696,48.3696C2008.8986,1026.7559,1987.2004,1048.4541,1960.5289,1048.4541z M1960.5289,960.8945
			c-21.6093,0-39.1899,17.5807-39.1899,39.19s17.5807,39.1899,39.1899,39.1899s39.1901-17.5807,39.1901-39.1899
			S1982.1382,960.8945,1960.5289,960.8945z"/>
		<path class="st12" d="M2105.2849,893.8125c0-23.2039-18.8108-42.0145-42.0146-42.0145c-12.5002,0-23.719,5.4648-31.4153,14.129
			l-0.0073-0.0065l-99.5992,100.756c7.6298-6.4653,17.4965-10.3719,28.2805-10.3719c24.179,0,43.7799,19.6009,43.7799,43.7798
			c0,7.4105-1.8481,16.5053-5.0981,22.6234c0,0,94.6848-100.1235,95.3564-100.8732l0.1257-0.1302l-0.0073-0.0065
			C2101.2756,914.2791,2105.2849,904.5161,2105.2849,893.8125z"/>
		<path class="st5" d="M1999.2086,1027.2979c-0.9315,0-1.8694-0.2827-2.6755-0.8619c-1.8652-1.3398-2.4535-3.8527-1.3756-5.8814
			c2.7286-5.1359,4.5615-13.3626,4.5615-20.47c0-21.6093-17.5808-39.19-39.1901-39.19c-9.2582,0-18.2482,3.2969-25.3136,9.2838
			c-1.8743,1.5888-4.6664,1.4191-6.3345-0.3827c-1.6694-1.8026-1.6239-4.5988,0.1028-6.3455l99.5996-100.7563
			c0.0159-0.0159,0.0317-0.0317,0.0476-0.0472c8.8375-9.8151,21.4451-15.4382,34.6394-15.4382
			c25.6978,0,46.6042,20.9066,46.6042,46.6043c0,11.3098-4.1008,22.2009-11.5537,30.7034c-0.1001,0.1293-0.2075,0.2534-0.322,0.3724
			l-0.1255,0.1303c-3.3887,3.621-79.7943,84.4172-95.3278,100.8429C2001.6498,1026.809,2000.4341,1027.2979,1999.2086,1027.2979z
			 M1960.5289,951.7148c26.6715,0,48.3696,21.6982,48.3696,48.3696c0,1.9777-0.1165,4.014-0.3379,6.0565
			c25.5654-27.0362,80.9825-85.6432,82.601-87.3834c0.0303-0.0362,0.0613-0.0721,0.093-0.1075
			c6.0876-6.8541,9.4404-15.6748,9.4404-24.8375c0-20.6359-16.7886-37.4247-37.4248-37.4247
			c-10.678,0-20.8776,4.5881-27.9844,12.5875c-0.12,0.1355-0.2476,0.2631-0.382,0.382l-82.014,82.967
			C1955.4041,951.9207,1957.9575,951.7148,1960.5289,951.7148z"/>
		<path class="st5" d="M1960.5289,1029.3887c-2.5348,0-4.5898-2.0549-4.5898-4.5898c0-2.5349,2.0551-4.5898,4.5898-4.5898
			c11.0967,0,20.1246-9.028,20.1246-20.1246c0-11.0967-9.028-20.1246-20.1246-20.1246s-20.1245,9.0279-20.1245,20.1246
			c0,2.5349-2.0549,4.5898-4.5898,4.5898s-4.5898-2.0549-4.5898-4.5898c0-16.1581,13.1461-29.3043,29.3042-29.3043
			c16.1582,0,29.3043,13.1461,29.3043,29.3043S1976.6871,1029.3887,1960.5289,1029.3887z"/>
		<path class="st5" d="M1959.9083,1014.6366c-1.4805,0-2.9424-0.2393-4.354-0.7255c-4.2057-1.4495-7.324-4.9994-8.1377-9.2645
			c-0.8901-4.6691,0.9985-9.4037,5.1823-12.9902c1.9246-1.6481,4.8229-1.426,6.4723,0.4979
			c1.6495,1.9246,1.4268,4.8222-0.4978,6.4724c-1.6405,1.4053-2.3998,2.9327-2.1392,4.3002
			c0.2014,1.0578,0.9902,1.9191,2.1101,2.3053c1.8992,0.6516,4.3513-0.1662,6.7296-2.2466c1.9088-1.6702,4.807-1.475,6.4766,0.4316
			c1.6694,1.9073,1.4756,4.8071-0.4318,6.4765C1967.7599,1013.0078,1963.77,1014.6366,1959.9083,1014.6366z"/>
		<path class="st5" d="M2034.7908,904.3413c-1.1301,0-2.2625-0.4148-3.1493-1.2516c-1.8439-1.7398-1.928-4.6447-0.1882-6.4882
			l24.5951-26.0636c1.7397-1.8439,4.645-1.9277,6.4883-0.1882c1.844,1.7398,1.928,4.6447,0.1882,6.4882l-24.5951,26.0636
			C2037.2271,903.8583,2036.01,904.3413,2034.7908,904.3413z"/>
		<path class="st5" d="M2012.0754,928.4127c-1.1301,0-2.2625-0.4147-3.1493-1.2516c-1.8439-1.7398-1.928-4.6446-0.1882-6.4882
			l12.4724-13.2167c1.7411-1.8436,4.6449-1.928,6.4882-0.1882c1.844,1.7397,1.9281,4.6446,0.1882,6.4882l-12.4723,13.2167
			C2014.5111,927.9296,2013.2947,928.4127,2012.0754,928.4127z"/>
		<path class="st5" d="M2141.2971,1025.858h-44.1328c-2.5349,0-4.5898-2.0549-4.5898-4.5898c0-2.5349,2.0549-4.5898,4.5898-4.5898
			h44.1328c2.5349,0,4.5898,2.0549,4.5898,4.5898C2145.887,1023.8031,2143.832,1025.858,2141.2971,1025.858z"/>
		<path class="st5" d="M2073.156,1025.858h-25.7736c-2.5349,0-4.5898-2.0549-4.5898-4.5898c0-2.5349,2.0549-4.5898,4.5898-4.5898
			h25.7736c2.5349,0,4.5898,2.0549,4.5898,4.5898C2077.7458,1023.8031,2075.6909,1025.858,2073.156,1025.858z"/>
	</g>
	<g>
		<ellipse class="st10" cx="614.2242" cy="1491.7839" rx="80.3075" ry="35.2956"/>
		<path class="st5" d="M614.2243,1531.6694c-22.0727,0-42.8954-3.8092-58.6326-10.7257
			c-16.937-7.444-26.2646-17.7993-26.2646-29.1594s9.3276-21.7162,26.2646-29.1602c15.7372-6.9164,36.5599-10.7256,58.6326-10.7256
			c22.0726,0,42.8954,3.8092,58.6326,10.7256c16.937,7.444,26.2646,17.8,26.2646,29.1602s-9.3276,21.7155-26.2646,29.1594
			C657.1197,1527.8602,636.2969,1531.6694,614.2243,1531.6694z M614.2243,1461.0781c-20.8293,0-40.3402,3.5334-54.9393,9.95
			c-13.2047,5.8035-20.7783,13.3688-20.7783,20.7562c0,7.3867,7.5736,14.952,20.7783,20.7556
			c14.5991,6.4165,34.1102,9.9498,54.9393,9.9498c20.829,0,40.3402-3.5333,54.9392-9.9498
			c13.2047-5.8036,20.7783-13.3689,20.7783-20.7556c0-7.3875-7.5736-14.9528-20.7783-20.7562
			C654.5645,1464.6116,635.0536,1461.0781,614.2243,1461.0781z"/>
		<ellipse class="st6" cx="614.2242" cy="1490.5942" rx="35.1341" ry="11.8974"/>
		<path class="st5" d="M614.2243,1507.0812c-19.1323,0-39.7241-5.1594-39.7241-16.4871s20.5917-16.4871,39.7241-16.4871
			c19.1323,0,39.7237,5.1594,39.7237,16.4871S633.3566,1507.0812,614.2243,1507.0812z M583.7071,1490.5941
			c0.952,2.1122,11.3094,7.3074,30.5172,7.3074c19.2092,0,29.5659-5.1952,30.5168-7.3074
			c-0.9513-2.1122-11.3087-7.3075-30.5168-7.3075C595.0175,1483.2866,584.6597,1488.4819,583.7071,1490.5941z M644.7805,1490.6969
			h0.0072H644.7805z"/>
		<path class="st10" d="M694.73,1491.3875h-0.2097c0.0034,0.1322,0.0115,0.2639,0.0115,0.3965
			c0,19.4933-35.9549,35.2957-80.3075,35.2957s-80.3074-15.8024-80.3074-35.2957c0-0.1326,0.0081-0.2643,0.0114-0.3965h-0.2097
			v99.9381h0.2097c-0.0034,0.1323-0.0114,0.264-0.0114,0.3966c0,19.4932,35.9548,35.2957,80.3074,35.2957
			s80.3075-15.8025,80.3075-35.2957c0-0.1326-0.0081-0.2643-0.0115-0.3966h0.2097V1491.3875z"/>
		<path class="st5" d="M614.2243,1631.6075c-22.0727,0-42.8954-3.8092-58.6326-10.7256
			c-16.4274-7.2198-25.6964-17.1781-26.2391-28.1361c-0.1454-0.4475-0.2241-0.9247-0.2241-1.4205v-99.9382
			c0-2.5349,2.0549-4.5898,4.5898-4.5898h0.21c1.2382,0,2.4235,0.5,3.2876,1.3868c0.8637,0.8867,1.3329,2.0852,1.3005,3.3223
			l-0.0096,0.291c0,7.3737,7.5732,14.939,20.7783,20.7426c14.5991,6.4165,34.1102,9.9498,54.9393,9.9498
			c20.829,0,40.3402-3.5333,54.9392-9.9498c13.2047-5.8036,20.7783-13.3689,20.7783-20.7556l-0.0097-0.278
			c-0.0324-1.2371,0.4369-2.4355,1.3006-3.3223c0.864-0.8868,2.0494-1.3868,3.2875-1.3868h0.2096
			c2.5349,0,4.5898,2.0549,4.5898,4.5898v99.9382c0,0.4951-0.0786,0.9723-0.2234,1.4192
			c-0.543,10.958-9.812,20.9176-26.2394,28.1375C657.1197,1627.7983,636.2969,1631.6075,614.2243,1631.6075z M538.3082,1589.953
			c0.1496,0.4779,0.2217,0.9813,0.2083,1.4916l-0.0096,0.291c0,7.3737,7.5736,14.939,20.7783,20.7424
			c14.5991,6.4165,34.1099,9.95,54.9393,9.95s40.3402-3.5334,54.9392-9.95c13.2047-5.8035,20.7783-13.3688,20.7783-20.7562
			l-0.0097-0.2772c-0.0134-0.5095,0.0583-1.0129,0.2079-1.4908v-79.8792c-4.3116,4.0479-10.1161,7.7191-17.2832,10.8691
			c-15.7372,6.9165-36.5599,10.7257-58.6326,10.7257c-22.0727,0-42.8954-3.8092-58.6326-10.7257
			c-7.1671-3.15-12.9719-6.8213-17.2835-10.8698V1589.953z"/>
		<path class="st9" d="M613.8277,1527.0796v-0.0022c-44.1697-0.0941-79.9109-15.8585-79.9109-35.2935
			c0-0.1326,0.0081-0.2643,0.0114-0.3965h-0.2097v99.9381h0.2097c-0.0034,0.1323-0.0114,0.264-0.0114,0.3966
			c0,19.4349,35.7411,35.1992,79.9109,35.2933v0.0023h210.9806v-99.9382H613.8277z"/>
		<path class="st5" d="M824.8084,1631.6075H613.8278c-0.0503,0-0.1003-0.0006-0.1506-0.0027
			c-21.9365-0.0627-42.6086-3.8914-58.2223-10.7843c-16.3395-7.2136-25.5602-17.1511-26.1022-28.0747
			c-0.1454-0.4475-0.2241-0.9247-0.2241-1.4205v-99.9382c0-2.5349,2.0549-4.5898,4.5898-4.5898h0.21
			c1.2382,0,2.4235,0.5,3.2876,1.3868c0.8637,0.8867,1.3329,2.0852,1.3005,3.3223l-0.0096,0.291
			c0,7.3468,7.5287,14.8921,20.6555,20.6874c14.5111,6.4061,33.9285,9.9589,54.6755,10.0029c0.0431,0,0.0862,0.0007,0.1293,0.0021
			h210.8414c2.5349,0,4.5898,2.0549,4.5898,4.5898v99.9382C829.3983,1629.5526,827.3433,1631.6075,824.8084,1631.6075z
			 M613.967,1622.428h206.2516v-90.7585H613.8278c-0.0503,0-0.1006-0.0007-0.1506-0.0028
			c-21.9361-0.0627-42.6082-3.8912-58.222-10.7843c-7.104-3.1361-12.8627-6.7875-17.147-10.8104v79.8811
			c0.1496,0.4779,0.2217,0.9813,0.2083,1.4916l-0.0096,0.291c0,7.3468,7.5287,14.8914,20.6555,20.6873
			c14.5111,6.4062,33.9285,9.9589,54.6755,10.0031C613.8809,1622.4259,613.924,1622.4266,613.967,1622.428z"/>
		<path class="st5" d="M778.8051,1631.6075c-2.5349,0-4.5898-2.0549-4.5898-4.5897v-48.3828c0-2.5348,2.0549-4.5898,4.5898-4.5898
			c2.5349,0,4.5898,2.0551,4.5898,4.5898v48.3828C783.3949,1629.5526,781.34,1631.6075,778.8051,1631.6075z"/>
		<path class="st5" d="M694.7299,1631.6075c-2.5349,0-4.5898-2.0549-4.5898-4.5897v-48.3828c0-2.5348,2.0549-4.5898,4.5898-4.5898
			c2.5349,0,4.5898,2.0551,4.5898,4.5898v48.3828C699.3197,1629.5526,697.2648,1631.6075,694.7299,1631.6075z"/>
		<path class="st5" d="M613.0344,1631.6075c-2.5349,0-4.5898-2.0549-4.5898-4.5897v-48.3828c0-2.5348,2.0549-4.5898,4.5898-4.5898
			c2.5349,0,4.5898,2.0551,4.5898,4.5898v48.3828C617.6243,1629.5526,615.5693,1631.6075,613.0344,1631.6075z"/>
		<path class="st5" d="M557.5132,1620.5033c-2.5349,0-4.5898-2.0549-4.5898-4.5897v-46.7968c0-2.5349,2.0549-4.5898,4.5898-4.5898
			c2.5349,0,4.5898,2.0549,4.5898,4.5898v46.7968C562.103,1618.4484,560.0481,1620.5033,557.5132,1620.5033z"/>
	</g>
	<g>
		<path class="st1" d="M2156.479,1672.507l-1.8147,1.2031c-38.2747,25.3778-88.0232,25.3778-126.2981,0l-1.8145-1.2031V1505.155
			c0-35.8784,29.0852-64.9635,64.9636-64.9635l0,0c35.8784,0,64.9636,29.0851,64.9636,64.9635V1672.507z"/>
		<path class="st5" d="M2091.5154,1697.3787c-22.8677,0-45.7349-6.6144-65.6857-19.8433l-1.8149-1.2032
			c-1.2819-0.8502-2.0529-2.2866-2.0529-3.8251v-167.3519c0-38.3522,31.2012-69.5533,69.5535-69.5533
			c38.3521,0,69.5535,31.2012,69.5535,69.5533v167.3519c0,1.5385-0.771,2.9749-2.053,3.8251l-1.8142,1.2032
			C2137.25,1690.7643,2114.3823,1697.3787,2091.5154,1697.3787z M2031.1416,1670.0432c36.7087,24.2054,84.0371,24.2054,120.7476,0
			v-164.8881c0-33.2899-27.0837-60.3738-60.3738-60.3738s-60.3738,27.0839-60.3738,60.3738V1670.0432z M2156.479,1672.5071h0.0068
			H2156.479z"/>
		<path class="st6" d="M2155.9492,1608.9556L2155.9492,1608.9556c-41.5986,15.2719-87.2693,15.2719-128.8679,0l0,0v-89.678
			c41.5986,15.2717,87.2693,15.2717,128.8679,0V1608.9556z"/>
		<path class="st5" d="M2091.5154,1624.9856c-22.365,0-44.7301-3.9071-66.0159-11.7214c-1.8068-0.6633-3.0079-2.3838-3.0079-4.3085
			v-89.678c0-1.4999,0.7329-2.9052,1.9625-3.7637c1.2301-0.8572,2.801-1.062,4.2091-0.5448
			c40.5306,14.8783,85.1737,14.8783,125.7042,0c1.4089-0.5172,2.9797-0.3124,4.2092,0.5448
			c1.2295,0.8585,1.9624,2.2638,1.9624,3.7637v89.678c0,1.9247-1.2012,3.6451-3.0078,4.3085
			C2136.2454,1621.0785,2113.8804,1624.9856,2091.5154,1624.9856z M2031.6711,1605.7216c38.7197,13.4481,80.9688,13.4481,119.6885,0
			v-79.9888c-38.833,12.7668-80.8557,12.7668-119.6885,0V1605.7216z M2155.9492,1608.9557h0.0071H2155.9492z"/>
		<ellipse class="st1" cx="2091.5154" cy="1401.1527" rx="21.5368" ry="10.39"/>
		<path class="st5" d="M2091.5154,1416.1323c-14.8948,0-26.1267-6.4399-26.1267-14.9797c0-8.5397,11.2319-14.9796,26.1267-14.9796
			s26.1267,6.4399,26.1267,14.9796C2117.6421,1409.6924,2106.4102,1416.1323,2091.5154,1416.1323z M2091.5154,1395.3525
			c-10.5444,0-16.947,4.0286-16.947,5.8c0,1.7716,6.4026,5.8,16.947,5.8c10.5442,0,16.947-4.0284,16.947-5.8
			C2108.4624,1399.3811,2102.0596,1395.3525,2091.5154,1395.3525z"/>
		<path class="st3" d="M2091.5154,1411.5427c-10.6272,0-19.4502-3.7684-21.2112-8.7233v46.0984
			c12.1221,7.1628,27.0505,7.6859,39.644,1.389l2.7781-1.389v-46.0984C2110.9656,1407.7743,2102.1423,1411.5427,2091.5154,1411.5427
			z"/>
		<path class="st5" d="M2091.3892,1459.2991c-8.1025,0.0007-16.1816-2.1522-23.4202-6.4303
			c-1.3977-0.8254-2.2549-2.328-2.2549-3.9513v-46.0981c0-2.2343,1.6089-4.1437,3.8101-4.5229
			c2.1997-0.3806,4.3567,0.8813,5.1047,2.9858c0.8235,2.3177,7.311,5.6704,16.8865,5.6704s16.063-3.3527,16.8862-5.6704
			c0.749-2.1045,2.8997-3.3665,5.105-2.9858c2.2012,0.3793,3.8098,2.2887,3.8098,4.5229v46.0981
			c0,1.7384-0.9819,3.3273-2.5369,4.1051l-2.7783,1.3894C2105.4731,1457.6758,2098.4214,1459.2991,2091.3892,1459.2991z
			 M2074.8938,1446.1964c10.3691,5.2029,22.5229,5.2435,33.0017,0.0055l0.2415-0.1206v-33.1969
			c-4.4753,2.0638-10.2349,3.2479-16.6216,3.2479c-6.387,0-12.1462-1.1833-16.6216-3.2479V1446.1964z"/>
		<path class="st5" d="M2094.6909,1436.3079c-2.488,0-4.5312-1.9886-4.5864-4.4884c-0.0566-2.5328,1.9507-4.6318,4.4836-4.6898l0,0
			c0.0986-0.0028,9.8989-0.2621,16.3823-2.9473c2.3445-0.9702,5.0276,0.1434,5.9963,2.4839
			c0.9705,2.3418-0.1418,5.027-2.4836,5.9966c-8.0896,3.3506-19.2185,3.6333-19.689,3.6437
			C2094.7598,1436.3073,2094.7253,1436.3079,2094.6909,1436.3079z"/>
		<path class="st5" d="M2121.854,1604.59c-2.2268,0-4.1816-1.6232-4.5305-3.892c-0.3862-2.5052,1.3323-4.8491,3.8374-5.2345
			c11.896-1.8323,22.4194-4.8326,31.2771-8.9176c2.3032-1.0605,5.0291-0.0559,6.0903,2.2452
			c1.062,2.3025,0.0566,5.0291-2.2451,6.0903c-9.6362,4.4443-20.9824,7.6923-33.7251,9.6541
			C2122.3215,1604.572,2122.0857,1604.59,2121.854,1604.59z"/>
		<path class="st5" d="M2098.5408,1606.4926c-0.6841,0-1.073-0.0083-1.1274-0.0096c-2.5342-0.0573-4.5422-2.1584-4.4844-4.6926
			c0.0566-2.499,2.0999-4.4857,4.5864-4.4857c0.0344,0,0.0688,0.0007,0.104,0.0015l0,0c0.0422-0.0015,4.634,0.0917,11.5864-0.4558
			c2.532-0.2035,4.7366,1.6881,4.9358,4.2147c0.1995,2.5266-1.6873,4.7367-4.2146,4.9359
			C2104.4705,1606.4312,2100.4075,1606.4926,2098.5408,1606.4926z"/>
	</g>
	<g>
		<circle class="st9" cx="679.2634" cy="353.9092" r="111.6562"/>
		<path class="st5" d="M679.2634,470.1552c-64.0981,0-116.246-52.1478-116.246-116.246s52.1478-116.246,116.246-116.246
			s116.246,52.1478,116.246,116.246S743.3616,470.1552,679.2634,470.1552z M679.2634,246.8429
			c-59.0367,0-107.0663,48.0297-107.0663,107.0663s48.0297,107.0663,107.0663,107.0663s107.0663-48.0297,107.0663-107.0663
			S738.3,246.8429,679.2634,246.8429z"/>
		<path class="st11" d="M681.5256,242.2831c-14.2288,16.2333-36.0017,32.1376-62.4299,44.1997
			c-12.6872,5.7906-25.3409,10.1889-37.4593,13.2141c-7.4855,13.4534-12.2723,28.6146-13.6265,44.7527
			c22.1027,0.433,49.5586-5.5941,77.166-18.1944c43.043-19.6454,73.773-49.4806,79.5934-74.3334
			C711.519,246.0007,696.9036,242.5894,681.5256,242.2831z"/>
		<path class="st5" d="M570.2821,349.0615c-0.7934,0-1.5781-0.0076-2.3622-0.0231c-1.2681-0.0248-2.4694-0.573-3.3186-1.5154
			c-0.8495-0.942-1.2712-2.1932-1.165-3.4572c1.3829-16.4857,6.1569-32.1642,14.189-46.6002
			c0.6175-1.1099,1.6671-1.9139,2.899-2.2218c12.1896-3.0431,24.5255-7.3957,36.6655-12.9364
			c24.8834-11.357,46.5057-26.6456,60.884-43.0499c0.8926-1.0182,2.2008-1.5805,3.543-1.5633
			c15.6717,0.3124,30.8203,3.6892,45.0248,10.0371c2.0091,0.8978,3.098,3.0948,2.5963,5.237
			c-6.3661,27.1834-38.6145,57.5893-82.1564,77.4622C620.6732,342.4836,593.5101,349.0615,570.2821,349.0615z M584.7094,303.6501
			c-6.0435,11.338-9.9323,23.4863-11.5918,36.1979c21.3038-0.5096,45.9902-6.7406,70.1526-17.7683
			c38.3801-17.5173,68.227-44.2001,75.9823-67.5161c-11.3718-4.5864-23.3621-7.1485-35.7252-7.6302
			c-15.191,16.7384-37.3006,32.2115-62.5263,43.7247C609.0011,296.1355,596.8018,300.5022,584.7094,303.6501z"/>
		<path class="st11" d="M775.2818,296.9029c-12.8027,69.4024-78.8976,122.2758-158.5237,122.2758
			c-10.2094,0-20.1925-0.8793-29.8734-2.541c20.0914,29.5307,53.9686,48.9277,92.3787,48.9277
			c61.666,0,111.6562-49.9903,111.6562-111.6562C790.9196,333.0818,785.2106,313.5905,775.2818,296.9029z"/>
		<path class="st5" d="M679.2634,470.1552c-38.5211,0-74.4739-19.0413-96.1735-50.9359c-1.0357-1.5222-1.0616-3.5165-0.0651-5.0649
			c0.9961-1.5488,2.8224-2.3504,4.6364-2.0405c9.5665,1.6422,19.356,2.4749,29.097,2.4749
			c37.2171,0,73.2634-12.1252,101.4984-34.1416c27.8282-21.6996,46.4771-51.6651,52.5116-84.3769
			c0.3469-1.8802,1.8229-3.3483,3.7048-3.6855c1.8825-0.3372,3.7754,0.5282,4.7532,2.1711
			c10.6526,17.9038,16.2833,38.4276,16.2833,59.3532C795.5094,418.0074,743.3616,470.1552,679.2634,470.1552z M597.2314,422.7144
			c20.2535,24.1341,50.1905,38.2611,82.032,38.2611c59.0367,0,107.0663-48.0297,107.0663-107.0663
			c0-15.1917-3.2203-30.1507-9.3875-43.8784c-8.437,30.0835-26.9517,57.3117-53.0412,77.6552
			c-29.84,23.268-67.8904,36.0824-107.1429,36.0824C610.2454,423.7685,603.7127,423.415,597.2314,422.7144z"/>
		<path class="st9" d="M790.5665,354.174c-46.6043,101.6821-156.7599,101.6821-156.7599,101.6821l0.0202,0.0612
			c13.8817,6.1936,29.2537,9.648,45.4366,9.648c61.5559,0,111.4739-49.8127,111.652-111.3268L790.5665,354.174z"/>
		<path class="st5" d="M679.2634,470.1552c-16.4495,0-32.3656-3.38-47.3066-10.0461c-1.1782-0.5258-2.0808-1.5229-2.4866-2.7476
			c-0.4637-1.3992-0.2375-2.9666,0.6255-4.1616c0.8627-1.195,2.237-1.9336,3.7109-1.9336
			c0.2665-0.0003,27.3465-0.1831,59.5853-12.5303c18.8271-7.2106,35.7211-17.107,50.2122-29.4142
			c18.0762-15.3521,32.4728-34.5498,42.7903-57.0604c0.8761-1.9125,2.941-2.9865,5.0104-2.6l0.3489,0.0648
			c2.1794,0.4048,3.7582,2.3094,3.7516,4.526c-0.0897,30.9785-12.2207,60.0883-34.1581,81.9672
			C739.4048,458.1031,710.2536,470.1552,679.2634,470.1552z M655.5675,458.3476c7.7177,1.7477,15.6371,2.628,23.6959,2.628
			c28.543,0,55.392-11.1001,75.6014-31.2557c14.9379-14.8983,24.9388-33.4348,29.1714-53.6176
			c-9.4913,15.3496-21.0938,28.8694-34.6581,40.3592c-15.3324,12.9875-33.1758,23.4084-53.0343,30.9737
			C680.7822,453.3633,666.528,456.5905,655.5675,458.3476z"/>
	</g>
	<g>
		<polygon class="st6" points="1493.6031,1610.7769 1493.6031,1654.5566 1449.8234,1654.5566 		"/>
		<ellipse class="st9" cx="1294.1226" cy="1476.2599" rx="16.947" ry="47.3104"/>
		<path class="st5" d="M1294.1226,1528.1602c-14.139,0-21.5369-26.1095-21.5369-51.9003c0-25.7909,7.3978-51.9003,21.5369-51.9003
			s21.5369,26.1094,21.5369,51.9003C1315.6594,1502.0507,1308.2616,1528.1602,1294.1226,1528.1602z M1294.1226,1433.5393
			c-4.194,0-12.3572,15.0789-12.3572,42.7206c0,27.6416,8.1632,42.7206,12.3572,42.7206s12.3572-15.079,12.3572-42.7206
			C1306.4797,1448.6182,1298.3165,1433.5393,1294.1226,1433.5393z"/>
		<path class="st11" d="M1443.5762,1428.9495h-149.4536c9.3596,0,16.947,21.1815,16.947,47.3104l0.353,8.1205h182.1805l-0.353-5.757
			C1493.2501,1451.1892,1471.0103,1428.9495,1443.5762,1428.9495z"/>
		<path class="st5" d="M1493.6031,1658.952h-182.1805c-2.5314,0-4.5846-2.0494-4.5897-4.5808l-0.3531-178.1024
			c0-27.6506-8.1632-42.7295-12.3572-42.7295c-2.5349,0-4.5898-2.0549-4.5898-4.5898s2.0549-4.5898,4.5898-4.5898h149.4532
			c29.9214,0,54.2642,24.3428,54.2642,54.2634l0.353,175.7302c0.0028,1.2185-0.48,2.3887-1.3412,3.2513
			C1495.9912,1658.4673,1494.8224,1658.952,1493.6031,1658.952z M1316.0035,1649.7725h173.0009l-0.3441-171.1405
			c0-24.8682-20.2246-45.0927-45.0845-45.0927H1306.896c5.7859,9.8705,8.7634,26.3604,8.7634,42.7206L1316.0035,1649.7725z"/>
		<polygon class="st6" points="1493.2501,1484.0272 1311.0696,1484.0272 1311.4226,1654.3622 1449.8234,1654.3622 
			1493.6031,1611.2887 		"/>
		<path class="st5" d="M1449.8234,1658.952h-138.4008c-2.531,0-4.5846-2.0494-4.5897-4.5802l-0.3531-170.335
			c-0.0023-1.2191,0.48-2.3887,1.3409-3.252c0.861-0.8627,2.0302-1.3474,3.2489-1.3474h182.1805c2.53,0,4.5829,2.0472,4.5898,4.5774
			l0.353,127.2612c0.0034,1.2344-0.491,2.4183-1.3708,3.2844l-43.7799,43.0737
			C1452.1837,1658.479,1451.0281,1658.952,1449.8234,1658.952z M1316.0028,1649.7725h131.9414l41.0636-40.4016l-0.3351-120.7538
			h-173.0037L1316.0028,1649.7725z"/>
		<polygon class="st13" points="1493.6031,1611.1299 1449.4703,1611.1299 1449.4703,1654.3622 		"/>
		<path class="st5" d="M1449.4696,1658.952c-0.5992,0-1.2034-0.1172-1.7777-0.3585c-1.7032-0.7158-2.8114-2.3832-2.8114-4.2313
			v-43.2323c0-2.5348,2.0549-4.5897,4.5898-4.5897h44.1328c1.8654,0,3.5444,1.1288,4.2491,2.8555
			c0.7054,1.7267,0.2952,3.7079-1.0371,5.0132l-44.1328,43.2323C1451.8073,1658.4983,1450.6473,1658.952,1449.4696,1658.952z
			 M1454.0601,1615.7197v27.7209l28.2988-27.7209H1454.0601z"/>
		<path class="st5" d="M1294.1201,1490.7368c-0.6144,0-1.2384-0.1241-1.8373-0.3861c-2.3221-1.0157-3.3813-3.7224-2.3654-6.0448
			c2.6298-6.0111,2.6298-12.9055,0-18.9165c-1.016-2.3225,0.0432-5.0291,2.3654-6.0448c2.3231-1.0165,5.0291,0.0435,6.0448,2.3652
			c3.6527,8.3494,3.6527,17.9261,0,26.2756C1297.5736,1489.7087,1295.8882,1490.7368,1294.1201,1490.7368z"/>
		<g>
			<path class="st5" d="M1383.7799,1558.4521l19.824-21.9861v-8.7311h-48.9269v11.3353h31.5978l-19.7847,22.2915l2.4846,7.3016
				h6.0165c10.9436,0,17.4773,4.2913,17.4773,11.4786c0,6.8175-5.4193,11.5787-13.1785,11.5787
				c-7.4943,0-13.486-3.0573-18.8557-9.621l-1.4026-1.7136l-8.8149,7.8877l1.2006,1.5591
				c4.6815,6.078,13.3005,13.323,27.7727,13.323c14.5446,0,25.5129-10.0226,25.5129-23.3138
				C1404.703,1568.531,1396.9659,1560.7346,1383.7799,1558.4521z"/>
			<polygon class="st5" points="1435.2781,1527.2351 1415.9293,1533.9109 1419.0159,1544.3101 1431.5151,1540.4277 
				1431.5151,1601.9562 1443.5503,1601.9562 1443.5503,1527.2351 			"/>
		</g>
	</g>
</g>
</svg>
