<svg version="1.1" id="Layer_1" xmlns="http://www.w3.org/2000/svg" xmlns:xlink="http://www.w3.org/1999/xlink" x="0px" y="0px"
	 width="100%" viewBox="0 0 827 800" enable-background="new 0 0 827 800" xml:space="preserve">
<path fill="#FEFFFE" opacity="1.000000" stroke="none" 
	d="
M420.000000,1.000000 
	C555.962952,1.000000 691.925964,1.000000 827.944458,1.000000 
	C827.944458,267.557007 827.944458,534.114075 827.944458,801.000000 
	C710.641968,801.000000 593.283630,801.000000 475.509399,800.622437 
	C478.621735,798.905212 482.218628,797.715698 485.643585,796.150085 
	C486.965118,795.545959 487.896301,794.087891 489.348450,792.847900 
	C518.963318,785.981506 547.013550,775.855835 573.916138,762.551575 
	C599.771667,749.765137 623.824707,734.123901 646.279419,716.064270 
	C667.195496,699.242249 686.509338,680.648682 703.912720,660.253296 
	C723.105103,637.761292 739.963867,613.548035 754.098572,587.490417 
	C765.362427,566.725281 775.541687,545.472046 781.532532,522.558960 
	C785.380554,507.841766 788.847412,492.927032 790.997009,477.888123 
	C793.760681,458.553711 795.904785,439.043701 796.744202,419.541656 
	C798.017334,389.962006 795.669312,360.496155 791.138916,331.190094 
	C787.295532,306.328369 781.274658,282.036499 772.086365,258.680298 
	C761.584656,231.985352 747.859192,206.892105 730.779785,183.784485 
	C711.398254,157.562164 689.263794,134.073425 661.704041,116.152519 
	C636.593567,99.824226 609.504700,87.955818 580.631470,80.129066 
	C574.370972,78.432014 568.002258,77.133896 561.683411,75.652016 
	C561.430908,76.097656 561.178467,76.543289 560.926025,76.988922 
	C563.460266,81.011948 566.203430,84.919884 568.493347,89.077492 
	C579.771790,109.554863 590.946960,130.089218 602.125610,150.621445 
	C611.617432,168.055435 618.896423,186.475555 623.841492,205.601929 
	C629.103210,225.953156 633.818298,246.544312 637.028625,267.300354 
	C640.417786,289.213104 642.135071,311.414673 643.823364,333.548004 
	C644.720642,345.311066 644.222473,357.202271 643.919250,369.024445 
	C643.799255,373.704437 645.351807,375.039124 649.885559,375.032684 
	C662.842651,375.014343 669.981567,382.449005 670.003601,395.507538 
	C670.037598,415.669434 670.167847,435.833099 669.924133,455.991974 
	C669.868713,460.575043 671.862549,461.828613 675.737610,461.860962 
	C681.235718,461.906891 686.736023,461.861908 692.231445,462.005310 
	C701.939392,462.258667 709.790894,468.130005 711.531433,477.523956 
	C712.729675,483.991211 713.457153,490.842133 712.683838,497.317200 
	C711.022522,511.227234 705.802124,515.143188 695.044312,517.735596 
	C689.489197,519.074158 683.494019,518.724365 677.691101,518.864441 
	C669.002197,519.074036 670.050049,518.121521 670.025269,526.752686 
	C669.969299,546.247925 670.019958,565.743408 670.019104,585.238831 
	C670.018860,591.924988 667.934631,597.830383 662.333557,601.722534 
	C653.778076,607.667542 638.904968,607.253967 630.324707,601.220032 
	C628.687866,600.068848 627.107483,598.837463 625.021179,597.286255 
	C625.021179,604.255554 624.662476,610.441528 625.101379,616.570435 
	C625.845886,626.966797 617.248352,636.637268 605.102478,636.897278 
	C595.970520,637.092712 587.207214,636.141846 580.028870,627.489136 
	C580.028870,634.546814 580.204102,640.159729 579.986450,645.757385 
	C579.683289,653.554871 576.338684,659.820496 568.611267,662.117371 
	C563.651733,663.591614 558.217712,663.879211 552.986450,663.948303 
	C540.450317,664.113892 533.010681,656.616089 532.996826,644.212952 
	C532.959473,610.720825 532.969421,577.228699 532.962585,543.736572 
	C532.961121,536.738220 532.939453,529.739746 532.987244,522.741699 
	C533.002441,520.519165 532.763428,518.890076 529.854553,518.846802 
	C525.046021,518.775330 520.243164,518.161804 515.436584,518.144409 
	C485.277557,518.034973 455.118195,518.027161 424.989868,517.556396 
	C424.920990,498.431335 424.821198,479.735626 425.207458,461.034485 
	C458.180817,461.059570 490.668213,461.049042 523.155273,461.145264 
	C533.018433,461.174469 532.997375,461.309479 532.991760,451.311005 
	C532.970032,412.492554 532.940063,373.674072 532.964233,334.855621 
	C532.971069,323.821289 540.748840,316.104797 551.823425,315.977417 
	C555.154846,315.939087 558.488342,315.945862 561.819153,316.015076 
	C572.116089,316.228973 579.936401,324.145813 580.037354,334.478912 
	C580.091614,340.036682 580.046997,345.595428 580.046997,352.011841 
	C592.042847,339.892609 605.235229,343.544556 619.302612,346.514313 
	C618.572083,339.761383 618.017944,333.071381 617.098328,326.432007 
	C614.304871,306.264435 612.029419,285.994507 608.329834,265.990540 
	C603.276611,238.668137 594.505005,212.389267 582.515381,187.284851 
	C573.400513,168.199570 561.872192,150.558624 549.218811,133.644424 
	C544.077026,126.771210 538.882446,119.937523 534.083740,113.078461 
	C534.938354,113.144753 535.841248,113.297226 535.844360,113.280991 
	C536.228027,111.234795 536.768311,109.170731 536.718140,107.121803 
	C536.704712,106.571785 534.895996,105.654305 533.888794,105.622681 
	C531.544739,105.549065 529.186890,105.911995 526.545288,105.923523 
	C523.303833,102.630783 520.555847,99.284019 517.364197,96.433998 
	C503.683502,84.217567 489.961121,72.044228 476.067963,60.070950 
	C469.873444,54.732445 463.239624,49.903736 456.999634,44.557911 
	C471.757507,33.929031 487.991821,27.623217 505.409760,24.022001 
	C510.450378,22.979841 515.347534,21.243769 521.153015,19.585079 
	C519.640747,18.769642 519.107239,18.351826 518.503235,18.175030 
	C491.334259,10.222663 463.655792,5.071318 435.412598,2.940699 
	C430.255615,2.551662 425.136566,1.659767 420.000000,1.000000 
z"/>
<path fill="#B3D6B3" opacity="1.000000" stroke="none" 
	d="
M424.958923,517.985779 
	C455.118195,518.027161 485.277557,518.034973 515.436584,518.144409 
	C520.243164,518.161804 525.046021,518.775330 529.854553,518.846802 
	C532.763428,518.890076 533.002441,520.519165 532.987244,522.741699 
	C532.939453,529.739746 532.961121,536.738220 532.962585,543.736572 
	C532.969421,577.228699 532.959473,610.720825 532.996826,644.212952 
	C533.010681,656.616089 540.450317,664.113892 552.986450,663.948303 
	C558.217712,663.879211 563.651733,663.591614 568.611267,662.117371 
	C576.338684,659.820496 579.683289,653.554871 579.986450,645.757385 
	C580.204102,640.159729 580.028870,634.546814 580.028870,627.489136 
	C587.207214,636.141846 595.970520,637.092712 605.102478,636.897278 
	C617.248352,636.637268 625.845886,626.966797 625.101379,616.570435 
	C624.662476,610.441528 625.021179,604.255554 625.021179,597.286255 
	C627.107483,598.837463 628.687866,600.068848 630.324707,601.220032 
	C638.904968,607.253967 653.778076,607.667542 662.333557,601.722534 
	C667.934631,597.830383 670.018860,591.924988 670.019104,585.238831 
	C670.019958,565.743408 669.969299,546.247925 670.025269,526.752686 
	C670.050049,518.121521 669.002197,519.074036 677.691101,518.864441 
	C683.494019,518.724365 689.489197,519.074158 695.044312,517.735596 
	C705.802124,515.143188 711.022522,511.227234 712.683838,497.317200 
	C713.457153,490.842133 712.729675,483.991211 711.531433,477.523956 
	C709.790894,468.130005 701.939392,462.258667 692.231445,462.005310 
	C686.736023,461.861908 681.235718,461.906891 675.737610,461.860962 
	C671.862549,461.828613 669.868713,460.575043 669.924133,455.991974 
	C670.167847,435.833099 670.037598,415.669434 670.003601,395.507538 
	C669.981567,382.449005 662.842651,375.014343 649.885559,375.032684 
	C645.351807,375.039124 643.799255,373.704437 643.919250,369.024445 
	C644.222473,357.202271 644.720642,345.311066 643.823364,333.548004 
	C642.135071,311.414673 640.417786,289.213104 637.028625,267.300354 
	C633.818298,246.544312 629.103210,225.953156 623.841492,205.601929 
	C618.896423,186.475555 611.617432,168.055435 602.125610,150.621445 
	C590.946960,130.089218 579.771790,109.554863 568.493347,89.077492 
	C566.203430,84.919884 563.460266,81.011948 560.926025,76.988922 
	C561.178467,76.543289 561.430908,76.097656 561.683411,75.652016 
	C568.002258,77.133896 574.370972,78.432014 580.631470,80.129066 
	C609.504700,87.955818 636.593567,99.824226 661.704041,116.152519 
	C689.263794,134.073425 711.398254,157.562164 730.779785,183.784485 
	C747.859192,206.892105 761.584656,231.985352 772.086365,258.680298 
	C781.274658,282.036499 787.295532,306.328369 791.138916,331.190094 
	C795.669312,360.496155 798.017334,389.962006 796.744202,419.541656 
	C795.904785,439.043701 793.760681,458.553711 790.997009,477.888123 
	C788.847412,492.927032 785.380554,507.841766 781.532532,522.558960 
	C775.541687,545.472046 765.362427,566.725281 754.098572,587.490417 
	C739.963867,613.548035 723.105103,637.761292 703.912720,660.253296 
	C686.509338,680.648682 667.195496,699.242249 646.279419,716.064270 
	C623.824707,734.123901 599.771667,749.765137 573.916138,762.551575 
	C547.013550,775.855835 518.963318,785.981506 488.922760,792.834229 
	C477.076050,794.841919 465.996033,796.680054 454.921112,798.548645 
	C450.275146,799.332520 445.640045,800.180908 441.000000,801.000000 
	C412.312439,801.000000 383.624878,801.000000 354.191772,800.721802 
	C328.466583,797.042847 303.511597,793.525940 278.768707,785.088501 
	C280.013367,784.198303 280.454468,783.702148 280.999634,783.523315 
	C283.826202,782.596313 286.631195,781.519592 289.531189,780.914124 
	C306.841309,777.299744 323.280945,771.475769 338.210815,761.848999 
	C339.524719,761.001831 340.222809,759.199707 341.579834,757.886230 
	C349.186829,756.201477 353.859161,750.995422 358.795532,745.701538 
	C362.452148,742.197205 365.808258,738.731262 369.477692,735.157104 
	C370.590149,734.069458 371.389282,733.090088 372.473602,731.936401 
	C375.007263,728.269470 377.255737,724.776917 379.829193,721.239868 
	C382.765015,717.796753 385.375885,714.398193 388.157715,710.686462 
	C391.268951,705.416199 394.880341,700.731140 397.020691,695.449890 
	C402.865540,681.027893 408.469208,666.482910 413.458649,651.746277 
	C418.980713,635.436523 420.487213,618.311340 420.774475,601.249878 
	C421.011505,587.171631 419.673218,573.064209 418.901215,558.976929 
	C418.846130,557.971680 417.707947,557.025757 417.058594,555.651245 
	C417.184540,553.145081 417.701416,550.984802 417.402527,548.944092 
	C415.914215,538.782898 414.211365,528.653015 412.499573,517.985779 
	C416.713654,517.985779 420.836304,517.985779 424.958923,517.985779 
z"/>
<path fill="#5A7E71" opacity="1.000000" stroke="none" 
	d="
M1.000001,422.000000 
	C1.000000,405.312439 1.000000,388.624878 1.359540,371.258972 
	C3.103824,357.849518 4.257992,345.088257 5.919685,332.393402 
	C9.781885,302.887421 16.852884,274.141541 28.987995,246.929352 
	C48.964699,202.132858 75.977905,161.952499 109.935379,126.479500 
	C142.561371,92.397392 179.543121,64.162712 221.666168,42.765560 
	C254.527603,26.073002 289.038574,14.166217 325.420868,8.280205 
	C341.959259,5.604580 358.762695,4.566864 375.190918,3.055069 
	C368.359436,7.543587 361.727264,11.680432 355.243530,16.038153 
	C353.515381,17.199656 352.241882,19.037617 350.088928,21.256145 
	C372.959015,27.126074 394.167633,33.836987 414.052734,44.029411 
	C422.435699,48.326252 430.378723,53.481430 438.302277,58.514858 
	C429.103943,69.624840 418.968628,79.715355 411.352722,91.442078 
	C383.113647,134.923508 373.908386,183.132553 378.329803,234.316437 
	C378.608490,237.542404 379.510437,240.714554 380.062317,244.221252 
	C379.312195,249.628891 378.807892,254.760712 377.890625,259.817596 
	C376.346130,268.332062 374.539520,276.798950 372.385712,285.256226 
	C336.501892,285.226593 301.075562,285.226593 265.221771,285.226593 
	C265.221771,282.050598 265.221802,279.582214 265.221771,277.113831 
	C265.221344,237.948715 265.254761,198.783554 265.199951,159.618515 
	C265.183441,147.815292 257.754974,140.284729 245.979416,139.878311 
	C243.149643,139.780655 240.311844,139.778793 237.481445,139.860794 
	C225.766769,140.200119 218.191086,147.773560 217.963287,159.429871 
	C217.861130,164.656723 217.945984,169.887238 217.945984,175.538132 
	C207.390045,167.387238 206.978500,167.247482 194.289871,167.259033 
	C181.097061,167.271042 173.100967,175.207214 173.059128,188.353333 
	C173.039886,194.397919 173.055832,200.442612 173.055832,206.487259 
	C167.309357,200.197739 160.634827,198.085541 152.844284,198.727432 
	C151.353912,198.850220 149.845978,198.759201 148.346146,198.768036 
	C135.686295,198.842514 128.140305,206.355850 128.122406,218.997131 
	C128.093857,239.162949 128.112732,259.328827 128.111603,279.494690 
	C128.111496,281.261536 128.111588,283.028381 128.111588,284.823669 
	C120.134949,285.201538 112.814362,285.221832 105.567665,285.963837 
	C92.963219,287.254456 86.503517,294.192902 85.757668,306.862549 
	C85.484734,311.498718 85.479477,316.178345 85.756683,320.813965 
	C86.557648,334.208099 93.234985,341.093628 106.785431,342.042511 
	C113.688560,342.525909 120.653465,342.127167 128.112152,342.127167 
	C128.112152,345.143402 128.112274,346.932861 128.112137,348.722321 
	C128.110443,369.054810 128.057297,389.387512 128.126877,409.719757 
	C128.166550,421.312714 135.988266,429.035706 147.603485,429.181641 
	C149.678131,429.207703 151.753357,429.185333 153.997787,429.185333 
	C153.997787,431.355621 154.029800,432.678009 153.993179,433.998505 
	C152.810654,476.627716 157.054031,518.720154 164.881561,560.641479 
	C174.737869,613.428101 197.151413,660.777649 225.003220,706.367249 
	C227.625000,710.880493 230.210190,715.040283 232.791718,719.113953 
	C232.788055,719.027832 232.751923,719.196411 232.802765,719.517334 
	C233.518616,720.670654 234.183594,721.503052 234.895721,722.695801 
	C235.663101,724.598145 236.383347,726.140076 237.358597,728.227966 
	C235.432892,728.030945 234.272476,728.024841 233.163773,727.782349 
	C199.700287,720.462891 168.236801,708.160217 139.279800,689.750488 
	C110.631447,671.537048 87.553337,647.529785 67.554916,620.346436 
	C65.623695,617.721375 63.016052,615.569275 61.242893,612.857361 
	C56.742542,605.974182 52.537952,598.897766 48.124153,591.544800 
	C46.018913,587.461426 44.004475,583.731873 41.945816,579.717957 
	C41.585579,578.961365 41.269566,578.489197 40.919807,577.663696 
	C39.290337,574.470886 37.694611,571.631470 36.056541,568.435608 
	C32.001945,558.609741 27.620058,549.277466 24.045082,539.645691 
	C12.173900,507.662018 6.071790,474.414276 2.999685,440.537476 
	C2.438461,434.348755 1.671818,428.178680 1.000001,422.000000 
z"/>
<path fill="#FEFEFE" opacity="1.000000" stroke="none" 
	d="
M1.000001,422.468658 
	C1.671818,428.178680 2.438461,434.348755 2.999685,440.537476 
	C6.071790,474.414276 12.173900,507.662018 24.045082,539.645691 
	C27.620058,549.277466 32.001945,558.609741 36.021408,568.849976 
	C35.858383,573.482300 37.050156,576.544922 40.953560,578.017029 
	C41.269566,578.489197 41.585579,578.961365 41.678516,579.944153 
	C41.680538,584.366882 41.905640,588.278931 42.141644,592.380493 
	C44.683064,592.178894 46.449001,592.038757 48.214943,591.898682 
	C52.537952,598.897766 56.742542,605.974182 61.242893,612.857361 
	C63.016052,615.569275 65.623695,617.721375 67.554916,620.346436 
	C87.553337,647.529785 110.631447,671.537048 139.279800,689.750488 
	C168.236801,708.160217 199.700287,720.462891 233.163773,727.782349 
	C234.272476,728.024841 235.432892,728.030945 237.358597,728.227966 
	C236.383347,726.140076 235.663101,724.598145 234.937347,722.302063 
	C234.205215,720.764099 233.478577,719.980225 232.751923,719.196411 
	C232.751923,719.196411 232.788055,719.027832 232.854584,718.696777 
	C232.633469,716.433594 231.968140,714.470154 232.125000,712.574829 
	C232.732330,705.236877 231.731812,704.229919 224.966629,706.013855 
	C197.151413,660.777649 174.737869,613.428101 164.881561,560.641479 
	C157.054031,518.720154 152.810654,476.627716 153.993179,433.998505 
	C154.029800,432.678009 153.997787,431.355621 153.997787,429.185333 
	C151.753357,429.185333 149.678131,429.207703 147.603485,429.181641 
	C135.988266,429.035706 128.166550,421.312714 128.126877,409.719757 
	C128.057297,389.387512 128.110443,369.054810 128.112137,348.722321 
	C128.112274,346.932861 128.112152,345.143402 128.112152,342.127167 
	C120.653465,342.127167 113.688560,342.525909 106.785431,342.042511 
	C93.234985,341.093628 86.557648,334.208099 85.756683,320.813965 
	C85.479477,316.178345 85.484734,311.498718 85.757668,306.862549 
	C86.503517,294.192902 92.963219,287.254456 105.567665,285.963837 
	C112.814362,285.221832 120.134949,285.201538 128.111588,284.823669 
	C128.111588,283.028381 128.111496,281.261536 128.111603,279.494690 
	C128.112732,259.328827 128.093857,239.162949 128.122406,218.997131 
	C128.140305,206.355850 135.686295,198.842514 148.346146,198.768036 
	C149.845978,198.759201 151.353912,198.850220 152.844284,198.727432 
	C160.634827,198.085541 167.309357,200.197739 173.055832,206.487259 
	C173.055832,200.442612 173.039886,194.397919 173.059128,188.353333 
	C173.100967,175.207214 181.097061,167.271042 194.289871,167.259033 
	C206.978500,167.247482 207.390045,167.387238 217.945984,175.538132 
	C217.945984,169.887238 217.861130,164.656723 217.963287,159.429871 
	C218.191086,147.773560 225.766769,140.200119 237.481445,139.860794 
	C240.311844,139.778793 243.149643,139.780655 245.979416,139.878311 
	C257.754974,140.284729 265.183441,147.815292 265.199951,159.618515 
	C265.254761,198.783554 265.221344,237.948715 265.221771,277.113831 
	C265.221802,279.582214 265.221771,282.050598 265.221771,285.226593 
	C301.075562,285.226593 336.501892,285.226593 372.419800,285.683075 
	C372.605255,292.235901 372.008331,298.334381 372.053589,304.428101 
	C372.148163,317.153137 372.581818,329.875641 372.417664,342.644775 
	C336.538788,342.690369 301.118469,342.690369 265.226410,342.690369 
	C265.226410,345.376434 265.226318,347.337891 265.226410,349.299377 
	C265.228424,388.950928 265.255127,428.602478 265.217560,468.253998 
	C265.206268,480.153473 257.429840,487.936432 245.590408,488.093658 
	C242.758774,488.131256 239.925201,488.135559 237.094116,488.077576 
	C226.237305,487.855255 218.195648,479.947968 217.953491,469.150726 
	C217.831833,463.726135 217.932251,458.296509 217.932251,452.230072 
	C205.695892,463.959167 192.659286,461.828217 179.035538,456.542206 
	C179.291992,459.141632 179.631180,461.765900 179.798691,464.401031 
	C181.873459,497.037964 186.835846,529.204346 195.143433,560.857971 
	C210.557465,619.588684 241.949463,668.797241 284.500061,711.409729 
	C301.851898,728.786865 320.986725,743.973511 341.206909,757.841003 
	C340.222809,759.199707 339.524719,761.001831 338.210815,761.848999 
	C323.280945,771.475769 306.841309,777.299744 289.531189,780.914124 
	C286.631195,781.519592 283.826202,782.596313 280.999634,783.523315 
	C280.454468,783.702148 280.013367,784.198303 278.768707,785.088501 
	C303.511597,793.525940 328.466583,797.042847 353.723114,800.721802 
	C236.403671,801.000000 118.807343,801.000000 1.000000,801.000000 
	C1.000000,674.979187 1.000000,548.958252 1.000001,422.468658 
z"/>
<path fill="#FEFEFE" opacity="1.000000" stroke="none" 
	d="
M375.445892,2.786179 
	C358.762695,4.566864 341.959259,5.604580 325.420868,8.280205 
	C289.038574,14.166217 254.527603,26.073002 221.666168,42.765560 
	C179.543121,64.162712 142.561371,92.397392 109.935379,126.479500 
	C75.977905,161.952499 48.964699,202.132858 28.987995,246.929352 
	C16.852884,274.141541 9.781885,302.887421 5.919685,332.393402 
	C4.257992,345.088257 3.103824,357.849518 1.359540,370.790314 
	C1.000000,247.738525 1.000000,124.477051 1.000000,1.000000 
	C127.687477,1.000000 254.375076,1.000000 381.373413,1.372566 
	C379.569580,2.102134 377.455048,2.459135 375.372498,2.828490 
	C375.404480,2.840845 375.445892,2.786178 375.445892,2.786179 
z"/>
<path fill="#5B7F72" opacity="1.000000" stroke="none" 
	d="
M375.340485,2.816137 
	C377.455048,2.459135 379.569580,2.102134 381.842072,1.372566 
	C394.354218,1.000000 406.708466,1.000000 419.531342,1.000000 
	C425.136566,1.659767 430.255615,2.551662 435.412598,2.940699 
	C463.655792,5.071318 491.334259,10.222663 518.503235,18.175030 
	C519.107239,18.351826 519.640747,18.769642 521.153015,19.585079 
	C515.347534,21.243769 510.450378,22.979841 505.409760,24.022001 
	C487.991821,27.623217 471.757507,33.929031 456.646912,44.544281 
	C455.194977,44.481415 454.191132,44.299950 453.399811,43.789188 
	C428.608795,27.787775 402.476288,14.347461 375.340485,2.816137 
z"/>
<path fill="#F2FBF1" opacity="1.000000" stroke="none" 
	d="
M441.468658,801.000000 
	C445.640045,800.180908 450.275146,799.332520 454.921112,798.548645 
	C465.996033,796.680054 477.076050,794.841919 488.579712,793.005249 
	C487.896301,794.087891 486.965118,795.545959 485.643585,796.150085 
	C482.218628,797.715698 478.621735,798.905212 475.046753,800.622437 
	C463.979095,801.000000 452.958221,801.000000 441.468658,801.000000 
z"/>
<path fill="#B2D6B2" opacity="1.000000" stroke="none" 
	d="
M375.372498,2.828492 
	C402.476288,14.347461 428.608795,27.787775 453.399811,43.789188 
	C454.191132,44.299950 455.194977,44.481415 456.452454,44.830021 
	C463.239624,49.903736 469.873444,54.732445 476.067963,60.070950 
	C489.961121,72.044228 503.683502,84.217567 517.364197,96.433998 
	C520.555847,99.284019 523.303833,102.630783 526.637573,106.249573 
	C529.250122,108.862053 531.480957,110.973953 533.711853,113.085854 
	C538.882446,119.937523 544.077026,126.771210 549.218811,133.644424 
	C561.872192,150.558624 573.400513,168.199570 582.515381,187.284851 
	C594.505005,212.389267 603.276611,238.668137 608.329834,265.990540 
	C612.029419,285.994507 614.304871,306.264435 617.098328,326.432007 
	C618.017944,333.071381 618.572083,339.761383 619.302612,346.514313 
	C605.235229,343.544556 592.042847,339.892609 580.046997,352.011841 
	C580.046997,345.595428 580.091614,340.036682 580.037354,334.478912 
	C579.936401,324.145813 572.116089,316.228973 561.819153,316.015076 
	C558.488342,315.945862 555.154846,315.939087 551.823425,315.977417 
	C540.748840,316.104797 532.971069,323.821289 532.964233,334.855621 
	C532.940063,373.674072 532.970032,412.492554 532.991760,451.311005 
	C532.997375,461.309479 533.018433,461.174469 523.155273,461.145264 
	C490.668213,461.049042 458.180817,461.059570 424.760803,461.050507 
	C415.399200,461.071899 406.970398,461.071899 398.559235,461.071899 
	C395.682831,449.775787 392.720978,439.244293 390.345337,428.582153 
	C385.630188,407.419952 381.162292,386.201508 376.754150,364.972687 
	C375.216125,357.565796 374.155090,350.059875 372.876190,342.599182 
	C372.581818,329.875641 372.148163,317.153137 372.053589,304.428101 
	C372.008331,298.334381 372.605255,292.235901 372.877258,285.712708 
	C374.539520,276.798950 376.346130,268.332062 377.890625,259.817596 
	C378.807892,254.760712 379.312195,249.628891 380.373352,244.091888 
	C384.742737,235.562531 388.276337,227.198715 392.839813,219.440704 
	C401.302551,205.053925 409.172241,190.070404 419.498077,177.093201 
	C431.126617,162.478867 444.745697,149.331161 458.358154,136.453720 
	C467.472839,127.831245 477.877106,120.503166 488.098511,113.143410 
	C495.007141,108.168983 495.622314,107.334358 489.534363,101.262169 
	C479.914215,91.666908 470.409698,81.900665 460.153931,73.017601 
	C453.597351,67.338623 445.776031,63.119854 438.521729,58.246441 
	C430.378723,53.481430 422.435699,48.326252 414.052734,44.029411 
	C394.167633,33.836987 372.959015,27.126074 350.088928,21.256145 
	C352.241882,19.037617 353.515381,17.199656 355.243530,16.038153 
	C361.727264,11.680432 368.359436,7.543587 375.190918,3.055068 
	C375.445892,2.786178 375.404480,2.840845 375.372498,2.828492 
z"/>
<path fill="#597D71" opacity="1.000000" stroke="none" 
	d="
M372.417664,342.644775 
	C374.155090,350.059875 375.216125,357.565796 376.754150,364.972687 
	C381.162292,386.201508 385.630188,407.419952 390.345337,428.582153 
	C392.720978,439.244293 395.682831,449.775787 398.559235,461.071899 
	C406.970398,461.071899 415.399200,461.071899 424.274689,461.055908 
	C424.821198,479.735626 424.920990,498.431335 424.989868,517.556396 
	C420.836304,517.985779 416.713654,517.985779 412.499573,517.985779 
	C414.211365,528.653015 415.914215,538.782898 417.402527,548.944092 
	C417.701416,550.984802 417.184540,553.145081 416.965363,556.012939 
	C396.633881,617.356079 355.080841,660.660706 303.195831,695.933899 
	C319.089081,715.951233 337.486420,732.283264 358.494995,745.739929 
	C353.859161,750.995422 349.186829,756.201477 341.579803,757.886230 
	C320.986725,743.973511 301.851898,728.786865 284.500061,711.409729 
	C241.949463,668.797241 210.557465,619.588684 195.143433,560.857971 
	C186.835846,529.204346 181.873459,497.037964 179.798691,464.401031 
	C179.631180,461.765900 179.291992,459.141632 179.035538,456.542206 
	C192.659286,461.828217 205.695892,463.959167 217.932251,452.230072 
	C217.932251,458.296509 217.831833,463.726135 217.953491,469.150726 
	C218.195648,479.947968 226.237305,487.855255 237.094116,488.077576 
	C239.925201,488.135559 242.758774,488.131256 245.590408,488.093658 
	C257.429840,487.936432 265.206268,480.153473 265.217560,468.253998 
	C265.255127,428.602478 265.228424,388.950928 265.226410,349.299377 
	C265.226318,347.337891 265.226410,345.376434 265.226410,342.690369 
	C301.118469,342.690369 336.538788,342.690369 372.417664,342.644775 
z"/>
<path fill="#F2FBF0" opacity="1.000000" stroke="none" 
	d="
M534.083740,113.078461 
	C531.480957,110.973953 529.250122,108.862053 526.926941,106.424103 
	C529.186890,105.911995 531.544739,105.549065 533.888794,105.622681 
	C534.895996,105.654305 536.704712,106.571785 536.718140,107.121803 
	C536.768311,109.170731 536.228027,111.234795 535.844360,113.280991 
	C535.841248,113.297226 534.938354,113.144753 534.083740,113.078461 
z"/>
<path fill="#FCFDFD" opacity="1.000000" stroke="none" 
	d="
M358.795532,745.701538 
	C337.486420,732.283264 319.089081,715.951233 303.195831,695.933899 
	C355.080841,660.660706 396.633881,617.356079 416.980164,556.413940 
	C417.707947,557.025757 418.846130,557.971680 418.901215,558.976929 
	C419.673218,573.064209 421.011505,587.171631 420.774475,601.249878 
	C420.487213,618.311340 418.980713,635.436523 413.458649,651.746277 
	C408.469208,666.482910 402.865540,681.027893 397.020691,695.449890 
	C394.880341,700.731140 391.268951,705.416199 387.789581,710.692505 
	C385.425781,711.947937 383.020081,712.450378 381.918121,713.926270 
	C380.417145,715.936584 376.188446,717.556396 379.504211,721.284363 
	C377.255737,724.776917 375.007263,728.269470 372.072052,731.906982 
	C370.644989,733.123108 369.904663,734.194214 369.164368,735.265320 
	C365.808258,738.731262 362.452148,742.197205 358.795532,745.701538 
z"/>
<path fill="#EEFAEE" opacity="1.000000" stroke="none" 
	d="
M379.829163,721.239868 
	C376.188446,717.556396 380.417145,715.936584 381.918121,713.926270 
	C383.020081,712.450378 385.425781,711.947937 387.618622,711.005615 
	C385.375885,714.398193 382.765015,717.796753 379.829163,721.239868 
z"/>
<path fill="#EEFAEE" opacity="1.000000" stroke="none" 
	d="
M369.477722,735.157104 
	C369.904663,734.194214 370.644989,733.123108 371.786865,732.081360 
	C371.389282,733.090088 370.590149,734.069458 369.477722,735.157104 
z"/>
<path fill="#FCFDFD" opacity="1.000000" stroke="none" 
	d="
M438.302277,58.514858 
	C445.776031,63.119854 453.597351,67.338623 460.153931,73.017601 
	C470.409698,81.900665 479.914215,91.666908 489.534363,101.262169 
	C495.622314,107.334358 495.007141,108.168983 488.098511,113.143410 
	C477.877106,120.503166 467.472839,127.831245 458.358154,136.453720 
	C444.745697,149.331161 431.126617,162.478867 419.498077,177.093201 
	C409.172241,190.070404 401.302551,205.053925 392.839813,219.440704 
	C388.276337,227.198715 384.742737,235.562531 380.433472,243.782379 
	C379.510437,240.714554 378.608490,237.542404 378.329803,234.316437 
	C373.908386,183.132553 383.113647,134.923508 411.352722,91.442078 
	C418.968628,79.715355 429.103943,69.624840 438.302277,58.514858 
z"/>
<path fill="#ECF5F2" opacity="1.000000" stroke="none" 
	d="
M225.003220,706.367249 
	C231.731812,704.229919 232.732330,705.236877 232.125000,712.574829 
	C231.968140,714.470154 232.633469,716.433594 232.858246,718.782898 
	C230.210190,715.040283 227.625000,710.880493 225.003220,706.367249 
z"/>
<path fill="#EBF3F1" opacity="1.000000" stroke="none" 
	d="
M48.124146,591.544800 
	C46.449001,592.038757 44.683064,592.178894 42.141644,592.380493 
	C41.905640,588.278931 41.680538,584.366882 41.722736,580.228577 
	C44.004475,583.731873 46.018913,587.461426 48.124146,591.544800 
z"/>
<path fill="#EBF3F1" opacity="1.000000" stroke="none" 
	d="
M40.919815,577.663696 
	C37.050156,576.544922 35.858383,573.482300 36.063751,569.206421 
	C37.694611,571.631470 39.290337,574.470886 40.919815,577.663696 
z"/>
<path fill="#ECF5F2" opacity="1.000000" stroke="none" 
	d="
M232.802765,719.517334 
	C233.478577,719.980225 234.205215,720.764099 234.890213,721.941650 
	C234.183594,721.503052 233.518616,720.670654 232.802765,719.517334 
z"/>
</svg>