<?xml version="1.0" encoding="utf-8"?>
<!-- Generator: Adobe Illustrator 18.0.0, SVG Export Plug-In . SVG Version: 6.00 Build 0)  -->
<!DOCTYPE svg PUBLIC "-//W3C//DTD SVG 1.1//EN" "http://www.w3.org/Graphics/SVG/1.1/DTD/svg11.dtd">
<svg version="1.1" id="Layer_1" xmlns="http://www.w3.org/2000/svg" xmlns:xlink="http://www.w3.org/1999/xlink" x="0px" y="0px"
	 width="841.9px" height="595.3px" viewBox="0 0 841.9 595.3" enable-background="new 0 0 841.9 595.3" xml:space="preserve">
<g>
	<g>
		<path fill="none" stroke="#3C444F" stroke-width="5" stroke-miterlimit="10" d="M610.4,155.5"/>
		<path fill="#3C444F" d="M670.7,55.3h-54.3c-5,0-9.1,4.1-9.1,9.1v97.8c0,5,4.1,9.1,9.1,9.1h54.3c5,0,9.1-4.1,9.1-9.1V64.3
			C679.8,59.3,675.7,55.3,670.7,55.3z M616.4,61.3h54.3c1.7,0,3,1.4,3,3v3.6h-60.4v-3.6C613.4,62.6,614.7,61.3,616.4,61.3z
			 M673.8,74v78.5h-60.4V74H673.8z M670.7,165.1h-54.3c-1.7,0-3-1.4-3-3v-3.6h60.4v3.6C673.8,163.8,672.4,165.1,670.7,165.1z"/>
		<path fill="#00B6DE" d="M648.4,128.3c-4.9,0-6.2-6.4-7.8-14.5c-0.5-2.3-1.2-5.8-1.9-8c-0.7,2.2-1.4,5.6-1.9,8
			c-1.6,8.1-2.9,14.5-7.8,14.5c-4.5,0-5.9-6-6.7-9.2c-0.4-1.7-1.9-2.9-3.7-2.9h-0.3v-6h0.3c4.6,0,8.5,3.1,9.5,7.5
			c0.3,1.3,0.6,2.2,0.8,2.9c0.7-2.2,1.4-5.6,1.9-8c1.6-8.1,2.9-14.5,7.8-14.5c4.9,0,6.2,6.4,7.8,14.5c0.5,2.3,1.2,5.8,1.9,8
			c0.7-2.2,1.4-5.6,1.9-8c1.6-8.1,2.9-14.5,7.8-14.5c4.5,0,5.9,6,6.7,9.2c0.4,1.7,1.9,2.9,3.7,2.9v6c-4.6,0-8.5-3.1-9.5-7.5
			c-0.3-1.3-0.6-2.2-0.8-2.9c-0.7,2.2-1.4,5.6-1.9,8C654.6,121.9,653.3,128.3,648.4,128.3z"/>
	</g>
	<g>
		<path fill="none" stroke="#3C444F" stroke-width="5" stroke-miterlimit="10" d="M382.4,70.7"/>
		<path fill="none" stroke="#3C444F" stroke-width="5" stroke-miterlimit="10" d="M382.4,155.2"/>
		<path fill="#00B6DE" d="M420.4,128c-4.9,0-6.2-6.4-7.8-14.5c-0.5-2.3-1.2-5.8-1.9-8c-0.7,2.2-1.4,5.6-1.9,8
			c-1.6,8.1-2.9,14.5-7.8,14.5c-4.5,0-5.9-6-6.7-9.2c-0.4-1.7-1.9-2.9-3.7-2.9h-0.3v-6h0.3c4.6,0,8.5,3.1,9.5,7.5
			c0.3,1.3,0.6,2.2,0.8,2.9c0.7-2.2,1.4-5.6,1.9-8c1.6-8.1,2.9-14.5,7.8-14.5c4.9,0,6.2,6.4,7.8,14.5c0.5,2.3,1.2,5.8,1.9,8
			c0.7-2.2,1.4-5.6,1.9-8c1.6-8.1,2.9-14.5,7.8-14.5c4.5,0,5.9,6,6.7,9.2c0.4,1.7,1.9,2.9,3.7,2.9v6c-4.6,0-8.5-3.1-9.5-7.5
			c-0.3-1.3-0.6-2.2-0.8-2.9c-0.7,2.2-1.4,5.6-1.9,8C426.6,121.6,425.3,128,420.4,128z"/>
		<g>
			<path fill="#3C444F" d="M454.8,101.9h-3V85.8c0-4.2-2.9-7.7-6.8-8.7l-3.7-15.2c-1-4.1-4.6-6.9-8.8-6.9h-33.9
				c-4.2,0-7.8,2.8-8.8,6.9L386.1,77c-3.9,1-6.8,4.6-6.8,8.7v54.3c0,4.1,2.8,7.6,6.6,8.7l3.9,15.8c1,4.1,4.6,6.9,8.8,6.9h33.9
				c4.2,0,7.8-2.8,8.8-6.9l3.9-15.8c3.8-1.1,6.6-4.6,6.6-8.7V124h3c3.7,0,6.6-3,6.6-6.6v-8.9C461.4,104.8,458.5,101.9,454.8,101.9z
				 M398.6,61h33.9c1.4,0,2.6,0.9,2.9,2.3l3.3,13.4h-46.3l3.3-13.4C396,62,397.2,61,398.6,61z M432.5,165.4h-33.9
				c-1.4,0-2.6-0.9-2.9-2.3l-3.4-14h46.6l-3.4,14C435.1,164.5,433.9,165.4,432.5,165.4z M445.7,140.1c0,1.7-1.4,3-3,3h-54.3
				c-1.7,0-3-1.4-3-3V85.8c0-1.7,1.4-3,3-3h54.3c1.7,0,3,1.4,3,3V140.1z M455.4,117.4c0,0.3-0.3,0.6-0.6,0.6h-3v-10.1h3
				c0.3,0,0.6,0.3,0.6,0.6V117.4z"/>
			<circle fill="#3C444F" cx="415.4" cy="69.1" r="3"/>
		</g>
	</g>
	<g>
		<path fill="#3C444F" d="M230,86.9c0.5-0.4,0.9-0.8,1.4-1.3c6.9-6.9,9.6-17,7.1-26.5l-0.4-1.7l-1.7-0.4c-2.3-0.6-4.7-0.9-7.1-0.9
			c-7.3,0-14.2,2.8-19.4,8c-2.6,2.6-4.6,5.7-6,9.1c-3.3-5.1-8.3-8.8-14.2-10.4l-1.6,5.8c4.8,1.3,8.8,4.4,11.3,8.7
			c2,3.4,2.8,7.3,2.4,11.2c-3.6-0.1-7.3-0.5-10.9-1.2c-2.3-0.4-4.7-0.6-7.2-0.6c-18.2,0-30,12.7-30,32.3c0,2.7,0.2,5.5,0.5,8.2
			l6-0.8c-0.3-2.4-0.5-4.9-0.5-7.4c0-12.7,6.3-26.3,24-26.3c2.2,0,4.2,0.2,6.1,0.5c9.7,1.9,19.6,1.9,29.4,0c1.9-0.4,3.9-0.5,6.1-0.5
			c17.7,0,24,13.6,24,26.3c0,28.2-20.2,45.5-31.3,45.5c-1.8,0-3.6-0.3-5.3-0.9c-5.3-1.9-11.1-1.9-16.4,0c-1.7,0.6-3.5,0.9-5.3,0.9
			c-5.8,0-13.4-4.6-19.3-11.7l-4.6,3.9c7.2,8.6,16.3,13.9,23.9,13.9c2.5,0,4.9-0.4,7.3-1.2c4-1.4,8.4-1.4,12.4,0
			c2.3,0.8,4.8,1.2,7.3,1.2c14.9,0,37.3-20.6,37.3-51.5C255.2,101,245.4,88.9,230,86.9z M214.1,68.3c4-4,9.4-6.3,15.1-6.3
			c1.3,0,2.6,0.1,3.8,0.3c1.2,6.9-1,14-5.9,18.9c-4,4-9.4,6.3-15.1,6.3c0,0,0,0,0,0c-1.3,0-2.6-0.1-3.8-0.3
			C207,80.4,209.2,73.3,214.1,68.3z"/>
		<path fill="#00B6DE" d="M149.1,123.8c-2.1,0-3.8-1.7-3.8-3.8c0-2.1,1.7-3.8,3.8-3.8h4.6c0.1-2.1,0.4-4.1,0.8-6h-5.3
			c-5.4,0-9.8,4.4-9.8,9.8v27.6c0,5.4,4.4,9.8,9.8,9.8h58.3v-33.6H149.1z M201.4,151.4h-52.3c-2.1,0-3.8-1.7-3.8-3.8v-18.5
			c1.2,0.5,2.5,0.8,3.8,0.8h4.5v6.3h6v-6.3h10.1v6.3h6v-6.3h10.1v6.3h6v-6.3h9.5V151.4z"/>
	</g>
	<g>
		<g>
			<path fill="#3C444F" d="M253.1,249.3c-0.8-3.3-3.4-5.9-6.6-6.9c-13.8-4.1-27.8-6.2-41.6-6.2c-13.8,0-27.8,2.1-41.6,6.2
				c-3.3,1-5.8,3.6-6.6,6.9c-7.7,29.8-7.7,60,0,89.8c0.8,3.3,3.4,5.9,6.6,6.9c13.8,4.1,27.8,6.2,41.6,6.2c13.8,0,27.8-2.1,41.6-6.2
				c3.3-1,5.8-3.6,6.6-6.9C260.8,309.3,260.8,279.1,253.1,249.3z M247.3,337.6c-0.3,1.3-1.3,2.3-2.5,2.6
				c-13.2,3.9-26.7,5.9-39.9,5.9c-13.2,0-26.7-2-39.9-5.9c-1.2-0.4-2.2-1.4-2.5-2.6c-7.4-28.8-7.4-58,0-86.8
				c0.3-1.3,1.3-2.3,2.5-2.6c13.2-3.9,26.7-5.9,39.9-5.9c13.2,0,26.7,2,39.9,5.9c1.2,0.4,2.2,1.4,2.5,2.6
				C254.7,279.6,254.7,308.8,247.3,337.6z"/>
			<path fill="#3C444F" d="M221.2,249h-32.8c-3.9,0-7.1,3.2-7.1,7.1v12.3c0,3.9,3.2,7.1,7.1,7.1h32.8c3.9,0,7.1-3.2,7.1-7.1v-12.3
				C228.3,252.2,225.1,249,221.2,249z M222.3,268.4c0,0.6-0.5,1.1-1.1,1.1h-32.8c-0.6,0-1.1-0.5-1.1-1.1v-12.3
				c0-0.6,0.5-1.1,1.1-1.1h14.3l2.1,7.2l2.1-7.2h14.3c0.6,0,1.1,0.5,1.1,1.1V268.4z"/>
		</g>
		<g>
			<g>
				<circle fill="#00B6DE" cx="182" cy="296" r="3"/>
				<circle fill="#00B6DE" cx="197.2" cy="296" r="3"/>
				<circle fill="#00B6DE" cx="212.4" cy="296" r="3"/>
				<circle fill="#00B6DE" cx="227.7" cy="296" r="3"/>
			</g>
			<g>
				<circle fill="#00B6DE" cx="182" cy="312.3" r="3"/>
				<circle fill="#00B6DE" cx="197.2" cy="312.3" r="3"/>
				<circle fill="#00B6DE" cx="212.4" cy="312.3" r="3"/>
				<circle fill="#00B6DE" cx="227.7" cy="312.3" r="3"/>
			</g>
			<g>
				<circle fill="#00B6DE" cx="182" cy="328.6" r="3"/>
				<circle fill="#00B6DE" cx="197.2" cy="328.6" r="3"/>
				<circle fill="#00B6DE" cx="212.4" cy="328.6" r="3"/>
				<circle fill="#00B6DE" cx="227.7" cy="328.6" r="3"/>
			</g>
		</g>
	</g>
	<g>
		<g>
			<path fill="#3C444F" d="M462.4,289c-1.4-3.4-2.7-6.6-3.6-9.7c-5.9-19.2,3.3-38.6,3.4-38.8l-5.4-2.6c-0.4,0.9-10.4,21.7-3.7,43.2
				c1,3.3,2.4,6.6,3.8,10.1c1.4,3.4,2.8,6.8,4,10.5c-24.3,3.5-48.9,3.5-73.2,0c1.2-3.7,2.6-7.1,4-10.5c1.4-3.5,2.8-6.8,3.8-10.1
				c6.7-21.5-3.3-42.3-3.7-43.2l-5.4,2.6c0.1,0.2,9.3,19.6,3.4,38.8c-1,3.1-2.2,6.3-3.6,9.7c-6,14.9-13.5,33.4,0.3,61.5l5.4-2.7
				c-5.6-11.4-7.4-20.9-7.1-29.3c7.3,3,23.8,10.5,36.7,22.1v8.5h6v-8.5c12.8-11.6,29.4-19.1,36.7-22.1c0.2,8.4-1.6,17.9-7.1,29.3
				l5.4,2.7C475.9,322.4,468.4,303.9,462.4,289z M424.2,335.2c-14.6-12.8-32.8-20.5-39.1-23c0.2-1.6,0.5-3.1,0.9-4.6
				c12.7,1.9,25.5,2.8,38.2,2.8c12.8,0,25.5-0.9,38.2-2.8c0.3,1.5,0.6,3,0.9,4.6C457,314.7,438.8,322.4,424.2,335.2z"/>
			<circle fill="#3C444F" cx="424.2" cy="294.2" r="3"/>
		</g>
		<g>
			<polygon fill="#00B6DE" points="479.1,265.4 469.9,265.4 472.9,262.4 468.6,258.1 458.3,268.4 468.6,278.7 472.9,274.4 
				469.9,271.4 479.1,271.4 			"/>
			<polygon fill="#00B6DE" points="375.5,262.4 378.5,265.4 369.3,265.4 369.3,271.4 378.5,271.4 375.5,274.4 379.8,278.7 
				390.1,268.4 379.8,258.1 			"/>
		</g>
	</g>
	<g>
		<g>
			<path fill="#00B6DE" d="M679.9,244.7l-5.7-2c1-3,1.9-4.7,1.9-4.8l5.4,2.6l-2.7-1.3l2.7,1.3C681.5,240.6,680.8,242.1,679.9,244.7z
				"/>
			<path fill="#00B6DE" d="M676.9,293l-0.7-1.7c-0.8-2.1-1.6-4-2.4-6l5.7-2.1c0.7,1.9,1.5,3.8,2.3,5.9l0.7,1.8L676.9,293z
				 M671.3,276.9c-0.6-2.8-1-5.7-1.1-8.7l6-0.3c0.1,2.6,0.5,5.2,1,7.7L671.3,276.9z M676.4,260.1l-6-0.6c0.3-2.8,0.7-5.7,1.4-8.5
				l5.9,1.3C677.1,254.9,676.7,257.5,676.4,260.1z"/>
			<path fill="#00B6DE" d="M681.1,305c-0.4-1.4-0.8-2.9-1.4-4.4l5.7-1.9c0.6,1.7,1.1,3.2,1.5,4.8L681.1,305z"/>
		</g>
		<g>
			<path fill="#00B6DE" d="M607.3,244.7c-0.9-2.6-1.7-4.1-1.7-4.2l5.4-2.6c0,0.1,0.9,1.8,1.9,4.8L607.3,244.7z"/>
			<path fill="#00B6DE" d="M610.2,293l-5.6-2.3l0.7-1.8c0.8-2,1.6-4,2.3-5.9l5.7,2.1c-0.7,2-1.5,3.9-2.4,6L610.2,293z M615.8,276.9
				l-5.9-1.3c0.5-2.5,0.9-5.1,1-7.7l6,0.3C616.8,271.2,616.4,274.1,615.8,276.9z M610.7,260.1c-0.2-2.6-0.7-5.2-1.3-7.8l5.9-1.3
				c0.6,2.9,1.1,5.7,1.4,8.5L610.7,260.1z"/>
			<path fill="#00B6DE" d="M606,305l-5.8-1.6c0.4-1.5,0.9-3.1,1.5-4.8l5.7,1.9C606.8,302.2,606.4,303.6,606,305z"/>
		</g>
		<g>
			<circle fill="#3C444F" cx="643.6" cy="294.2" r="3"/>
			<path fill="#3C444F" d="M687,303.6c-3.7-15.9-4.9-26.7-0.9-64l-6-0.6c-3.8,35.5-2.9,48.1,0.3,62.8c-24.5,3.6-49.2,3.6-73.7,0
				c3.2-14.7,4.1-27.3,0.3-62.8l-6,0.6c3.9,37.3,2.7,48.1-0.9,64c-2.8,12-4.3,27,5.5,46.9l5.4-2.7c-5.6-11.4-7.2-20.9-6.9-29.2
				c7.4,3,23.8,10.5,36.5,22v8.5h6v-8.5c12.7-11.5,29.1-19,36.5-22c0.3,8.3-1.3,17.8-6.9,29.2l5.4,2.7
				C691.3,330.5,689.8,315.6,687,303.6z M643.6,335.2c-14.5-12.7-32.4-20.4-38.9-22.9c0.2-1.6,0.5-3.1,0.8-4.6
				c12.7,1.9,25.4,2.8,38.1,2.8c12.7,0,25.5-0.9,38.1-2.8c0.3,1.5,0.6,3.1,0.8,4.6C676,314.8,658,322.5,643.6,335.2z"/>
		</g>
	</g>
	<g>
		<path fill="#3C444F" d="M224.6,445c-6-6-13.9-9.3-22.4-9.3c-7.5,0-14.6,2.6-20.3,7.3c-5.7-4.7-12.8-7.3-20.3-7.3
			c-8.9,0-17.1,3.6-23.2,10.1c-11.5,12.3-10.9,32.3,1.3,44.4l35.8,35.8c1.7,1.7,4,2.7,6.4,2.7s4.7-0.9,6.4-2.7l36.2-36.2
			C236.9,477.5,236.9,457.4,224.6,445z M220.3,485.5l-36.2,36.2c-1.1,1.1-3.1,1.1-4.3,0L144,486c-9.9-9.9-10.4-26.1-1.1-36.1
			c4.9-5.3,11.6-8.2,18.8-8.2c6.8,0,13.3,2.7,18.1,7.5l2.1,2.1l2.1-2.1c4.8-4.8,11.3-7.5,18.1-7.5c6.8,0,13.3,2.7,18.1,7.5
			C230.3,459.3,230.3,475.6,220.3,485.5z"/>
		<path fill="#00B6DE" d="M185.2,497.3c-4.9,0-6.2-6.4-7.8-14.5c-0.5-2.3-1.2-5.8-1.9-8c-0.7,2.2-1.4,5.6-1.9,8
			c-1.6,8.1-2.9,14.5-7.8,14.5c-4.5,0-5.9-6-6.7-9.2c-0.4-1.7-1.9-2.9-3.7-2.9h-31.5v-6h31.5c4.6,0,8.5,3.1,9.5,7.5
			c0.3,1.3,0.6,2.2,0.8,2.9c0.7-2.2,1.4-5.6,1.9-8c1.6-8.1,2.9-14.5,7.8-14.5c4.9,0,6.2,6.4,7.8,14.5c0.5,2.3,1.2,5.8,1.9,8
			c0.7-2.2,1.4-5.6,1.9-8c1.6-8.1,2.9-14.5,7.8-14.5c4.1,0,5.5,4.8,6.6,9.1c0.7,2.7,2.8,3,3.7,3H240v6h-34.7c-3.4,0-8-1.9-9.5-7.4
			c-0.2-0.6-0.5-1.8-0.9-2.9c-0.7,2.2-1.4,5.6-1.8,7.9C191.4,490.9,190.1,497.3,185.2,497.3z"/>
	</g>
	<g>
		<g>
			<path fill="#3C444F" d="M427.2,533.4c-1.8,0-3.6-0.3-5.3-0.9c-3.1-1.1-6.4-1.6-9.8-1.3l0.4,6c2.5-0.2,5,0.2,7.4,1
				c2.3,0.8,4.8,1.2,7.3,1.2c12,0,28.7-13.2,34.9-34.6l-5.8-1.7C450.6,522.9,435.7,533.4,427.2,533.4z"/>
			<path fill="#3C444F" d="M369,487.9c0-12.7,6.3-26.3,24-26.3c2.2,0,4.2,0.2,6.1,0.5c9.7,1.9,19.6,1.9,29.4,0
				c1.9-0.4,3.9-0.5,6.1-0.5c18.9,0,22.8,15,23.7,21.4l0.1,0.6l6-0.7l-0.1-0.6c-1.9-15-11.1-24.6-24.8-26.4c0.5-0.4,1-0.8,1.4-1.3
				c6.9-6.9,9.6-17,7.1-26.5l-0.4-1.7l-1.7-0.4c-2.3-0.6-4.7-0.9-7.1-0.9c-7.3,0-14.2,2.8-19.4,8c-2.6,2.6-4.6,5.7-6,9.1
				c-3.3-5.1-8.3-8.8-14.2-10.4l-1.6,5.8c4.8,1.3,8.8,4.4,11.3,8.7c2,3.4,2.8,7.3,2.4,11.2c-3.6-0.1-7.3-0.5-10.9-1.2
				c-2.3-0.4-4.7-0.6-7.2-0.6c-18.2,0-30,12.7-30,32.3c0,31,22.5,51.5,37.3,51.5v-6C389.2,533.4,369,516.1,369,487.9z M423.5,437.3
				c4-4,9.4-6.3,15.1-6.3c1.3,0,2.6,0.1,3.8,0.3c1.2,6.9-1,14-5.9,18.9c-4,4-9.4,6.3-15.1,6.3c0,0,0,0,0,0c-1.3,0-2.6-0.1-3.8-0.3
				C416.3,449.4,418.5,442.3,423.5,437.3z"/>
		</g>
		<g>
			<path fill="#00B6DE" d="M401.5,539.4C401.5,539.4,401.5,539.4,401.5,539.4c-3.6,0-6.4-1-8.3-2.9c-6.2-6.2-1.2-20.3,4-31.1
				c6.1-12.7,15.5-26.2,23.7-34.5c5.1-5.1,10.7-7.7,16.5-7.7c10.4,0,18,8.2,19.3,9.8c1.5,1.3,9.2,8.4,9.7,18.3
				c0.3,6.2-2.3,12.1-7.7,17.5C445,522.7,416.3,539.4,401.5,539.4z M437.4,469.3c-4.2,0-8.3,2-12.2,5.9c-17,17-33.6,51.2-27.7,57.1
				c0.9,0.9,2.7,1.1,4.1,1.1c12,0,38.7-14.5,53-28.8c4.1-4.1,6.1-8.5,5.9-12.9c-0.4-8-7.7-14.1-7.8-14.1l-0.2-0.2l-0.2-0.2
				C452.2,477,445.7,469.3,437.4,469.3z"/>
			
				<rect x="461.9" y="450.3" transform="matrix(0.7071 0.7071 -0.7071 0.7071 464.8682 -192.5599)" fill="#00B6DE" width="6" height="29.1"/>
			<rect x="467.2" y="459.5" fill="#00B6DE" width="11.7" height="6"/>
			<rect x="458.2" y="468.5" fill="#00B6DE" width="14.6" height="6"/>
			<rect x="464.2" y="450.9" fill="#00B6DE" width="6" height="11.7"/>
			<rect x="455.2" y="457" fill="#00B6DE" width="6" height="14.6"/>
			
				<rect x="423.6" y="472.9" transform="matrix(0.7071 0.7071 -0.7071 0.7071 462.442 -164.6419)" fill="#00B6DE" width="12.7" height="6"/>
			
				<rect x="411.6" y="489.4" transform="matrix(0.7071 0.7071 -0.7071 0.7071 470.5785 -151.3133)" fill="#00B6DE" width="12.7" height="6"/>
			
				<rect x="423.7" y="515.7" transform="matrix(0.7071 0.7071 -0.7071 0.7071 492.7513 -152.143)" fill="#00B6DE" width="12.7" height="6"/>
			
				<rect x="399.6" y="505.9" transform="matrix(0.7071 0.7071 -0.7071 0.7071 478.7147 -137.9859)" fill="#00B6DE" width="12.7" height="6"/>
			
				<rect x="440.2" y="503.7" transform="matrix(0.7071 0.7071 -0.7071 0.7071 489.1113 -167.344)" fill="#00B6DE" width="12.7" height="6"/>
		</g>
	</g>
	<g>
		<path fill="#00B6DE" d="M647,507.8L634.2,495l38.3-38.3l12.8,12.8L647,507.8z M642.7,495l4.3,4.3l29.7-29.7l-4.3-4.3L642.7,495z"
			/>
		<path fill="#00B6DE" d="M706.6,448.2l-12.8-12.8l6.4-6.4c1.7-1.7,4-2.7,6.4-2.7c2.4,0,4.7,0.9,6.4,2.7c3.5,3.5,3.5,9.3,0,12.8
			L706.6,448.2z M702.4,435.3l4.3,4.3l2.1-2.1c1.2-1.2,1.2-3.1,0-4.3c-1.1-1.1-3.1-1.1-4.3,0L702.4,435.3z"/>
		<path fill="#00B6DE" d="M612.9,538.1c-2.4,0-4.7-0.9-6.4-2.7c-3.5-3.5-3.5-9.3,0-12.8l6.4-6.4l12.8,12.8l-6.4,6.4
			C617.6,537.2,615.3,538.1,612.9,538.1z M612.8,524.9l-2.1,2.1c-0.6,0.6-0.9,1.3-0.9,2.1c0,0.8,0.3,1.6,0.9,2.1
			c1.1,1.1,3.1,1.1,4.3,0l2.1-2.1L612.8,524.9z"/>
		<g>
			<path fill="#3C444F" d="M625.7,477.9c-1.7-1.7-4-2.7-6.4-2.7s-4.7,0.9-6.4,2.7l-4.3,4.3c-1.7,1.7-2.7,4-2.7,6.4
				c0,2.4,0.9,4.7,2.7,6.4l2.5,2.5c-0.9,0.4-1.8,1-2.5,1.8l-4.3,4.3c-3.5,3.5-3.5,9.3,0,12.8l21.3,21.3c1.7,1.7,4,2.7,6.4,2.7
				c2.4,0,4.7-0.9,6.4-2.7l4.3-4.3c0.7-0.7,1.3-1.6,1.8-2.5l2.5,2.5c1.7,1.7,4,2.7,6.4,2.7c2.4,0,4.7-0.9,6.4-2.7l4.3-4.3
				c1.7-1.7,2.7-4,2.7-6.4s-0.9-4.7-2.7-6.4L625.7,477.9z M639.4,527c0,0.8-0.3,1.6-0.9,2.1l-4.3,4.3c-1.1,1.1-3.1,1.1-4.3,0
				L608.6,512c-0.6-0.6-0.9-1.3-0.9-2.1c0-0.8,0.3-1.6,0.9-2.1l4.3-4.3c0.6-0.6,1.3-0.9,2.1-0.9c0.8,0,1.6,0.3,2.1,0.9l21.3,21.3
				C639,525.4,639.4,526.2,639.4,527z M659.8,524.9l-4.3,4.3c-1.1,1.1-3.1,1.1-4.3,0l-8.5-8.5l-21.3-21.3l-8.5-8.5
				c-1.2-1.2-1.2-3.1,0-4.3l4.3-4.3c0.6-0.6,1.3-0.9,2.1-0.9s1.6,0.3,2.1,0.9l38.4,38.4C661,521.8,661,523.7,659.8,524.9z"/>
			<path fill="#3C444F" d="M715.2,461c1.7-1.7,2.7-4,2.7-6.4c0-2.4-0.9-4.7-2.7-6.4l-21.3-21.3c-1.7-1.7-4-2.7-6.4-2.7
				s-4.7,0.9-6.4,2.7l-4.3,4.3c-0.7,0.7-1.3,1.6-1.8,2.5l-2.5-2.5c-1.7-1.7-4-2.7-6.4-2.7c-2.4,0-4.7,0.9-6.4,2.7l-4.3,4.3
				c-1.7,1.7-2.7,4-2.7,6.4c0,2.4,0.9,4.7,2.7,6.4l38.4,38.4c1.7,1.7,4,2.7,6.4,2.7c2.4,0,4.7-0.9,6.4-2.7l4.3-4.3
				c1.7-1.7,2.7-4,2.7-6.4c0-2.4-0.9-4.7-2.7-6.4l-2.5-2.5c0.9-0.4,1.8-1,2.5-1.8L715.2,461z M706.6,478l-4.3,4.3
				c-1.1,1.1-3.1,1.1-4.3,0l-38.4-38.4c-1.2-1.2-1.2-3.1,0-4.3l4.3-4.3c0.6-0.6,1.3-0.9,2.1-0.9c0.8,0,1.6,0.3,2.1,0.9l8.5,8.5
				l21.3,21.3c0,0,0,0,0,0l8.5,8.5C707.8,474.9,707.8,476.9,706.6,478z M681,439.6c-0.6-0.6-0.9-1.3-0.9-2.1s0.3-1.6,0.9-2.1
				l4.3-4.3c0.6-0.6,1.3-0.9,2.1-0.9c0.8,0,1.6,0.3,2.1,0.9l21.3,21.3c0.6,0.6,0.9,1.3,0.9,2.1s-0.3,1.6-0.9,2.1l-4.3,4.3
				c-1.1,1.1-3.1,1.1-4.3,0L681,439.6z"/>
		</g>
	</g>
</g>
</svg>
